<svg xmlns="http://www.w3.org/2000/svg" xmlns:xlink="http://www.w3.org/1999/xlink" width="680.315pt" height="963.7795pt" viewBox="0 0 680.315 963.7795"><rect id="evangelion-bg" x="0" y="0" width="100%" height="100%" fill="#ffffff"/><defs><path d="M5.14.11q-.11-.112-.109-.438-.002-.576.078-.578.216.001.625-.11.404-.106.766-.265.358-.17.406-.297c.07-.258.117-.563.14-.906q.048-.514.048-1.203v-9.891q-.002-2.122-.203-2.516l-.141-.234q-.11-.106-.719-.172-.596-.076-1.39-.078-1.126.001-1.828.625-.706.61-1.094 2.047-.048.14-.266.14-.61 0-.797-.187l.516-4.453q.607.141 1.062.218c.313.055.586.079.829.079q1.389 0 2.984.093a58 58 0 0 0 6 0q1.605-.093 3-.093.357.002.812-.078.469-.077 1.079-.22l.515 4.47q-.187.203-.797.203-.22 0-.265-.141-.69-2.701-2.922-2.703c-1.461 0-2.235.164-2.328.484a6 6 0 0 0-.172 1 19 19 0 0 0-.047 1.438v9.86q0 .69.047 1.233.059.552.172.985c.039.074.172.168.39.281q.341.16.735.281.403.111.578.11c.07 0 .11.18.11.531 0 .18-.024.34-.063.484q-.112 0-.516-.03Q11.965.044 11.25 0 10.546-.045 10-.078q-.55-.03-.906-.031-.488.002-1.344.062-.843.045-1.594.078c-.5.032-.84.055-1.015.078m0 0" id="a"/><path d="M.813.11C.738.034.703-.118.703-.36q0-.545.063-.546.217 0 .64-.094.421-.093.782-.25.357-.171.406-.312.187-.668.187-2.204v-10.437q0-1.716-.187-2.125-.083-.218-.422-.375a3.6 3.6 0 0 0-.719-.266c-.242-.07-.433-.11-.578-.11q-.11.001-.11-.53 0-.422.047-.47l3.797.157c.239.024.692.016 1.36-.015.664-.04 1.547-.086 2.64-.141q.078.11.079.578c0 .281-.04.422-.11.422q-.176.002-.562.11a7 7 0 0 0-.766.265q-.363.158-.422.281-.22.61-.219 2.328v3.875l.063.078 3.266.063q.386.001 1.171-.016.796-.011 2.032-.047a.15.15 0 0 0 .046-.109v-3.953q0-1.465-.187-2.156c-.031-.114-.164-.223-.39-.328a4.5 4.5 0 0 0-.735-.282c-.25-.07-.45-.11-.594-.11q-.063.001-.11-.202a1.7 1.7 0 0 1 0-.485q.031-.263.079-.312l4.078.156q.406.002 3.688-.156.076.251.078.484 0 .516-.14.516-.16.002-.563.11a6 6 0 0 0-.75.265q-.347.158-.407.281a6.6 6.6 0 0 0-.172 1q-.046.564-.046 1.328v10.219q0 .738.047 1.313.06.563.171 1 .061.112.391.265.341.16.734.266.405.11.563.11c.07 0 .11.187.11.562q-.001.222-.079.468-.111 0-.515-.03-.41-.034-1.094-.079l-1.203-.078q-.517-.03-.875-.031c-.243 0-.563.011-.97.03q-.608.034-1.25.079-.644.03-1.171.063-.517.046-.672.046c-.043-.054-.074-.16-.094-.328a2 2 0 0 1 .016-.468q.047-.219.094-.22.215.002.625-.109.42-.105.765-.28.359-.172.422-.313.155-.621.156-2.157v-4.562l-.046-.11L9.938-8.5q-3.376.035-3.376.094l.047.047v4.484q0 .705.047 1.281.06.581.172 1.016.061.111.39.281.341.16.735.281.404.111.563.11.106 0 .125.422.012.41-.063.593Q7.232.028 6.313-.03a20 20 0 0 0-1.641-.08q-.909 0-1.828.078-.907.059-2.031.14m0 0" id="b"/><path d="M.844.11C.77.034.734-.118.734-.36q0-.545.11-.546.215.001.625-.078a4 4 0 0 0 .765-.22c.239-.1.38-.202.422-.296.102-.414.156-1.219.156-2.406v-10.328q-.001-1.529-.156-2.125-.063-.17-.437-.344-.361-.169-.781-.297-.41-.124-.625-.125-.111.001-.11-.484c0-.29.031-.47.094-.532.726.043 1.422.078 2.078.11.664.023 1.313.031 1.938.031.8 0 2.21-.023 4.234-.078q1.512-.03 2.656-.047 1.155-.014 1.922-.016.03.141.219 1.157.186 1.002.578 2.89c-.094.094-.305.14-.625.14q-.298 0-.39-.187a3.8 3.8 0 0 0-.97-1.28 5.4 5.4 0 0 0-1.39-.892q-.75-.341-1.453-.343H8.547q-1.753.002-1.766.343a9 9 0 0 0-.11.875c-.023.356-.03.778-.03 1.266v4.203q0 .158 1.172.156h1.453q1.715.001 1.843-.109c.094-.082.164-.344.22-.781q.059-.434.171-.797.03-.187.406-.187.47 0 .61.14v5.156q-.111.111-.578.11c-.243 0-.387-.07-.438-.219q-.33-1.061-.437-1.312-.111-.186-.157-.172-.033.017-.172-.094-.376-.218-2.125-.219-1.968 0-1.968.235v4.218q-.002 1.282.218 1.938.107.438 1.86.437h.703q1.686.001 3.062-.718.468-.248 1.047-.922.593-.687.922-1.532.047-.17.375-.171c.438 0 .711.058.828.171Q14.278-.873 14.172.047 13.498.045 12.39.03 11.278.031 9.75 0 8.248-.03 7.016-.062a22 22 0 0 0-2.188.015Zm0 0" id="c"/><path d="M.844.11C.77.034.734-.118.734-.36q0-.545.11-.546.215.001.625-.078a4 4 0 0 0 .765-.22c.239-.1.38-.202.422-.296.102-.414.156-1.219.156-2.406v-10.328q-.001-1.529-.156-2.125-.063-.17-.437-.344-.361-.169-.781-.297-.41-.124-.625-.125-.111.001-.11-.484c0-.29.031-.47.094-.532.726.043 1.422.078 2.078.11.664.023 1.313.031 1.938.031h4.75q2.2.002 3.968.719c1.176.468 2.172 1.117 2.985 1.937a8.3 8.3 0 0 1 1.875 2.813 8.9 8.9 0 0 1 .64 3.36c0 1.741-.383 3.308-1.14 4.702Q16.748-2.37 14.609-1.14 12.483.08 9.531.08c-.18 0-.449-.009-.812-.016A73 73 0 0 0 7.406.03a32 32 0 0 0-1.453-.078q-.655-.03-1.125 0Zm9.125-1.563c1.531 0 2.71-.649 3.547-1.953q1.265-1.968 1.265-5.875 0-2.027-.61-3.656-.596-1.624-1.702-2.579c-.742-.632-1.637-.953-2.688-.953h-.14c-1.555 0-2.434.149-2.641.438q-.362.469-.36 1.718v10.594q0 1.781.25 1.922.594.345 3.079.344m0 0" id="d"/><path d="M.813.11Q.702-.003.703-.329q0-.576.094-.578.215.001.625-.11.403-.106.766-.265.357-.17.406-.297.105-.386.14-.938.047-.545.047-1.25V-14.25q0-1.747-.219-2.14-.081-.154-.421-.313a7 7 0 0 0-.703-.266 2 2 0 0 0-.563-.11q-.11.002-.11-.452 0-.5.047-.547L2.125-18q.609.064.984.094.387.017.75 0 .373-.014.922-.016.546.002 3.828-.156.078.251.079.484c0 .344-.04.516-.11.516q-.174.002-.578.11a7 7 0 0 0-.781.265q-.363.158-.422.281a7 7 0 0 0-.14.922q-.048.596-.048 1v10.516q0 .766.047 1.375.06.598.172 1.03.061.112.39.282.341.16.735.281.404.111.563.11c.07 0 .109.18.109.531q0 .269-.047.484-.11 0-.531-.03C7.773.054 7.407.03 6.937 0q-.703-.045-1.25-.078-.549-.03-.906-.031c-.336 0-.781.023-1.343.062q-.844.045-1.594.078C1.344.063 1 .086.813.11m0 0" id="e"/><path d="M9.672.266c-.262 0-.469-.118-.625-.344l-5.61-13.86-.89-2.234c-.074-.195-.242-.36-.5-.484a3.7 3.7 0 0 0-.813-.313 3 3 0 0 0-.687-.11q-.11.002-.11-.452 0-.435.047-.547l1.704.11q.761.047 1.312.077.56.034.922.032l4.125-.22c.07.075.11.259.11.548 0 .304-.04.453-.11.453q-.3.002-.735.11a2.3 2.3 0 0 0-.75.327c-.21.149-.312.328-.312.547 0 .149.207.75.625 1.813l3.656 9.015 3.86-8.984c.363-.844.547-1.46.547-1.86q0-.419-.563-.687c-.375-.187-.836-.281-1.375-.281q-.093-.047-.094-.422 0-.357.063-.578 1.138.082 1.719.14.575.05.828.063.263.017.422.016.17.002.468-.032.294-.03.938-.078.64-.06 1.906-.11c.07.075.11.212.11.407 0 .387-.024.578-.063.578q-.299 0-.953.235-.657.22-1.063.547-.252.252-1.031 2L10.844-.735A2 2 0 0 1 10.28 0q-.345.265-.61.266m0 0" id="f"/><path d="M17.156.14q-.299.002-.843-.624L5.188-14.312v10.468q-.002 1.44.218 1.938.17.298.657.531.498.236 1.015.344.514.11.781.11.06 0 .079.234.03.222.03.468c0 .168-.015.274-.046.328A20 20 0 0 1 5.688 0a13 13 0 0 0-1.454-.11c-.437 0-.789.012-1.046.032-.25.023-.54.047-.86.078Q1.86.045.844.11C.789.054.766-.103.766-.376c0-.352.023-.531.078-.531.414 0 .86-.082 1.328-.25q.702-.265 1-.782.264-.434.265-2v-10.734c0-.945-.136-1.594-.406-1.937q-.08-.14-.5-.235A11 11 0 0 0 1.625-17a5 5 0 0 0-.75-.078q-.063 0-.11-.203a2.2 2.2 0 0 1-.015-.485q.014-.263.063-.312l1.75.11q.637.047 1.14.077.497.034.86.032.468 0 1.125-.047.667-.06 1.546-.172.545 1.094 1.516 2.406a60 60 0 0 0 2.188 2.781q1.216 1.456 2.515 3.016a82 82 0 0 1 2.469 3.094q.03-.106.047-.375.014-.265.015-.735v-6.421q0-1.577-.359-1.97c-.117-.144-.312-.273-.594-.39a5.3 5.3 0 0 0-.875-.297c-.293-.07-.511-.11-.656-.11q-.063.001-.11-.202a3 3 0 0 1-.03-.485q0-.263.046-.312 1.266.112 2.156.172.902.047 1.454.047.468 0 1.172-.047.715-.061 1.359-.11.637-.06.86-.062a1 1 0 0 1 .109.484q0 .516-.141.516c-.98 0-1.734.305-2.266.906q-.39.47-.39 2v10.375q-.002.486.031 1.453l.078 2.375c-.074.07-.297.11-.672.11m0 0" id="h"/><path d="M.406.11Q.296 0 .296-.298q0-.576.063-.578.218.001.657-.125a7 7 0 0 0 .859-.344q.42-.217.531-.406.218-.328.453-.797.248-.481.36-.781l.14-.328 6.032-13.875q.312-.717 1.015-.719.405 0 .656.36l5.594 13.843q.248.626.485 1.188.234.563.422 1.062c.07.18.234.336.484.469q.387.206.844.312.45.111.687.11c.07 0 .11.156.11.469q0 .436-.047.546L17.969 0a64 64 0 0 1-1.36-.094 6 6 0 0 0-.937-.015l-4.125.218q-.11-.11-.11-.578 0-.435.11-.437.608.001 1.234-.25.623-.264.625-.703-.002-.029-.156-.485a14 14 0 0 0-.516-1.344l-.828-2q-.11-.107-.187-.109c-.188-.008-.5-.016-.938-.016H7.484c-.46 0-.84.008-1.14.016q-.11 0-.203.14l-.891 2.08q-.47 1.095-.547 1.594-.066.486.484.75.498.25.86.297c.25.023.46.03.64.03q.094.035.094.438-.002.363-.062.578Q5.484.027 4.922-.016c-.367-.039-.64-.066-.828-.078a4 4 0 0 0-.578.016q-.316.033-1 .078-.691.029-2.11.11m8.688-7.563a28 28 0 0 0 1.937-.063l.078-.125-1.953-4.89-2.14 4.89q0 .111.062.11a21 21 0 0 0 2.016.078m0 0" id="i"/><path d="M6.5.266Q5.404.265 4.125.094a28 28 0 0 1-2.812-.531 23 23 0 0 1-.297-1.5A39 39 0 0 1 .78-3.703Q.687-4.558.687-4.97q.075-.28.485-.281c.562 0 .851.059.875.172q.171.814.734 1.703a5.6 5.6 0 0 0 1.406 1.5q.843.596 1.766.594c1.8 0 2.703-.992 2.703-2.985q-.001-.78-.625-1.437A7.2 7.2 0 0 0 6.61-6.875l-1.359-.906-.828-.547a23 23 0 0 1-1.75-1.297 5.7 5.7 0 0 1-1.328-1.562c-.336-.594-.5-1.317-.5-2.172q0-1.388.844-2.5.856-1.125 2.187-1.782a6.3 6.3 0 0 1 2.797-.656q.563 0 1.172.078.622.08 1.062.172.81.16 1.39.313c.395.093.712.164.954.203.094.886.164 1.703.219 2.453q.076 1.127.078 2.078-.112.268-.406.266-.815 0-.844-.188a4.8 4.8 0 0 0-.61-1.797 4.6 4.6 0 0 0-1.25-1.453 2.8 2.8 0 0 0-1.75-.594c-.617 0-1.136.196-1.562.578-.43.375-.64.985-.64 1.829q0 1.113.984 1.968.998.846 2.593 1.844l1.391.875q.762.469 1.438 1.031.686.563 1.125 1.454.435.877.437 2.406 0 1.454-.844 2.61c-.554.76-1.28 1.358-2.187 1.796A6.7 6.7 0 0 1 6.5.265m0 0" id="j"/><path d="M9.422.188q-1.798 0-3.39-.704A9 9 0 0 1 3.25-2.469a9.3 9.3 0 0 1-1.89-2.875 8.9 8.9 0 0 1-.673-3.453q0-1.935.672-3.64a9.6 9.6 0 0 1 1.907-3 8.8 8.8 0 0 1 2.859-2.047q1.655-.734 3.578-.735 1.5.002 3.047.203 1.562.206 3.203.594.154.046.36 1.828.106 1.02.171 1.594.061.562-.078.797-.127.234-.64.234l-.438-.094a5 5 0 0 0-.453-1.03q-.3-.546-.922-1.173-.597-.622-1.687-1.015-1.095-.406-2.438-.407-4.891 0-4.89 7.313-.001 2.284.671 4.125.669 1.829 1.97 2.906 1.294 1.065 3.124 1.063c1.352 0 2.52-.492 3.5-1.485q.436-.433.672-.984.234-.561.344-1 .123-.436.234-.437 1.124.001 1.235.265-.001.204-.125.813-.128.61-.297 1.343-.177.722-.375 1.25-.188.535-.328.594Q12.45.19 9.422.188m0 0" id="k"/><path d="M17.422.188c-.887 0-1.7-.086-2.438-.25q-1.111-.265-1.765-.594c-.461-.219-.906-.547-1.344-.985a29 29 0 0 1-.61-.625 7 7 0 0 1-.578-.75q-.315-.451-.812-1.203-.486-.75-1.266-2.015c-.718-1.07-1.195-1.649-1.421-1.735Q7.124-7.999 6.89-8q-.251.002-.25.438v3.718c0 .961.062 1.703.187 2.235q.059.221.469.39.404.159.89.235.498.08.766.078c.07 0 .11.18.11.531q0 .269-.047.484a271 271 0 0 0-2.688-.125q-1.03-.06-1.5-.03L.844.108C.77.035.734-.117.734-.359q0-.546.11-.547.215.001.625-.078a4 4 0 0 0 .765-.22c.239-.1.38-.202.422-.296.102-.414.156-1.219.156-2.406v-10.328q-.001-1.529-.156-2.125-.063-.17-.437-.344-.361-.169-.781-.297-.41-.124-.625-.125-.111.001-.11-.484c0-.29.031-.47.094-.532q1.248.063 2.25.11.997.033 1.765.031 1.31-.03 2.047-.031h1.766q1.09 0 2.203.281a7.1 7.1 0 0 1 2.031.828 4.5 4.5 0 0 1 1.485 1.422q.562.861.562 2.063-.002 1.206-.484 2.25a5.6 5.6 0 0 1-1.266 1.75q-.783.703-1.61.968-.22.082-.077.297.61 1.018.937 1.531.327.516.547.844.234.316.563.766.327.44.937 1.343.45.658 1.094 1.297.656.643 1.406 1.063.75.422 1.422.422c.07.074.11.242.11.5 0 .219-.04.402-.11.547-.125.007-.266.02-.422.03s-.336.016-.531.016M7.782-9.5h.734q1.077.002 1.656-.922c.394-.625.594-1.445.594-2.469 0-2.425-.852-3.64-2.547-3.64q-.957.001-1.25.218-.328.251-.328 2.688v2.953c0 .5.101.824.312.969q.311.204.828.203m0 0" id="l"/><path d="M9.375.25a8.3 8.3 0 0 1-3.39-.703 9 9 0 0 1-2.766-1.969 9.2 9.2 0 0 1-1.875-2.906 9.3 9.3 0 0 1-.657-3.469c0-1.289.227-2.5.688-3.625a10 10 0 0 1 1.922-3.015 8.9 8.9 0 0 1 2.86-2.047q1.622-.734 3.515-.735 1.5.002 3.047.203c1.039.137 2.11.336 3.203.594q.077 0 .172.61.106.609.218 1.453c.07.554.13 1.062.172 1.53.04.462.063.75.063.876q-.002.22-.485.219-.515.001-.843-.125a4.4 4.4 0 0 0-.453-1.063q-.3-.543-.891-1.234-.595-.686-1.672-1.11-1.066-.421-2.39-.422-4.922 0-4.922 7.266-.002 2.004.547 3.797a7.2 7.2 0 0 0 1.078 2.156A5.7 5.7 0 0 0 8.28-1.875q1.06.596 2.39.594c.821 0 1.407-.145 1.75-.438q.313-.247.313-.828v-1.906q-.002-1.453-.203-2.11-.189-.733-1.797-.734c-.043 0-.078-.07-.109-.219a1.6 1.6 0 0 1 0-.468q.03-.265.078-.313 1.091.048 2.188.11c.726.03 1.359.046 1.89.046q.406.002 3.688-.156.076.235.078.547c0 .324-.04.484-.11.484q-.626.001-1.453.407-.438.187-.437 2.156v1.594q0 .487.094.734.076.251.078.297c0 .312-.196.57-.578.765q-1.02.517-1.563.735-.563.252-2 .547-1.44.28-3.203.281m0 0" id="m"/><path d="M3.422-2.437Q.81-5.158.812-8.953q-.002-1.92.688-3.594A9.3 9.3 0 0 1 3.39-15.5a9.1 9.1 0 0 1 2.798-1.984 8.05 8.05 0 0 1 3.406-.735 8 8 0 0 1 3.39.735 8.9 8.9 0 0 1 2.797 1.984q1.2 1.266 1.89 2.953a9.2 9.2 0 0 1 .704 3.594q-.002 3.797-2.594 6.515c-1.18 1.243-2.508 2.063-3.984 2.47a7.97 7.97 0 0 1-4.406 0c-1.47-.407-2.793-1.227-3.97-2.47m6.61 1.187q1.358.001 2.265-.953.918-.966 1.375-2.594.451-1.624.453-3.64 0-1.5-.234-2.86a12.6 12.6 0 0 0-.75-2.64q-.517-1.278-1.532-2.016-1.02-.733-2.437-.735-1.442 0-2.39 1.032c-.65.719-1.094 1.59-1.344 2.61-.243 1.01-.36 2.171-.36 3.483Q5.075-6.78 6.14-4.173q.545 1.3 1.547 2.11.996.813 2.343.812m0 0" id="n"/><path d="M.844.11C.77.034.734-.118.734-.36q0-.545.11-.546.215.001.625-.078a4 4 0 0 0 .765-.22c.239-.1.38-.202.422-.296.102-.414.156-1.219.156-2.406v-10.328q-.001-1.529-.156-2.125-.063-.17-.437-.344-.361-.169-.781-.297-.41-.124-.625-.125-.111.001-.11-.484c0-.29.031-.47.094-.532q1.217.063 2.234.11 1.014.033 1.781.031.373.001.829-.016c.3-.007.609-.02.922-.03q.45-.031.89-.032h.844c1.094 0 2.101.148 3.031.437q.969.268 1.766.907.809.644 1.297 1.562.499.924.5 2.094-.001 1.471-.782 2.703A6.06 6.06 0 0 1 12-8.391q-1.33.75-2.953.75-.55.002-1.094-.156-.532-.171-.719-.453-.11-.153-.14-.594-.02-.435.11-.437c.257.148.671.219 1.234.219q2.295 0 2.296-3.72-.001-3.75-2.515-3.75-.957.001-1.25.22-.328.25-.328 2.687v9.781c0 .961.062 1.703.187 2.235q.059.221.469.39.404.159.89.235.498.08.766.078c.07 0 .11.18.11.531q0 .269-.047.484-3.284-.157-4.188-.156Zm0 0" id="o"/><path d="M.813.11C.738.034.703-.118.703-.36q-.001-.545.11-.546.215.001.625-.078a4 4 0 0 0 .765-.22c.238-.1.379-.202.422-.296.102-.414.156-1.219.156-2.406v-10.438q0-1.653-.219-2.047-.081-.153-.421-.312a7 7 0 0 0-.703-.266 2 2 0 0 0-.563-.11q-.11.002-.11-.452 0-.5.047-.547l3.97.156c.175.024.581.016 1.218-.015q.968-.06 2.61-.141.076.251.078.484c0 .344-.04.516-.11.516q-.174.002-.578.11a7 7 0 0 0-.781.265q-.363.158-.422.281a4.5 4.5 0 0 0-.156.922q-.034.563-.032 1.266v10.359c0 .875.07 1.531.22 1.969q.105.438 1.859.437h.703c1.132 0 2.156-.238 3.062-.718q.468-.248 1.047-.922.593-.687.922-1.532.047-.17.375-.171c.437 0 .71.058.828.171Q14.247-.873 14.141.047 13.39.045 12.17.03q-1.218 0-2.89-.031-1.658-.03-2.765-.047a24 24 0 0 0-1.703 0Zm0 0" id="p"/><path d="M7.281.047Q6.39.048 5.797-.828q-.315-.435-.64-1.25a29 29 0 0 1-.704-1.985q-.064-.187-.61-.187a8 8 0 0 0-.437.016q-.22.001-.265.218L2.75-1.89c-.055.25-.094.48-.125.688q-.033.298-.031.531 0 .11.187.203a1 1 0 0 0 .36.11l.187.03c.02 0 .031.024.031.063q0 .142-.078.313-.626-.036-1-.047-.363-.03-.422-.031L.36.047C.336.023.33-.008.33-.063q0-.264.093-.265A2 2 0 0 0 .72-.359q.2-.047.375-.11.169-.074.203-.156c.039-.125.094-.297.156-.516q.107-.327.203-.796l1.11-5.657q.03-.169.046-.343.031-.17.032-.344 0-.155-.281-.25a1.4 1.4 0 0 0-.454-.094q-.016 0-.015-.094 0-.217.094-.265.59.045 1.421.046.34.002.844-.015.515-.03.86-.031.609 0 1.171.187.561.187.907.61c.238.273.359.624.359 1.062q0 .61-.328 1.11-.315.503-.813.89-.485.393-1.046.656-.113.066-.079.172.188.597.422 1.234.247.644.5 1.188.263.531.485.86.216.375.468.5.246.126.704.124.092.252.015.375-.187.03-.375.047a7 7 0 0 1-.422.016m-3.297-4.86q.763.001 1.344-.296.593-.31.922-.86.342-.543.344-1.234 0-1.28-1.5-1.281c-.461 0-.75.015-.875.046-.117.024-.188.094-.219.22l-.656 3.171v.031c0 .137.21.204.64.204m0 0" id="q"/><path d="M2.36.078Q1.654.08 1.28-.469.906-1.029.906-2c0-.437.086-.883.266-1.344q.28-.685.719-1.281.45-.59.984-.953.546-.359 1.063-.36.623 0 .906.329.28.313.281.687-.001.597-.625 1.188a5 5 0 0 1-.875.672 4.4 4.4 0 0 1-.906.421 2.5 2.5 0 0 1-.735.141c-.043 0-.062.164-.062.484q0 .61.234.938.246.313.656.312c.25 0 .47-.07.657-.218q.294-.216.578-.485l.031-.047q.029 0 .11.141c.05.086.078.14.078.172q-.128.221-.438.531-.315.299-.703.531a1.5 1.5 0 0 1-.766.22m-.282-3.062q.247.002.594-.172c.226-.114.453-.27.672-.469q.34-.294.562-.64.235-.358.235-.704c0-.27-.118-.406-.344-.406q-.33.001-.64.266a3.3 3.3 0 0 0-.579.656 4.5 4.5 0 0 0-.406.781q-.157.394-.156.64 0 .048.062.048m0 0" id="r"/><path d="M4.39.078a.4.4 0 0 1-.343-.187q-.127-.2-.125-.516c0-.07.004-.172.015-.297q.013-.187.079-.437l.062-.344a6 6 0 0 1-.484.75q-.315.409-.688.719-.375.298-.75.297-.597.001-.953-.532Q.86-1.013.86-1.78q0-.762.344-1.5.342-.732.906-1.328c.375-.407.79-.727 1.25-.97q.704-.357 1.407-.359.543.002 1 .172l-.797 4.11a5 5 0 0 1-.063.36 1.5 1.5 0 0 0-.015.234q0 .297.14.296.106.002.266-.125.153-.123.312-.28.153-.155.235-.25l.078-.095q.029 0 .11.141c.05.086.077.14.077.172a3 3 0 0 1-.421.5q-.3.313-.657.547-.346.234-.64.234M2.564-.719q.264.002.546-.265a3.4 3.4 0 0 0 .563-.735q.279-.45.5-.984.217-.527.312-1.031l.266-1.407q-.158-.17-.562-.171-.41.002-.813.296a3.1 3.1 0 0 0-.75.75q-.346.471-.547 1.047a3.5 3.5 0 0 0-.203 1.156c0 .899.227 1.344.688 1.344m0 0" id="s"/><path d="M4.39.078a.4.4 0 0 1-.343-.187q-.127-.2-.125-.516-.002-.169.031-.39.03-.236.078-.423.046-.199.063-.28a6 6 0 0 1-.547.827c-.219.274-.45.5-.688.688-.242.18-.468.266-.687.266q-.628.001-.969-.532Q.86-1.013.86-1.78q0-.732.344-1.469.342-.733.906-1.344a4.8 4.8 0 0 1 1.266-.968q.685-.375 1.36-.375h.187l.375-2.032a1.7 1.7 0 0 0 .047-.39q0-.265-.844-.266c-.023 0-.031-.023-.031-.078q-.001-.154.11-.266a6 6 0 0 0 1.765-.39q.077.065.078.265L6.22-8.077 4.938-1.452q-.046.174-.046.344 0 .344.14.343.106.001.266-.109c.101-.082.203-.176.297-.281a6 6 0 0 0 .234-.25l.094-.11q.029 0 .11.141c.05.086.077.14.077.172a3 3 0 0 1-.421.5q-.316.313-.672.547-.345.234-.625.234M2.564-.719q.263 0 .562-.281a3.4 3.4 0 0 0 .563-.734q.261-.452.484-.985c.144-.351.25-.703.312-1.047l.157-.89a.63.63 0 0 0-.047-.453q-.112-.201-.375-.203c-.274 0-.547.101-.828.296a3.4 3.4 0 0 0-.766.75q-.346.471-.547 1.047a3.5 3.5 0 0 0-.203 1.172q-.002 1.33.688 1.328m0 0" id="t"/><path d="M2.906-7.453q-.252.002-.375-.156a.56.56 0 0 1-.125-.375q0-.293.188-.563.2-.28.594-.281c.164 0 .285.055.359.156q.124.158.125.375-.002.298-.203.578-.188.268-.563.266M2.75-5.937q.217.002.328.203a.9.9 0 0 1 .125.5q0 .3-.078.734l-.562 2.86q-.018.08-.047.265a2 2 0 0 0-.032.297q0 .313.141.312c.07 0 .16-.039.266-.125q.153-.123.312-.28.153-.155.235-.25l.078-.095q.028 0 .109.141c.05.086.078.14.078.172a3 3 0 0 1-.422.5q-.299.313-.656.547-.361.234-.64.234a.4.4 0 0 1-.344-.187c-.086-.133-.125-.305-.125-.516q0-.105.015-.281.03-.186.078-.453l.563-2.844q.047-.218.047-.36.013-.14.015-.187-.001-.342-.125-.344-.11.002-.343.203a3.5 3.5 0 0 0-.344.36l-.063.078q-.034.001-.109-.125a.5.5 0 0 1-.078-.188c.07-.125.203-.273.39-.453q.296-.279.626-.5.327-.217.562-.218m0 0" id="u"/><path d="M4.953.078a.4.4 0 0 1-.344-.187A1.05 1.05 0 0 1 4.5-.625q-.001-.105.016-.281.012-.186.078-.453l.468-2.25q.06-.234.079-.407c.007-.125.015-.234.015-.328 0-.394-.086-.593-.25-.593q-.22 0-.593.328-.375.327-.797.89a7.7 7.7 0 0 0-.75 1.25q-.331.692-.485 1.406L2.047 0a1.5 1.5 0 0 1-.422.047q-.27 0-.469-.047l.813-4.203a2 2 0 0 0 .047-.375c.007-.094.015-.149.015-.172q0-.342-.14-.344c-.032 0-.079.024-.141.063a4 4 0 0 0-.187.156q-.189.157-.313.297c-.074.086-.11.125-.11.125q-.016.001-.093-.125a.5.5 0 0 1-.078-.188c.07-.125.203-.273.39-.453.196-.187.407-.351.625-.5q.33-.217.563-.218.217.002.328.203a.9.9 0 0 1 .125.5q0 .3-.078.734l-.25 1.25q.076-.123.219-.328c.101-.145.234-.317.39-.516q.294-.406.703-.828.405-.435.797-.719.406-.294.688-.296c.445 0 .672.296.672.89q0 .315-.047.688-.048.377-.14.812L5.5-1.453q-.033.174-.031.344-.002.344.125.343c.07 0 .16-.039.265-.125q.154-.123.313-.28c.113-.102.195-.188.25-.25l.078-.095q.029 0 .094.141c.05.086.078.14.078.172a3 3 0 0 1-.422.5q-.3.313-.656.547-.347.234-.64.234m0 0" id="v"/><path d="M2.344 3.188q-.939-.002-1.531-.36c-.399-.242-.594-.57-.594-.984 0-.344.101-.637.312-.875a2.9 2.9 0 0 1 .782-.61c.312-.168.601-.316.875-.437l-.25-.172q-.345-.216-.344-.484 0-.172.234-.36a3 3 0 0 1 .547-.343c.219-.114.414-.192.594-.235-.188 0-.387-.039-.594-.125a1.7 1.7 0 0 1-.656-.5 1.3 1.3 0 0 1-.297-.86q0-.762.375-1.39a3 3 0 0 1 .953-1.016c.395-.257.813-.39 1.25-.39.25 0 .46.031.64.094q.265.081.548.187.28.094.671.094h.594q.077.002.078.11 0 .093-.047.234a.5.5 0 0 1-.109.187h-.766q-.08 0-.078.078.077.486.078.703-.002.798-.343 1.391a2.27 2.27 0 0 1-.891.89q-.316.206-.656.36a5 5 0 0 0-.563.281q-.22.128-.219.297c0 .086.098.172.297.266q.31.127.72.265a8 8 0 0 1 .671.266q.387.205.656.531.265.342.266.782-.001.966-.875 1.546c-.574.383-1.352.579-2.328.579m.937-5.313q.374 0 .672-.281a1.9 1.9 0 0 0 .485-.719q.17-.434.171-.89-.001-.546-.218-.985-.223-.436-.61-.437-.376 0-.687.312-.315.298-.485.766c-.117.312-.171.64-.171.984 0 .355.07.652.218.89.145.243.352.36.625.36m-.265 4.719q.669 0 1.156-.281.499-.282.5-.704A.97.97 0 0 0 4.39.891a2.4 2.4 0 0 0-.72-.453 15 15 0 0 0-.905-.329c-.18.07-.309.125-.391.157Q2.263.326 2 .484 1.233.89 1.234 1.5q0 1.092 1.782 1.094m0 0" id="w"/><path d="M1.688.078Q.92.078.468-.437a.42.42 0 0 1-.077-.266.7.7 0 0 1 .125-.422q.14-.201.343-.203.187 0 .344.187.153.224.375.422.218.204.594.203c.195 0 .36-.066.484-.203a.6.6 0 0 0 .188-.422q-.001-.356-.266-.765A5 5 0 0 0 2-2.625a4 4 0 0 1-.594-.766c-.18-.3-.265-.601-.265-.906q-.001-.388.25-.781.264-.388.687-.64.435-.266.969-.266.779 0 1.234.515c.04.125.063.227.063.297a.7.7 0 0 1-.14.422.39.39 0 0 1-.329.172q-.19 0-.344-.203a2.6 2.6 0 0 0-.375-.39q-.22-.202-.594-.204a.58.58 0 0 0-.453.188.66.66 0 0 0-.156.437c0 .242.086.496.266.766q.263.392.578.703.31.315.578.765.265.456.266.922-.001.75-.547 1.219c-.367.305-.836.453-1.406.453m0 0" id="x"/><path d="M-.484 3.156q-.48 0-.75-.172c-.188-.117-.305-.246-.36-.39a.9.9 0 0 1 .157-.563q.159-.251.406-.25.14-.001.234.125.096.122.203.297.095.169.219.297.129.124.344.125.282 0 .515-.312.235-.3.422-.75.2-.458.328-.938.14-.47.204-.828l.812-4.625v-.031q-.001-.078-.031-.079h-.89c-.024 0-.032-.007-.032-.03q0-.079.094-.22.106-.152.265-.265a.54.54 0 0 1 .297-.11h.39q.078.002.095-.125a6.5 6.5 0 0 1 .656-1.984q.466-.872 1.11-1.375c.437-.332.882-.5 1.343-.5q.873 0 1.125.469-.001.89-.5.89-.206.002-.375-.218a5 5 0 0 0-.344-.422.53.53 0 0 0-.406-.203q-.44 0-.922.89c-.086.149-.172.34-.266.579a12 12 0 0 0-.234.734q-.111.375-.187.703-.08.315-.079.484v.032q0 .046.047.046H4.97q.077.002.078.172c0 .137-.055.29-.156.454H3.297q-.064.002-.094.109l-.75 4.094q-.346 1.95-1.156 2.922-.815.967-1.781.968m0 0" id="y"/><path d="M2.61.063Q1.777.064 1.343-.47C1.062-.82.922-1.329.922-1.984q-.002-.704.265-1.407a5.5 5.5 0 0 1 .72-1.28q.45-.576.984-.923c.351-.226.703-.343 1.047-.343q.794 0 1.234.562.452.549.453 1.531 0 .704-.281 1.406-.269.692-.719 1.266c-.293.375-.617.68-.969.906q-.532.33-1.047.329m.25-.547q.34 0 .656-.297.311-.295.547-.781c.156-.32.28-.672.375-1.047.101-.383.156-.758.156-1.125q0-.798-.219-1.22-.223-.42-.61-.421c-.23 0-.453.102-.671.297a2.8 2.8 0 0 0-.578.766q-.253.487-.407 1.062-.14.564-.14 1.094-.001.798.25 1.234.247.439.64.438m0 0" id="z"/><path d="M1.719.047q-.253 0-.5-.047l.812-4.203q.093-.5.063-.688c-.024-.132-.063-.203-.125-.203-.043 0-.094.024-.157.063a3.5 3.5 0 0 0-.484.453c-.074.086-.11.125-.11.125q-.034.001-.109-.125a.5.5 0 0 1-.078-.188c.07-.125.203-.273.39-.453q.296-.279.626-.5.328-.217.562-.218.216.002.344.203a.9.9 0 0 1 .125.5q0 .3-.094.734l-.218 1.14q.187-.387.437-.812a7 7 0 0 1 .594-.875q.656-.89 1.172-.89.421.002.718.437 0 .907-.5.906A.24.24 0 0 1 5-4.672a1 1 0 0 0-.156-.172.32.32 0 0 0-.235-.093q-.22 0-.546.328-.316.328-.657.875a9 9 0 0 0-.594 1.14 5 5 0 0 0-.374 1.156L2.172 0a2.2 2.2 0 0 1-.453.047m0 0" id="A"/><path d="M3.875.188Q3.828.187 3.75.109L2.406-7.53q-.08-.451-.203-.75c-.055-.094-.156-.172-.312-.235a1 1 0 0 0-.391-.109q-.033 0-.031-.062-.001-.249.11-.297.543.035.905.046h1.11q.373-.011.906-.046v.046c0 .211-.04.313-.11.313q-.47.001-.64.125-.174.11-.172.39-.001.096.016.204.03.093.031.234l1.063 5.719 3.28-5.61q.155-.293.157-.656 0-.186-.234-.297a1.2 1.2 0 0 0-.5-.109q-.034 0-.032-.062 0-.249.094-.297.497.035.813.046h.953q.34-.011.86-.046v.078c0 .187-.04.281-.11.281-.18 0-.375.063-.594.188a1.3 1.3 0 0 0-.531.53L4.39-.265q-.252.453-.516.454m0 0" id="C"/><path d="M.047 3.203Q0 3.186 0 3.093q0-.222.047-.28.373-.001.547-.22.17-.205.219-.593L1.89-3.562l-.641.656a.4.4 0 0 1-.094-.281q0-.048.047-.094L2-4.141l.36-1.765a1.5 1.5 0 0 1 .453-.063q.262 0 .437.094-.046.299-.094.484-.048.188-.062.282.422-.36.797-.594.386-.234.937-.234.623 0 .953.546.342.535.344 1.297-.002.926-.594 1.922A6 6 0 0 1 4.625-1a4.7 4.7 0 0 1-1.031.781Q3.09.05 2.656.047c-.219 0-.402-.035-.547-.094l-.39 2.031a2 2 0 0 0-.032.375q0 .247.188.313.186.047.64.047c.02 0 .032.023.032.078a.5.5 0 0 1-.078.297H2q-.938-.001-1.953.11m2.86-3.781q.404 0 .78-.281.389-.282.72-.75.327-.468.515-1.047.201-.575.203-1.172 0-1.326-.844-1.328-.796.001-1.312.734l-.594 3.016q-.048.315.063.578.105.251.468.25m0 0" id="D"/><path d="M-.234 2.219q-.047 0-.141-.094c-.07-.055-.11-.11-.11-.172q0-.065.329-.312A3.7 3.7 0 0 0 .657.625C.756.438.811.25.811.063q0-.247-.093-.516A1.6 1.6 0 0 1 .64-.906q0-.341.328-.594a1.16 1.16 0 0 1 .719-.266c.113 0 .222.024.328.063a.8.8 0 0 1 .046.312q0 .142-.03.36a2.5 2.5 0 0 1-.11.437c-.094.45-.266.848-.516 1.203q-.375.547-.781.922-.409.374-.672.578Zm0 0" id="E"/><path d="M-.375.047a.5.5 0 0 1-.016-.14q0-.235.094-.235c.074 0 .192-.016.344-.047A3 3 0 0 0 .5-.5q.217-.092.25-.156.265-.48.453-1.219l1.485-5.328q.093-.341.14-.547.047-.2.047-.5-.002-.105-.203-.187a2.5 2.5 0 0 0-.406-.126 1.5 1.5 0 0 0-.328-.062c-.024 0-.032-.031-.032-.094q0-.217.094-.265l1.281.03q.387.02.703 0c.22-.007.414-.019.594-.03q.06.563.313 2.25.262 1.689.718 4.515h.016q.047 0 .047-.015l2.422-4.907.86-1.843q.374.045 1.077.046.233.002.531-.015.311-.012.657-.047.03.064 0 .234-.017.158-.063.157a.8.8 0 0 0-.375.109.76.76 0 0 0-.297.219 1.25 1.25 0 0 0-.234.594q-.048.362-.078.625L9.64-1.844a10 10 0 0 0-.079 1.078c0 .188.07.309.22.36q.232.08.577.078.014.001.016.125a.38.38 0 0 1-.078.25q-.626-.034-1-.063a3.4 3.4 0 0 0-.485-.015L7.376.047q-.033-.09-.031-.078-.002-.077.031-.188c.031-.07.05-.11.063-.11q.124.002.312-.015.2-.029.36-.094.17-.058.187-.14c.113-.25.18-.445.203-.594q.03-.215.078-.625l.547-5.328q.03-.404.031-.531 0-.094-.078-.094-.033.002-.031.063L5.469-.423q-.05.128-.25.297-.188.157-.36.156A.4.4 0 0 1 4.75 0L3.594-7.75c-.024-.008-.031-.016-.031-.016-.032 0-.047.008-.047.016L1.922-1.86q-.13.47-.188.75-.063.283-.062.391-.001.064.156.156.169.096.39.172.217.064.376.063.03 0 .031.078a.75.75 0 0 1-.078.297A45 45 0 0 0 1.562 0q-.362-.03-.42-.031Zm0 0" id="F"/><path d="M1.89.078a.4.4 0 0 1-.343-.187c-.086-.133-.125-.305-.125-.516q-.001-.105.016-.281.03-.186.078-.453l.734-3.797h-.969q-.033.001-.031-.157-.001-.17.156-.421h.953l.329-1.672c.007-.082.234-.125.671-.125h.25l-.343 1.797H4.5q.077 0 .078.172-.001.174-.125.406H3.156l-.719 3.703q-.046.174-.046.344 0 .344.14.343.233.001.453-.25l.36-.406.078-.094q.029 0 .11.141c.05.086.077.14.077.172a4 4 0 0 1-.437.5q-.3.313-.656.547-.345.234-.625.234m0 0" id="G"/><path d="M4.188.188a4 4 0 0 1-1.672-.36A3.26 3.26 0 0 1 1.28-1.188a2.5 2.5 0 0 1-.468-1.484q-.001-.562.25-1.078.247-.515.64-.906.406-.388.828-.547A1.95 1.95 0 0 1 2-6.547q0-.592.375-1.078A2.72 2.72 0 0 1 4.5-8.672q.623.002 1.094.344.468.344.468.906 0 .27-.14.531a1.4 1.4 0 0 1-.328.422q-.19.158-.344.157c-.086 0-.125-.032-.125-.094q.075-.247.094-.375.03-.123.031-.235a.98.98 0 0 0-.312-.734 1.04 1.04 0 0 0-.75-.312q-.411.001-.75.218a1.62 1.62 0 0 0-.75 1.375c0 .45.148.809.453 1.078q.327-.093.53-.093.388.002.704.156.328.142.328.406 0 .268-.281.406-.27.141-.61.141-.514 0-.843-.281-.985.832-.985 1.875-.002.657.313 1.203.31.549.844.875.545.313 1.218.312.75 0 1.407-.39a3.1 3.1 0 0 0 1.062-1.031q.406-.655.406-1.422 0-.527-.328-.938-.315-.405-.797-.406-.391.002-.671.203a.65.65 0 0 0-.282.547q0 .22.14.312c.095.055.196.094.313.125a.9.9 0 0 1 .329.125c.101.055.156.153.156.297a.7.7 0 0 1-.14.422.54.54 0 0 1-.313.219.87.87 0 0 1-.47-.156 1.4 1.4 0 0 1-.405-.422 1.13 1.13 0 0 1-.172-.61q-.002-.514.265-.906a2 2 0 0 1 .72-.61q.45-.233.984-.234.527.017.734.016h.297q.48.001.843-.203.36-.217.36-.61a.5.5 0 0 0-.125-.343.4.4 0 0 0-.313-.157.56.56 0 0 0-.359.125.55.55 0 0 1-.36.125.4.4 0 0 1-.296-.125.5.5 0 0 1-.11-.328q-.002-.31.36-.578.764.002 1.234.344.47.328.469.938 0 .595-.422.968c-.273.25-.64.375-1.11.375h-.124l-.22-.031q.75.675.75 1.688 0 .673-.327 1.265a3.5 3.5 0 0 1-.89 1.047q-.552.44-1.266.688a4.6 4.6 0 0 1-1.5.25m0 0" id="H"/><path d="M4.75.078a.4.4 0 0 1-.344-.187c-.086-.133-.125-.305-.125-.516q-.001-.105.016-.281.029-.186.094-.453l.468-2.25q.06-.234.079-.407c.007-.125.015-.234.015-.328 0-.394-.086-.593-.25-.593q-.222.002-.61.343-.375.345-.796.907a8.6 8.6 0 0 0-.75 1.25q-.328.673-.469 1.374L1.844 0a1.5 1.5 0 0 1-.422.047Q1.152.047.953 0l1.485-7.64q.107-.591.109-.72 0-.264-.828-.265c-.024 0-.032-.023-.032-.078q0-.154.094-.266a6 6 0 0 0 1.735-.39q.076.046.078.265 0 .048-.047.313-.034.252-.125.703L2.469-3.25q.077-.123.219-.328c.101-.145.234-.317.39-.516q.293-.406.703-.828.404-.435.797-.719.403-.294.672-.296.687 0 .688.89 0 .315-.047.688-.048.377-.141.812l-.453 2.094q-.047.174-.047.344 0 .344.14.343c.157 0 .305-.082.454-.25q.234-.247.375-.406l.078-.094q.029 0 .094.141c.05.086.078.14.078.172a3 3 0 0 1-.422.5q-.3.313-.656.547-.347.234-.641.234m0 0" id="I"/><path d="M.344.047Q.327.03.328-.063q0-.264.063-.265.106 0 .312-.047.217-.06.39-.14c.126-.051.196-.102.22-.157.125-.27.242-.691.359-1.265l.984-5.079c.063-.32.102-.586.125-.796q.029-.329.016-.485c0-.05-.055-.098-.156-.14a1.4 1.4 0 0 0-.328-.126 1 1 0 0 0-.282-.062q-.033 0-.031-.047-.001-.218.11-.312.31.018.671.03h1.485c.28-.007.554-.015.828-.015q.421-.014.703-.015c.789 0 1.453.152 1.984.453.532.304.93.715 1.203 1.234q.406.769.407 1.766 0 .937-.36 1.922A6.2 6.2 0 0 1 7.97-1.797c-.461.555-1.024 1-1.688 1.344-.668.336-1.422.5-2.265.5Q3.733.046 3.328.016c-.262-.012-.527-.02-.797-.032A6 6 0 0 0 1.86-.03Zm3.984-.64q.92 0 1.625-.438.715-.436 1.219-1.156a5.6 5.6 0 0 0 .75-1.626 6.6 6.6 0 0 0 .266-1.843q-.002-1.201-.594-1.969c-.399-.508-1.008-.766-1.828-.766q-1.47.001-1.641.22-.11.14-.203.421-.08.27-.172.656L2.766-1.89q-.112.456-.094.688.03.236.078.344c.082.18.61.265 1.578.265m0 0" id="J"/><path d="M2.438 0a.92.92 0 0 1-.735-.328c-.18-.227-.266-.52-.266-.875q0-.388.047-.594l.47-2.406q.028-.153.046-.281.03-.124.031-.266 0-.342-.14-.344c-.118 0-.235.07-.36.203q-.188.206-.312.36l-.078.078q-.018.001-.094-.125a.5.5 0 0 1-.078-.188c.07-.125.203-.273.39-.453.196-.187.407-.351.625-.5q.33-.217.563-.218.217.002.328.203a.9.9 0 0 1 .125.5q0 .3-.078.734l-.406 2.078a10 10 0 0 0-.094.547 4 4 0 0 0-.016.313q-.001.392.125.562.122.157.438.156.232 0 .547-.234.31-.235.609-.61.31-.386.563-.843.263-.452.421-.89.155-.452.157-.798 0-.28-.188-.61-.204-.325-.203-.5-.002-.245.156-.421a.53.53 0 0 1 .407-.187q.248.002.437.109.188.361.188.781 0 1.142-.657 2.36-.439.796-.984 1.406-.532.61-1.047.953Q2.859 0 2.438 0m0 0" id="K"/><path d="M5.719.047A145 145 0 0 1 3.484.016q-.766-.03-1.28-.047-.517-.012-.798 0L-.109.047Q-.123.03-.125-.063q0-.327.094-.328.123.003.311-.029.2-.047.375-.11.17-.06.203-.14.186-.405.36-1.266L2.187-7q.059-.374.094-.672.047-.31.047-.578 0-.105-.14-.187a1.4 1.4 0 0 0-.329-.126 1 1 0 0 0-.28-.062c-.024 0-.032-.02-.032-.062q-.001-.187.11-.297.105 0 .374.03a20 20 0 0 0 1.094.048q.154.001.453-.016.294-.013.594-.031a5 5 0 0 1 .406-.031v.046q0 .315-.094.313-.082.002-.28.063-.188.047-.376.124-.174.064-.203.141-.19.41-.344 1.266l-.969 5.14q-.08.394-.109.641-.033.253-.031.36-.002.203.125.25.045.018.312.03.265.017 1.016.016.607 0 1.016-.047.406-.06.687-.218.282-.172.516-.5.247-.328.5-.86.045-.077.218-.078.217 0 .282.078Q5.888-.45 5.719.047m0 0" id="L"/><path d="M2.11.078c-.462 0-.688-.297-.688-.89q0-.33.047-.704.047-.375.14-.796l.407-1.891q.06-.247.062-.375c.008-.094.016-.149.016-.172q0-.342-.14-.344c-.044 0-.095.024-.157.063a3.5 3.5 0 0 0-.484.453l-.11.125q-.033.001-.11-.125a.6.6 0 0 1-.062-.188c.07-.125.203-.273.39-.453a4 4 0 0 1 .61-.5q.328-.217.563-.218.216.002.344.203a.9.9 0 0 1 .124.5q0 .376-.078.734L2.5-2.25q-.048.188-.078.375a4 4 0 0 0-.016.36c0 .398.082.593.25.593.133 0 .313-.094.531-.281q.328-.293.766-.89.406-.515.735-1.25a6.4 6.4 0 0 0 .484-1.454l.234-1.062q.17-.047.422-.047.264 0 .469.047l-.844 4.406q-.047.174-.047.344 0 .344.14.343c.071 0 .161-.039.266-.125q.154-.123.313-.28.153-.155.234-.25l.094-.095a.6.6 0 0 1 .094.141c.05.086.078.14.078.172a3 3 0 0 1-.422.5q-.3.313-.656.547-.361.234-.64.234a.4.4 0 0 1-.344-.187q-.127-.2-.125-.516-.002-.105.015-.281.03-.186.078-.453l.25-1.25q-.064.142-.203.343-.142.207-.36.5-.268.394-.671.829a6 6 0 0 1-.781.718q-.392.299-.657.297m0 0" id="M"/><path d="M.453 3.188Q.09 3.186-.14 3.016q-.234-.158-.234-.391 0-.44.328-.61c.195.126.5.188.906.188q1.125 0 1.97-1.219.31-.486.312-1.828 0-.733-.047-1.484a13 13 0 0 0-.125-1.375 4.5 4.5 0 0 0-.25-1q-.158-.388-.39-.39-.095.001-.235.109a2.5 2.5 0 0 0-.281.265 3 3 0 0 0-.235.266q-.033.001-.11-.125a.5.5 0 0 1-.077-.188q.044-.107.218-.296.187-.186.438-.391.248-.201.484-.344.246-.14.422-.14.387.001.656.625.282.625.375 1.89.076.75.094 1.266.03.516.047.937.014.41.016.844a8.5 8.5 0 0 0 .718-1.047q.374-.621.625-1.265c.164-.438.25-.836.25-1.204a3.1 3.1 0 0 0-.343-1.468c.125-.383.351-.578.687-.578q.593 0 .594 1.078 0 1.487-1.172 3.437A13 13 0 0 1 4.219.391q-.69.842-1.39 1.468-.693.622-1.313.97-.611.357-1.063.358m0 0" id="N"/><path d="M.281.031Q.234-.014.234-.14c0-.101.016-.156.047-.156.094 0 .211-.02.36-.062A.6.6 0 0 0 .953-.53a2.2 2.2 0 0 0 .25-.422q.14-.28.297-.672l2.031-5.234q.076-.17.094-.235a.6.6 0 0 1 .031-.125 1 1 0 0 1 .078-.187q.075-.171.157-.266.093-.093.28-.094l.095.047 2.343 6.172.188.484q.092.206.156.36a.43.43 0 0 0 .203.219q.153.081.328.14.172.047.266.047.047 0 .047.219-.002.018-.016.047c0 .023-.008.039-.015.062Q7.186.013 6.859 0c-.21-.008-.336-.016-.375-.016L5.125.031q-.047-.046-.047-.187.014-.14.063-.14.14 0 .343-.063.216-.061.25-.157a.4.4 0 0 0 .016-.093c.008-.032.016-.063.016-.094a1.7 1.7 0 0 0-.047-.36 1.6 1.6 0 0 0-.078-.312l-.532-1.453q-.034-.047-.062-.047a9 9 0 0 0-.89-.047c-.212 0-.438.012-.688.031q-.363.019-.797.032l-.063.03-.5 1.298a3 3 0 0 0-.171.5 1.7 1.7 0 0 0-.032.312q0 .159.094.235a1 1 0 0 0 .344.14q.234.047.344.047.03 0 .03.14.014.142-.015.188L1.5-.016a3.5 3.5 0 0 0-.64 0Q.543.014.28.031m3.469-3.5c.344 0 .695-.015 1.063-.047l.03-.046-.952-2.594-1 2.61c0 .03.007.046.03.046l.5.031zm0 0" id="O"/><path d="M.438.031Q.39-.015.39-.156q0-.14.046-.14.093.001.25-.032Q.86-.375 1-.422q.14-.06.14-.11.046-.17.063-.374.03-.218.031-.453v-2.203q0-.453-.171-.641a.53.53 0 0 0-.282-.188A1 1 0 0 0 .5-4.437Q.39-4.45.39-4.47q0-.28.063-.297a35 35 0 0 0 1.485-.25l.187-.062q.045-.012.063.094a.5.5 0 0 1 0 .156l-.063.578q.199-.31.563-.578c.25-.188.492-.281.734-.281q.686 0 .922.328 0 .421-.14.61c-.087.124-.188.187-.313.187q-.205 0-.375-.203a.64.64 0 0 0-.485-.204.8.8 0 0 0-.453.157 1.16 1.16 0 0 0-.328.406 1 1 0 0 0-.125.5v1.75q-.001.345.016.61.03.25.078.437.03.048.172.11.138.046.312.093.17.033.235.031.029 0 .046.14.013.142-.015.188L1.703-.016Zm0 0" id="P"/><path d="M1.703.078q-.55 0-.906-.281-.344-.28-.344-.86-.002-.702.922-1.171.388-.2.781-.313.387-.123.797-.281.094-.03.094-.172v-.875q0-.374-.235-.578a.8.8 0 0 0-.546-.203.78.78 0 0 0-.594.25.82.82 0 0 0-.234.61c0 .28-.165.421-.485.421q-.33 0-.453-.234c0-.157.066-.32.203-.5.133-.176.313-.336.531-.485.22-.156.457-.281.72-.375q.404-.14.78-.14.64 0 .922.312.281.316.281 1v2.703q-.002.252.126.422a.45.45 0 0 0 .359.156q.153.001.406-.156.047 0 .047.094a.5.5 0 0 1-.047.234C4.504-.07 4.227.063 4 .063a.76.76 0 0 1-.516-.22 1.15 1.15 0 0 1-.343-.468A2 2 0 0 1 3-.5a2 2 0 0 1-.14.125 3.3 3.3 0 0 1-.547.328q-.282.124-.61.125m.438-.656q.328 0 .609-.188c.195-.125.297-.257.297-.406v-1.203c-.2.074-.39.14-.578.203l-.438.156a1.1 1.1 0 0 0-.406.297.7.7 0 0 0-.187.485c0 .23.07.398.218.5a.8.8 0 0 0 .485.156m0 0" id="Q"/><path d="M.39.031Q.346-.015.345-.156q0-.14.047-.14.092.001.25-.032.17-.047.312-.094.14-.06.14-.11.047-.17.063-.374.031-.218.032-.453v-2.203q-.002-.453-.172-.641a.53.53 0 0 0-.282-.188 1 1 0 0 0-.28-.046Q.342-4.45.343-4.47q0-.28.062-.297c.414-.062.75-.117 1-.171q.389-.077.485-.094l.187-.047q.045-.012.063.094a.5.5 0 0 1 0 .156l-.032.281a1 1 0 0 0-.015.188q-.002.046.031.046l.031-.03q.263-.281.719-.532.47-.248.89-.25.828.002 1.157.594.328.578.328 1.89v1.063q-.001.345.016.61.03.25.078.437.014.048.156.11.14.046.297.093.17.033.234.031.047 0 .047.14a.7.7 0 0 1 0 .188l-1.25-.047L3.593.03q-.047-.046-.047-.187 0-.14.047-.14.093.001.234-.032.152-.047.281-.094.14-.06.157-.11.044-.17.062-.374.014-.218.016-.453v-1.172q0-1.077-.282-1.469-.282-.405-.921-.406a1 1 0 0 0-.485.14 1.7 1.7 0 0 0-.422.297q-.157.176-.156.328v2.063q-.001.345.016.61.03.25.078.437.03.048.172.11.14.046.297.093.17.033.234.031.047 0 .047.14a.7.7 0 0 1 0 .188L1.656-.016Zm0 0" id="R"/><path d="M2.5 2.656a4 4 0 0 1-1.062-.14 1.9 1.9 0 0 1-.797-.438.95.95 0 0 1-.297-.719c0-.492.379-.906 1.14-1.25a1.2 1.2 0 0 1-.593-.28.77.77 0 0 1-.266-.595c0-.207.086-.421.266-.64q.264-.328.593-.532a1.3 1.3 0 0 1-.453-.312 2 2 0 0 1-.36-.531 1.5 1.5 0 0 1-.14-.64c0-.313.086-.587.266-.829.187-.25.43-.445.734-.594q.452-.217 1.016-.218.45.002.984.156.546.157.922.156h.688q.06.017.062.297-.002.157-.062.156h-.828q-.047.001-.047.031l.109.282q.124.298.125.562-.001.422-.266.797-.253.375-.687.61a2.06 2.06 0 0 1-.985.234h-.359a2 2 0 0 1-.297-.047c-.148.117-.265.23-.36.344a.57.57 0 0 0-.124.343q0 .299.328.391c.219.055.5.078.844.078q.715 0 1.219.078.514.081.812.203c.383.188.578.461.578.829q-.002.607-.344 1.109-.346.498-.968.797-.61.293-1.391.312m.047-4.828q.45.001.75-.344.311-.356.312-.859a1.3 1.3 0 0 0-.343-.906q-.331-.375-.766-.375a.95.95 0 0 0-.766.36q-.297.346-.296.827 0 .549.328.922.34.375.78.375m.281 4.39c.313 0 .586-.058.828-.171q.375-.174.578-.453A1.02 1.02 0 0 0 4.437 1c0-.336-.165-.555-.485-.656Q3.484.156 2.093.156 2 .155 1.767.266q-.224.106-.422.312a.72.72 0 0 0-.188.516q-.001.326.25.578c.164.176.375.312.625.406q.375.14.797.14m0 0" id="S"/><path d="M2.797.063q-.644 0-1.188-.329a2.6 2.6 0 0 1-.859-.906 2.6 2.6 0 0 1-.312-1.281q-.001-.81.296-1.406.312-.593.829-.922c.351-.219.75-.328 1.187-.328q.527.001.938.218.419.206.64.516.218.33.313.672.093.328.093.656 0 .223-.078.281-.064.047-.25.047H1.453c-.062 0-.094.024-.094.063q0 .486.188.937.2.458.594.75c.257.2.578.297.953.297.32 0 .594-.047.812-.14q.341-.153.5-.282l.078-.047q.062 0 .063.141a.5.5 0 0 1-.063.219q-.234.33-.703.594-.457.25-.984.25M1.453-3.203h2.281q.062.001.063-.125 0-.246-.14-.563a1.6 1.6 0 0 0-.407-.546 1 1 0 0 0-.672-.235.97.97 0 0 0-.656.25q-.268.252-.406.578-.141.328-.141.563c0 .054.023.078.078.078m0 0" id="T"/><path d="M4.078.063q-.063 0-.062-.188v-.14q0-.06-.047-.047c-.43.242-.84.359-1.235.359q-.656.002-1.171-.313a2.5 2.5 0 0 1-.829-.859 2.33 2.33 0 0 1-.296-1.172q-.002-.562.218-1.078a3.1 3.1 0 0 1 .578-.906q.376-.406.844-.64c.313-.157.633-.235.969-.235q.515.002.89.203.078 0 .079-.203v-1.266q-.001-.405-.079-.75-.047-.187-.593-.187h-.11q-.063.001-.062-.125 0-.188.062-.188.657-.06 1.032-.172.386-.122.562-.25l.047-.031h.016q.046.002.093.063.046.064.063.124-.127.394-.125 1.016v5.266q0 .563.062.89.029.128.204.157.17.035.359.046l.11.016q.03.018.03.14c0 .118-.023.173-.062.173a6 6 0 0 0-.812.125q-.41.092-.625.156Zm-.906-.594q.386.002.61-.172a.59.59 0 0 0 .234-.485v-2.796c0-.157-.09-.305-.266-.453q-.269-.219-.844-.22-.454 0-.781.282a1.75 1.75 0 0 0-.5.75 2.7 2.7 0 0 0-.172.984c0 .375.067.727.203 1.047q.2.487.594.782.388.28.922.28m0 0" id="U"/><path d="M2.797.063q-.644 0-1.188-.329a2.6 2.6 0 0 1-.859-.906 2.6 2.6 0 0 1-.312-1.281q-.001-.715.25-1.313.264-.607.78-.968.516-.375 1.235-.375 1.277 0 1.781.609-.002.783-.437.781c-.137 0-.242-.023-.313-.078a3 3 0 0 1-.265-.328q-.362-.546-.86-.547-.487 0-.875.469c-.261.305-.39.75-.39 1.344 0 .625.148 1.148.453 1.562q.466.626 1.297.625c.32 0 .594-.047.812-.14q.341-.153.5-.282l.078-.047q.062 0 .063.141a.5.5 0 0 1-.063.219q-.234.33-.703.594-.457.25-.984.25m0 0" id="V"/><path d="M3 .078Q2.296.08 1.703-.266a2.63 2.63 0 0 1-.922-.953A2.55 2.55 0 0 1 .438-2.53q0-.716.328-1.297A2.46 2.46 0 0 1 2.969-5.11q.702 0 1.281.359.575.345.922.938.359.579.36 1.28c0 .481-.118.919-.344 1.313q-.348.597-.922.953Q3.704.08 3 .078m.094-.453c.281 0 .523-.086.734-.266q.327-.262.5-.718.188-.469.188-1 0-.64-.235-1.157a2.26 2.26 0 0 0-.625-.828 1.26 1.26 0 0 0-.812-.312c-.274 0-.516.09-.735.265q-.314.27-.5.704a2.6 2.6 0 0 0-.171.984c0 .418.07.808.218 1.172q.235.533.61.843.387.315.828.313m0 0" id="W"/><path d="M.422.031Q.375-.015.375-.156q0-.14.047-.14.092.001.25-.032.171-.047.312-.094.141-.06.141-.11.045-.17.063-.374.03-.218.03-.453v-2.203q0-.453-.171-.641a.46.46 0 0 0-.281-.188 1 1 0 0 0-.282-.046Q.374-4.45.375-4.47q0-.28.063-.297.623-.092.953-.156.326-.06.578-.125l.14-.031q.046-.012.063.094a.5.5 0 0 1 0 .156 8 8 0 0 1-.047.453 5 5 0 0 0-.016.39v2.407q-.001.345.016.61.03.25.078.437.03.048.172.11.14.046.297.093.17.033.234.031.047 0 .047.14a.7.7 0 0 1 0 .188L1.688-.016Zm1.156-6.39a.54.54 0 0 1-.406-.172A.54.54 0 0 1 1-6.938q-.002-.246.172-.421A.587.587 0 0 1 2-6.531a.57.57 0 0 1-.422.172m0 0" id="X"/><path d="M2.313.078q-.598 0-.985-.375-.391-.388-.39-1.11v-2.968H.25q-.047.001-.047-.25v-.078q.357-.169.75-.625.263-.311.39-.547.142-.234.141-.281.36.002.36.062v1.157l.922.015h.656q.094 0 .094.094a.9.9 0 0 1-.125.453H1.844v2.86q0 .468.234.75a.77.77 0 0 0 .625.28q.357.002.719-.218.045-.013.11.11.074.11.062.124-.174.188-.547.375a1.7 1.7 0 0 1-.735.172m0 0" id="Z"/><path d="M.25.031Q.203-.015.203-.156q0-.14.047-.14.094.001.25-.032.17-.047.313-.094.139-.06.156-.11.077-.326.078-.812v-5.078c0-.27-.024-.52-.063-.75q-.047-.187-.593-.187H.28q-.08.001-.078-.125Q.2-7.672.28-7.672q.591-.058 1-.187.423-.14.563-.235l.062-.031h.032q.046.002.093.063a.2.2 0 0 1 .047.124c-.086.262-.125.602-.125 1.016v2.563q-.002.046.031.046l.032-.015c.113-.125.257-.242.437-.36.188-.125.383-.226.594-.312a1.8 1.8 0 0 1 .61-.125q.78 0 1.109.563.341.563.343 1.734v1.265q-.001.33.016.594.03.251.078.438.03.048.172.11.14.046.297.093.17.033.234.031.047 0 .047.14a.7.7 0 0 1 0 .188L4.687-.016 3.47.031q-.047-.046-.047-.187 0-.14.047-.14.093.001.234-.032.152-.047.281-.094.141-.06.141-.11.045-.17.063-.374.03-.218.03-.453v-1.235q0-.732-.14-1.125-.128-.389-.39-.531Q3.42-4.405 3-4.406a1 1 0 0 0-.484.14 1.8 1.8 0 0 0-.407.297q-.157.174-.156.313v2.078q-.001.345.016.61.03.25.078.437.03.048.172.11.14.046.297.093.17.033.234.031.03 0 .047.14.013.142-.016.188l-1.25-.047Zm0 0" id="aa"/><path d="M2.875.11q-.282 0-.594-.047a7 7 0 0 1-.531-.079c-.281-.05-.492-.093-.625-.125a2 2 0 0 0-.36-.078 53 53 0 0 1-.218-1.187 6 6 0 0 1-.063-.672q0-.077.188-.078.199.002.281.11Q1.373-.36 2.906-.36q.574 0 .985-.344.421-.356.422-1 0-.218-.094-.516a1.05 1.05 0 0 0-.39-.531A4 4 0 0 0 3.436-3q-.158-.091-.312-.172-.141-.076-.375-.219l-.469-.28a9 9 0 0 1-.734-.5 2.6 2.6 0 0 1-.594-.688 1.66 1.66 0 0 1-.234-.875c0-.414.101-.774.312-1.078q.328-.468.844-.72A2.5 2.5 0 0 1 3-7.796q.263.001.484.031.235.035.391.063.342.08.484.125.153.048.422.11.14.61.14 1.671c0 .055-.042.078-.124.078q-.298.001-.297-.11a2.2 2.2 0 0 0-.266-.687 1.75 1.75 0 0 0-.546-.562 1.34 1.34 0 0 0-.797-.234q-.488 0-.75.187a.9.9 0 0 0-.375.453q-.111.269-.11.578 0 .284.14.578c.095.2.227.368.407.5q.357.268.719.5.373.237.781.485.375.234.75.515.374.282.625.657c.164.242.25.515.25.828q-.002.628-.344 1.11a2.4 2.4 0 0 1-.906.765A2.74 2.74 0 0 1 2.875.11m0 0" id="ab"/><path d="M2.047.125q-.363 0-.656-.078a8 8 0 0 0-.72-.14 2.4 2.4 0 0 1-.093-.344A7 7 0 0 1 .5-.907a6 6 0 0 1-.016-.405q.095-.062.141-.063.17.002.188.063.046.234.234.468c.125.156.273.29.453.39q.265.158.547.157.375.001.61-.203c.163-.133.25-.332.25-.594a.85.85 0 0 0-.313-.672 2.4 2.4 0 0 0-.422-.28c-.117-.063-.227-.118-.328-.173a5 5 0 0 1-.39-.219C.835-2.788.53-3.206.53-3.687q0-.419.235-.734.233-.327.625-.5.404-.187.843-.187.123.002.282.015.17.019.375.032.199.046.328.078.122.016.203.015.14.549.14 1.203 0 .064-.14.063-.176 0-.188-.094a1.07 1.07 0 0 0-.328-.61q-.268-.294-.625-.296-.844 0-.844.687c0 .118.008.22.032.313a.5.5 0 0 0 .203.25q.356.281.86.562.498.284.827.532c.32.25.485.543.485.875q-.002.454-.25.828a1.7 1.7 0 0 1-.64.578 2.05 2.05 0 0 1-.907.203m0 0" id="ac"/><path d="M.344.031Q.308-.002.297-.14c0-.101.016-.156.047-.156q.092.002.25-.031.152-.047.281-.094.14-.06.156-.11.06-.232.078-.484.031-.263.032-.562v-2.688q0-.093-.047-.093H.469c-.024 0-.031-.02-.031-.063 0-.07.054-.172.171-.297a.56.56 0 0 1 .407-.187h.078q.047 0 .047-.063v-.156q-.001-.621.203-1.156.201-.547.531-.969.34-.422.75-.656.422-.235.844-.235.855 0 1.125.47 0 .735-.422.734a.34.34 0 0 1-.25-.11 4 4 0 0 1-.203-.25 1.2 1.2 0 0 0-.266-.266.56.56 0 0 0-.344-.109c-.218 0-.414.102-.578.297q-.252.283-.375.766a4 4 0 0 0-.125 1.047v.593q0 .064.063.063H3.39q.06 0 .062.078 0 .187-.14.469H2.109q-.08 0-.078.078v2.703q-.001.626.11 1.047.028.048.156.11.123.046.281.093.154.033.219.031.03 0 .047.14.013.142-.016.188l-1.25-.047Zm0 0" id="ad"/><path d="M4.219.063q-.768 0-1.438-.297a3.7 3.7 0 0 1-1.187-.828 4 4 0 0 1-.797-1.22 4 4 0 0 1-.281-1.484q0-.824.28-1.562.295-.731.829-1.281a3.8 3.8 0 0 1 1.219-.875 3.5 3.5 0 0 1 1.515-.328q.686 0 1.391.078.715.066 1.453.218l-.031 1.688q-.002.174-.25.172-.111 0-.14-.063a9 9 0 0 1-.095-.297 2 2 0 0 0-.218-.421 1.9 1.9 0 0 0-.797-.641c-.344-.156-.774-.234-1.281-.234q-.58 0-1.078.28-.504.268-.891.735-.377.47-.594 1.063a3.7 3.7 0 0 0-.203 1.218q0 .972.328 1.75.329.798 1.031 1.313.716.516 1.688.516 1.154 0 1.781-.672.187-.2.297-.47a3 3 0 0 0 .156-.468q.06-.201.125-.203c.051 0 .11.008.172.016a.4.4 0 0 1 .156.062l.063.031q0 .065-.047.329a10 10 0 0 1-.125.562q-.066.313-.125.547-.063.235-.11.265c-.574.336-1.507.5-2.796.5m0 0" id="ae"/><path d="M.25 2.64q-.047-.046-.047-.187 0-.14.047-.14a1 1 0 0 0 .25-.047q.17-.036.313-.094.14-.047.14-.094a2 2 0 0 0 .063-.39q.03-.205.03-.438v-4.828q0-.452-.171-.64a.53.53 0 0 0-.281-.188 1 1 0 0 0-.281-.047q-.111.002-.11-.031 0-.281.063-.297 1.248-.187 1.593-.282l.079-.03q.058 0 .046.124a1.3 1.3 0 0 1-.015.203l-.016.079q.123-.094.328-.188a3.4 3.4 0 0 1 .453-.156q.234-.077.407-.078.794 0 1.328.359.545.362.797.906.264.549.265 1.11-.001.562-.218 1.078a3.2 3.2 0 0 1-.563.906 2.9 2.9 0 0 1-.828.625 2.2 2.2 0 0 1-.953.219c-.242 0-.422-.024-.547-.063a2.6 2.6 0 0 1-.438-.156q-.045.047-.046.14v1.016q-.002.341.015.594.03.265.078.453.03.047.172.094.14.058.297.094.17.046.234.046.047 0 .047.141a.7.7 0 0 1 0 .188l-1.265-.047ZM3.016-.39q.468 0 .797-.282c.226-.195.406-.445.53-.75q.189-.468.188-.984c0-.438-.086-.813-.25-1.125a1.74 1.74 0 0 0-.64-.735 1.5 1.5 0 0 0-.86-.265.9.9 0 0 0-.61.203q-.233.188-.233.547v2.64q-.001.316.343.532c.227.148.473.218.735.218m0 0" id="af"/><path d="M1.61-1.047Q.514-2.185.515-3.844q0-.809.28-1.531c.196-.477.47-.898.813-1.266A3.9 3.9 0 0 1 2.797-7.5q.668-.311 1.453-.312a3.4 3.4 0 0 1 1.438.312q.686.314 1.203.86.514.55.812 1.265c.195.48.297.992.297 1.531q0 1.66-1.11 2.797-.752.798-1.702 1.063a3.46 3.46 0 0 1-1.891 0Q2.359-.25 1.609-1.047m2.827.656q.75.001 1.313-.484.562-.481.813-1.203.264-.716.265-1.531-.002-.938-.297-1.782a3.4 3.4 0 0 0-.953-1.375 2.26 2.26 0 0 0-1.5-.546c-.5 0-.93.152-1.281.453q-.535.455-.828 1.187-.298.722-.297 1.578c0 .617.101 1.203.312 1.766.196.555.508 1.015.938 1.39.426.368.93.547 1.515.547m0 0" id="ag"/><path d="M.063.031C.063 0 .055-.023.047-.047v-.078q0-.17.047-.172c.531-.094.879-.258 1.047-.5l1.187-1.578q.047-.074.047-.11a.2.2 0 0 0-.031-.093L1.14-4.328a.6.6 0 0 0-.25-.203 1.6 1.6 0 0 0-.375-.14 1.1 1.1 0 0 0-.328-.063.5.5 0 0 1-.032-.172q0-.107.047-.172l1.172.062 1.219-.062q.013.035.015.14 0 .205-.03.204-.47 0-.47.187 0 .047.063.14l.75 1.188q.168-.265.297-.453c.094-.125.164-.226.219-.312q.091-.14.171-.297.094-.17.094-.25 0-.105-.14-.14a.8.8 0 0 0-.282-.048q-.142-.013-.219-.015c-.023-.02-.03-.082-.03-.188 0-.07.007-.125.03-.156l1.235.062 1.062-.062q.014.063.016.11c.008.023.016.038.016.046q0 .188-.047.188c-.524.062-.86.195-1.016.39L3.25-2.937a.25.25 0 0 0-.062.156.2.2 0 0 0 .046.125L4.47-.812q.31.456.984.515c.02 0 .031.055.031.156q0 .127-.046.172L4.344-.016 3.047.031a1 1 0 0 1-.031-.093V-.11c0-.125.007-.188.03-.188.333-.031.5-.101.5-.219q0-.029-.03-.062L2.64-1.984 1.828-.781a.37.37 0 0 0-.078.219q-.002.11.172.187c.113.055.25.078.406.078h.063q.03.001.03.172 0 .11-.046.156L1.203-.016Zm0 0" id="ah"/><path d="M4.297.094c-.063 0-.094-.067-.094-.188v-.593Q4.202-.75 4.172-.75C3.66-.195 3.148.078 2.64.078c-.368 0-.657-.101-.875-.312a1.9 1.9 0 0 1-.453-.828 4 4 0 0 1-.125-1.032v-1.469q-.002-.451-.172-.64a.53.53 0 0 0-.282-.188 1 1 0 0 0-.28-.046Q.342-4.45.343-4.47q0-.28.062-.297c.414-.062.75-.117 1-.171a6 6 0 0 1 .438-.079l.234-.062q.045-.012.063.094a.5.5 0 0 1 0 .156 8 8 0 0 0-.063.86v1.577c0 .606.086 1.055.266 1.344q.265.422.875.422c.156 0 .304-.04.453-.125a1.4 1.4 0 0 0 .375-.312c.101-.125.156-.227.156-.313v-2.187q0-.453-.172-.641a.54.54 0 0 0-.265-.188 1 1 0 0 0-.282-.046q-.127-.013-.125-.032 0-.28.063-.297l.937-.14q.311-.061.5-.11l.25-.062q.047-.012.047.094a.5.5 0 0 1 0 .156 8 8 0 0 0-.062.844v2.328c0 .355.023.652.078.89q.03.128.187.157.154.035.36.046l.14.016q.047.019.047.125a.4.4 0 0 1-.031.11q-.034.08-.062.078c-.243.023-.5.062-.782.125a4 4 0 0 0-.625.172Zm0 0" id="ai"/><path d="M1.484.203c-.125-.137-.187-.398-.187-.797 0-.695.047-1.047.14-1.047q.404 0 1.141-.187.748-.2 1.39-.5.657-.294.75-.547a8.2 8.2 0 0 0 .266-1.687q.078-.997.079-2.297v-19.063c0-2.125-.133-3.414-.391-3.875q-.16-.293-.781-.562a11 11 0 0 0-1.266-.485q-.645-.201-1.031-.203-.204 0-.203-.844 0-.89.093-.984l2.391.14q1.09.111 1.781.157.702.048 1.375.031.67-.03 1.657-.031.998 0 6.953-.297c.101.293.156.59.156.89q-.002.938-.203.938-.299.002-1.047.203-.738.204-1.406.485-.675.27-.782.515c-.093.399-.18.95-.25 1.657q-.093 1.064-.093 1.812V-7.25q0 1.395.093 2.484.106 1.095.313 1.891c.062.125.3.29.719.484q.622.298 1.343.532c.477.148.817.218 1.016.218q.188 0 .188.938 0 .503-.094.906-.204-.002-.953-.062Q13.903.094 12.609 0a89 89 0 0 0-2.28-.14 29 29 0 0 0-1.642-.063q-.89.002-2.437.11c-1.023.062-1.992.116-2.906.171a58 58 0 0 0-1.86.125m0 0" id="aj"/><path d="M17.14.344q-3.281 0-6.171-1.281a16.4 16.4 0 0 1-5.063-3.547 16.9 16.9 0 0 1-3.437-5.22Q1.234-12.67 1.234-16q-.001-3.514 1.235-6.625a17.5 17.5 0 0 1 3.453-5.469 16 16 0 0 1 5.219-3.687c2.007-.895 4.172-1.344 6.484-1.344q2.731 0 5.563.375 2.842.361 5.812 1.063.293.093.656 3.328.186 1.846.313 2.89.122 1.032-.125 1.453-.237.423-1.188.422l-.797-.14a9 9 0 0 0-.797-1.891q-.551-.997-1.687-2.14-1.096-1.139-3.078-1.86-1.985-.717-4.422-.719c-5.93 0-8.89 4.438-8.89 13.313q0 4.126 1.218 7.484 1.218 3.346 3.578 5.281c1.57 1.293 3.469 1.938 5.688 1.938q3.668 0 6.36-2.688a5.5 5.5 0 0 0 1.218-1.812q.42-1.014.64-1.813.218-.795.422-.796 2.029 0 2.235.5 0 .344-.219 1.468a55 55 0 0 1-.547 2.438 26 26 0 0 1-.672 2.281q-.347.97-.593 1.063Q22.638.344 17.14.342m0 0" id="ak"/><path d="M1.547.203Q1.343-.342 1.344-.5q-.001-1.138.203-1.14c.289 0 .734-.07 1.328-.22a14 14 0 0 0 1.797-.593q.89-.374 1.234-.875L15.5-16.484 8.844-26.672q-2.143-3.28-2.688-3.625-1.049-.75-2.625-.75-.204 0-.203-.844 0-.796.203-.984l2.922.14q2.637.158 4.078.157 1.185 0 7.156-.297.094.094.094.563 0 .47-.047.874c-.03.262-.086.391-.156.391q-.737 0-1.656.281-.924.269-.969.766 0 .456.39 1.094l5.516 8.343 1.641-2.03q.544-.657.984-1.173.452-.513.797-1.015Q27.47-28.75 27.47-29.5q0-.593-1.172-1.062a6.5 6.5 0 0 0-2.5-.485q-.111 0-.188-.39a3.4 3.4 0 0 1-.015-.875q.047-.469.14-.563 5.515.299 6.172.297.64 0 6.594-.297.154.188.156 1.031-.002.798-.203.797-.689 0-2.14.453c-.961.305-1.72.797-2.282 1.485L22.75-17.687q8.592 12.924 9.438 13.906a5.75 5.75 0 0 0 2.25 1.625q1.324.515 1.968.515c.102 0 .157.368.157 1.094 0 .305-.055.55-.157.75q-5.953-.298-7.25-.297c-1.062 0-2.57.051-4.515.14l-3.328.157c-.075-.105-.122-.3-.141-.594q-.018-.45.062-.843.078-.406.172-.407c.301 0 .664-.054 1.094-.171a4.3 4.3 0 0 0 1.156-.485c.352-.219.532-.46.532-.734q-.002-.341-.157-.547l-6.453-9.781q-6.954 9.281-6.953 10.078 0 .75 1.188 1.203 1.2.438 2.484.437c.164 0 .25.352.25 1.047 0 .336-.031.598-.094.797Q9.531-.095 7.891-.094Zm0 0" id="al"/><path d="M31.188.25c-.368 0-.875-.379-1.532-1.14L9.438-26.032V-7q-.002 2.625.39 3.516c.195.367.594.687 1.188.968a8.6 8.6 0 0 0 1.843.625q.95.205 1.438.204c.07 0 .125.14.156.421q.047.424.047.875 0 .438-.094.594Q12.014.201 10.344 0q-1.658-.201-2.64-.203c-.806 0-1.438.023-1.907.062q-.69.047-1.563.141-.86.093-2.687.203-.158-.157-.156-.906-.001-.938.156-.938 1.138 0 2.406-.468c.844-.313 1.445-.786 1.813-1.422q.499-.796.5-3.625v-19.516q0-2.577-.75-3.531-.16-.246-.922-.422a24 24 0 0 0-1.64-.297q-.862-.124-1.36-.125-.111 0-.188-.39a4.5 4.5 0 0 1-.047-.875q.031-.469.125-.563l3.188.188q1.137.11 2.062.156.92.047 1.563.047.844 0 2.062-.094a91 91 0 0 0 2.797-.297q.996 1.985 2.766 4.375 1.765 2.378 3.969 5.031 2.215 2.66 4.578 5.485a140 140 0 0 1 4.484 5.672 5 5 0 0 0 .078-.704q.031-.498.032-1.343v-11.672c0-1.914-.22-3.11-.657-3.578q-.3-.387-1.062-.703a10.5 10.5 0 0 0-1.594-.532q-.815-.201-1.219-.203-.094 0-.172-.39a4.4 4.4 0 0 1-.078-.875q-.001-.469.11-.563c1.52.125 2.828.227 3.922.297a48 48 0 0 0 2.625.094q.841 0 2.14-.094l2.453-.203q1.171-.094 1.563-.094.201.345.203.89-.002.938-.25.938-2.671 0-4.125 1.64-.69.846-.688 3.626v18.875c0 .593.016 1.476.047 2.64q.046 1.735.157 4.313-.206.201-1.25.203m0 0" id="am"/><path d="M1.484.203c-.125-.137-.187-.398-.187-.797 0-.695.047-1.047.14-1.047q.404 0 1.141-.187.748-.2 1.39-.5.657-.294.75-.547a8.2 8.2 0 0 0 .266-1.687q.078-.997.079-2.297v-19.063c0-2.125-.133-3.414-.391-3.875q-.16-.293-.781-.562a11 11 0 0 0-1.266-.485q-.645-.201-1.031-.203-.204 0-.203-.844 0-.89.093-.984l7.204.297q.499.047 2.234-.047 1.747-.107 4.719-.25c.101.293.156.59.156.89q-.002.938-.203.938-.299.002-1.047.203-.738.204-1.406.485-.675.27-.782.515-.344 1.236-.343 4.219v7.844q-.002.39.297.39h.406q.294 0 2.187-1.875a259 259 0 0 0 4.39-4.64 264 264 0 0 0 4.642-5.203q.405-.545.406-1.141-.002-.34-.532-.516a7 7 0 0 0-1.218-.265 8.4 8.4 0 0 0-1.235-.11c-.136 0-.242-.226-.312-.687q-.095-.703.015-1.047 5.514.299 6.657.297.592 0 6.547-.297.106.188.078.938c-.024.5-.078.765-.172.796l-.297.047a8 8 0 0 0-1.078.078q-.563.08-1.063.172-.643.158-1.718.625-1.065.47-1.61 1.11l-8.547 9.437q-.597.657-.047 1.438L31.595-2.875q.544.645 1.703.938 1.17.297 1.766.296c.132 0 .203.313.203.938q-.002.55-.203.906L31.937 0c-1.03-.062-1.914-.11-2.64-.14a34 34 0 0 0-1.735-.063q-1.346.002-3.109.11-1.752.093-3.937.296-.204-.204-.203-1.047-.001-.797.203-.797.545.001 1.437-.296.89-.295.89-.688 0-1.64-8.843-11.578-.142-.155-.687-.156c-.868 0-1.297.28-1.297.843v6.266q0 1.395.093 2.484.106 1.095.313 1.891c.062.125.3.29.719.484q.622.298 1.343.532c.477.148.817.218 1.016.218q.188 0 .188.938 0 .503-.094.906-.204-.002-.953-.062Q13.903.094 12.609 0a89 89 0 0 0-2.28-.14 29 29 0 0 0-1.642-.063q-.89.002-2.437.11c-1.023.062-1.992.116-2.906.171a58 58 0 0 0-1.86.125m0 0" id="an"/><path d="M.75.203C.613.066.547-.18.547-.547c0-.695.031-1.047.094-1.047q.404.001 1.187-.25.795-.246 1.563-.61.78-.373.984-.718.388-.608.828-1.469.451-.872.656-1.421l.25-.594 10.97-25.235q.543-1.278 1.843-1.28.749 0 1.187.64L30.297-7.344q.452 1.142.875 2.157a92 92 0 0 1 .765 1.906q.2.502.891.875.703.377 1.516.578.825.187 1.265.187.201 0 .203.844-.002.796-.109 1L32.687 0q-1.454-.091-2.5-.172-1.032-.076-1.671-.031l-7.5.406Q20.812 0 20.813-.844q-.001-.797.203-.797 1.09 0 2.234-.468 1.139-.47 1.14-1.266 0-.047-.28-.89c-.18-.563-.5-1.376-.97-2.438l-1.484-3.625q-.204-.201-.343-.203-.503-.047-1.704-.047h-5.984q-1.266 0-2.11.047c-.124 0-.242.086-.343.25L9.532-6.5q-.845 1.985-.97 2.875-.127.892.876 1.39.889.456 1.562.532.668.063 1.172.062.14.047.14.797 0 .644-.093 1.047a215 215 0 0 1-3.25-.25Q7.95-.153 7.453-.172a7 7 0 0 0-1.078.031q-.563.049-1.812.125Q3.327.044.75.204m15.797-13.765q.983.001 1.844-.016.874-.03 1.672-.078l.156-.25-3.578-8.89-3.875 8.89q0 .203.093.203 1.498.14 3.688.14m0 0" id="ao"/><path d="M3.516.063a2.9 2.9 0 0 1-1.203-.25 3.3 3.3 0 0 1-.985-.704 3.3 3.3 0 0 1-.672-1.015 3.2 3.2 0 0 1-.234-1.235q-.001-.686.25-1.296.247-.61.687-1.079.436-.467 1.016-.718.575-.265 1.25-.266.574.002 1.172.063c.394.03.797.09 1.203.171l-.016 1.407q-.001.157-.218.156-.095 0-.125-.063a4 4 0 0 0-.079-.25 1.4 1.4 0 0 0-.171-.343 1.54 1.54 0 0 0-.672-.532c-.282-.132-.637-.203-1.063-.203q-.485 0-.906.235a2.6 2.6 0 0 0-.734.609q-.315.393-.485.89a3 3 0 0 0-.172 1.016q-.002.815.266 1.453.28.659.86 1.094.591.439 1.406.438.967 0 1.484-.563.155-.169.25-.39.095-.235.14-.391.048-.17.094-.172c.04 0 .086.008.141.016q.076.017.14.046l.048.032q0 .064-.047.281a10 10 0 0 1-.094.469q-.066.253-.125.453-.048.19-.078.203-.722.439-2.328.438m0 0" id="ap"/><path d="M2.5.063q-.598 0-1.078-.282a2.2 2.2 0 0 1-.781-.797 2.2 2.2 0 0 1-.282-1.093q0-.592.282-1.078a2.07 2.07 0 0 1 1.844-1.078q.575.001 1.062.296c.32.2.578.461.765.781q.295.487.297 1.079-.002.596-.296 1.093a2.2 2.2 0 0 1-.75.797A2.03 2.03 0 0 1 2.5.063m.078-.375a.94.94 0 0 0 .625-.22q.265-.233.406-.609c.102-.25.157-.523.157-.828 0-.351-.07-.672-.203-.953a1.7 1.7 0 0 0-.516-.687q-.316-.265-.672-.266a1 1 0 0 0-.625.219c-.18.148-.312.344-.406.594a2.2 2.2 0 0 0-.14.812q0 .534.187.969c.125.293.289.527.5.703.218.18.445.265.687.265m0 0" id="aq"/><path d="M.297.031C.273 0 .266-.055.266-.14c0-.07.007-.109.03-.109a1 1 0 0 0 .22-.031q.139-.03.25-.078Q.89-.407.89-.453.935-.575.953-.75C.961-.875.97-1 .97-1.125v-1.844q0-.374-.14-.531a.4.4 0 0 0-.235-.156.7.7 0 0 0-.235-.047q-.093.001-.093-.016 0-.233.062-.25.515-.077.813-.125.293-.06.453-.11l.125-.03q.03 0 .047.078a.3.3 0 0 1 0 .125l-.032.234a1 1 0 0 0-.015.156q-.002.047.031.047l.031-.031q.218-.217.594-.422.387-.217.75-.219a.95.95 0 0 1 .64.22q.265.204.36.468.731-.687 1.516-.688 1.218 0 1.218 1.86v1.094q-.001.281.016.5.03.205.063.359.029.046.14.094.122.046.25.078a1 1 0 0 0 .203.031q.031.001.032.125a.5.5 0 0 1 0 .156L6.516-.016 5.453.031q-.047-.045-.047-.172c0-.07.016-.109.047-.109q.074.002.203-.031.14-.03.25-.078.124-.048.14-.094.03-.123.048-.281.013-.17.015-.344v-1.094q0-1.5-.984-1.5a.9.9 0 0 0-.437.11 1.1 1.1 0 0 0-.329.218c-.086.086-.125.156-.125.219.02.125.036.258.047.39q.014.19.016.407v1.094q-.001.25.016.437.012.19.062.344.012.046.125.094.122.046.25.078a1 1 0 0 0 .203.031q.03.001.031.125a.5.5 0 0 1 0 .156L3.938-.016 2.875.031q-.033-.045-.031-.172c0-.07.008-.109.031-.109a1 1 0 0 0 .219-.031q.14-.03.25-.078.124-.048.125-.094.045-.122.062-.297.014-.187.016-.375v-1q0-1.547-.938-1.547a.9.9 0 0 0-.406.11 1.1 1.1 0 0 0-.344.25q-.14.14-.14.28v1.72q0 .281.015.5c.008.136.032.257.063.359q.012.046.125.094.124.046.266.078a1 1 0 0 0 .187.031q.03.001.031.125a.5.5 0 0 1 0 .156L1.36-.016Zm0 0" id="ar"/><path d="M.203 2.203Q.17 2.17.172 2.047c0-.086.008-.125.031-.125Q.28 1.92.422 1.89a2 2 0 0 0 .25-.079q.124-.046.125-.093a1.3 1.3 0 0 0 .062-.313c.008-.117.016-.234.016-.36v-4.03q0-.374-.14-.532a.45.45 0 0 0-.235-.14.7.7 0 0 0-.234-.047q-.094-.013-.094-.031 0-.234.047-.25 1.03-.153 1.328-.235l.078-.015q.046.002.031.109a1 1 0 0 0-.015.156l-.016.063c.063-.051.148-.102.266-.156q.187-.078.39-.125.201-.062.344-.063c.438 0 .8.102 1.094.297q.45.3.672.75.217.456.218.922 0 .469-.171.89c-.118.282-.278.54-.485.766q-.3.328-.687.516c-.25.12-.512.187-.782.187A1.7 1.7 0 0 1 2.016.03a3 3 0 0 1-.36-.14q-.033.047-.031.125v.843q-.001.28.016.485.012.217.062.375.012.046.125.093c.082.032.164.055.25.079q.14.03.203.03.03-.002.031.126a.5.5 0 0 1 0 .156l-1.046-.047ZM2.516-.328c.257 0 .484-.078.672-.234a1.5 1.5 0 0 0 .421-.625c.102-.258.157-.536.157-.829q-.002-.528-.203-.921a1.36 1.36 0 0 0-.532-.61 1.3 1.3 0 0 0-.719-.219.8.8 0 0 0-.5.157q-.187.158-.187.453v2.203c0 .18.094.328.281.453q.281.174.61.172m0 0" id="as"/><path d="M.36.031Q.311-.014.312-.14q0-.107.046-.109.076.002.204-.031.139-.03.25-.078.122-.048.14-.094Q.983-.575 1-.75c.008-.125.016-.25.016-.375v-1.844q0-.374-.141-.531a.4.4 0 0 0-.234-.156.7.7 0 0 0-.235-.047q-.093.001-.094-.016 0-.233.063-.25.514-.077.781-.125c.188-.039.352-.078.5-.11l.11-.03q.045 0 .046.093a.24.24 0 0 1 0 .11q-.018.204-.03.375a3 3 0 0 0-.016.328v2.015q0 .283.015.5.03.206.063.36.012.046.125.094.124.046.265.078a1 1 0 0 0 .204.031q.012.001.03.125.014.11-.015.156L1.422-.016Zm.953-5.328a.47.47 0 0 1-.344-.14.5.5 0 0 1-.14-.344q0-.201.14-.344a.47.47 0 0 1 .344-.14c.132 0 .25.046.343.14q.14.142.14.344a.5.5 0 0 1-.14.343.47.47 0 0 1-.343.141m0 0" id="at"/><path d="M.188.031Q.14-.014.14-.14q0-.107.047-.109.074.002.203-.031.139-.03.25-.078.123-.048.14-.094.03-.122.047-.297c.008-.125.016-.25.016-.375v-4.234q0-.328-.047-.625-.048-.155-.5-.157H.203q-.063 0-.062-.093 0-.155.062-.157a6 6 0 0 0 .875-.156 2.4 2.4 0 0 0 .39-.156l.095-.063h.015c.031 0 .055.024.078.063q.048.046.047.094-.11.328-.11.843v4.454q0 .281.016.5.03.205.063.359.03.046.14.094.123.046.25.078a1 1 0 0 0 .204.031q.03.001.03.125a.5.5 0 0 1 0 .156L1.25-.016Zm0 0" id="au"/><path d="M2.328.063q-.532 0-.984-.282a2.04 2.04 0 0 1-.719-.75A2.13 2.13 0 0 1 .359-2.03Q.358-2.716.61-3.22q.263-.497.704-.765.434-.265.984-.266.434.001.781.172.342.175.531.437.17.268.25.547.094.282.094.547-.002.204-.062.25a.5.5 0 0 1-.22.031H1.204c-.055 0-.078.016-.078.047q-.002.422.172.797c.113.25.273.461.484.625q.329.235.797.235.406.001.688-.125a2.2 2.2 0 0 0 .406-.22l.062-.046q.062.001.063.125a.4.4 0 0 1-.063.172q-.19.282-.578.5-.376.22-.828.219M1.203-2.672H3.11q.047 0 .047-.094-.002-.216-.11-.468a1.14 1.14 0 0 0-.343-.453.82.82 0 0 0-.562-.204.72.72 0 0 0-.532.22 1.5 1.5 0 0 0-.343.468q-.111.27-.11.469 0 .063.047.062m0 0" id="av"/><path d="M3.406.063c-.043 0-.062-.06-.062-.172v-.11q-.001-.047-.031-.047-.55.299-1.047.297-.535.002-.97-.265a1.96 1.96 0 0 1-.922-1.672q0-.47.173-.89.186-.437.484-.767c.207-.226.442-.406.703-.53.258-.134.532-.204.813-.204q.42.001.734.172.062.002.063-.172v-1.062c0-.22-.024-.426-.063-.625-.023-.102-.187-.157-.5-.157h-.078q-.063 0-.062-.093 0-.155.062-.157.544-.046.86-.14.311-.107.453-.203l.046-.032h.016c.02 0 .04.024.063.063q.044.046.062.094-.11.328-.11.843v4.391c0 .305.02.547.063.734q.03.112.172.141.14.018.297.031l.078.016q.03.002.031.11 0 .157-.046.156a4 4 0 0 0-.672.093c-.23.055-.407.094-.532.125Zm-.765-.5q.327 0 .515-.141A.51.51 0 0 0 3.344-1v-2.312q0-.2-.219-.376-.223-.187-.703-.187a1 1 0 0 0-.656.234 1.6 1.6 0 0 0-.422.625q-.14.376-.14.829c0 .312.054.605.171.874q.169.394.484.641c.22.156.477.235.782.235m0 0" id="aw"/><path d="M.297.031C.273.008.257-.039.25-.125q0-.124.047-.125Q.37-.248.5-.281A1.5 1.5 0 0 0 .734-.36Q.841-.407.86-.453.905-.64.922-.86q.03-.218.031-.453v-2.25q0-.062-.047-.063H.391c-.024 0-.032-.02-.032-.062q0-.077.141-.235a.48.48 0 0 1 .344-.156h.062q.047 0 .047-.063v-.125q-.001-.513.156-.968.172-.452.454-.797.28-.359.625-.547.339-.201.703-.203c.476 0 .789.133.937.39q0 .61-.36.61a.28.28 0 0 1-.202-.094 3 3 0 0 1-.172-.219.9.9 0 0 0-.219-.203.42.42 0 0 0-.281-.094.61.61 0 0 0-.485.25 1.56 1.56 0 0 0-.312.641 3.8 3.8 0 0 0-.094.875v.484q0 .064.047.063h1.078q.047.002.047.062c0 .106-.04.235-.11.391H1.75q-.047.002-.047.063v2.25c0 .343.024.632.078.859q.013.046.125.094.106.046.235.078a.7.7 0 0 0 .187.031q.03.001.031.125a.5.5 0 0 1 0 .156L1.313-.016Zm0 0" id="ax"/><path d="M.36.031C.335 0 .327-.055.327-.14Q.325-.247.358-.249a1 1 0 0 0 .22-.031q.139-.03.25-.078.123-.048.124-.094.045-.122.063-.297c.007-.125.015-.25.015-.375v-1.844q0-.374-.14-.531a.4.4 0 0 0-.235-.156.7.7 0 0 0-.234-.047q-.094.001-.094-.016 0-.233.047-.25 1.06-.17 1.234-.219l.172-.046q.031 0 .032.093c.007.055.015.09.015.11l-.062.484q.17-.248.468-.484.31-.235.625-.235.562 0 .766.282c0 .23-.04.398-.11.5q-.111.157-.265.156a.45.45 0 0 1-.328-.156.48.48 0 0 0-.39-.172.57.57 0 0 0-.376.14.95.95 0 0 0-.281.329.9.9 0 0 0-.094.406v1.469q-.001.281.016.5.014.205.062.359.013.046.125.094.124.046.266.078a1 1 0 0 0 .203.031q.03.001.031.125a.5.5 0 0 1 0 .156L1.422-.016Zm0 0" id="ay"/><path d="M4.89.031c-.343 0-.87-.008-1.577-.015q-.552-.031-.985-.032a12 12 0 0 0-.765 0L.375.016Q.342-.012.344-.141.342-.265.375-.266c.07 0 .156-.007.25-.03.094-.02.18-.048.266-.079q.139-.045.156-.11.077-.092.078-.906v-3.687q0-.64-.078-.89-.018-.06-.14-.095a2 2 0 0 0-.282-.078 1.2 1.2 0 0 0-.219-.03Q.36-6.17.36-6.298q0-.122.047-.156.076.002.282.016a15 15 0 0 0 .875.046q.31 0 .625-.015.31-.03.515-.047.014.082.016.14-.001.141-.031.141-.066.001-.22.031a2 2 0 0 0-.265.079q-.13.046-.14.093-.094.33-.094.907v3.671q0 .518.093.86.03.11.657.11h.469q.889.001 1.234-.173c.094-.05.195-.164.312-.343a2.2 2.2 0 0 0 .297-.641q.012-.062.14-.063c.126 0 .204.024.235.063a7 7 0 0 0-.093.234 6 6 0 0 0-.125.328q-.048.176-.094.282a8 8 0 0 1-.125.406q-.065.224-.078.36m0 0" id="az"/><path d="M1.922.063a1.12 1.12 0 0 1-.813-.313C.891-.469.781-.773.781-1.172V-3.64H.22q-.047.001-.047-.203v-.078q.295-.14.625-.515.216-.265.328-.454c.07-.132.11-.21.11-.234q.294 0 .296.047v.969h1.313q.076 0 .078.093 0 .188-.094.375H1.531v2.391q0 .375.203.61a.65.65 0 0 0 .516.234q.292.002.61-.172.03-.028.078.078.06.096.062.11-.159.158-.453.312c-.2.09-.406.14-.625.14m0 0" id="aB"/><path d="M3.578.078C3.523.078 3.5.023 3.5-.078v-.5c0-.031-.008-.047-.016-.047q-.644.689-1.28.688c-.306 0-.548-.086-.735-.266a1.4 1.4 0 0 1-.375-.672 3.4 3.4 0 0 1-.11-.875v-1.219q0-.374-.14-.531a.4.4 0 0 0-.235-.156.7.7 0 0 0-.234-.047q-.093.001-.094-.016 0-.233.063-.25a16 16 0 0 0 1.203-.219l.187-.046q.048 0 .047.093a.24.24 0 0 1 0 .11 6 6 0 0 0-.062.718v1.329c0 .5.07.87.218 1.109q.236.345.75.344.188 0 .376-.094.185-.106.312-.266.124-.153.125-.265V-2.97q0-.374-.14-.531a.4.4 0 0 0-.235-.156.7.7 0 0 0-.234-.047q-.094-.014-.094-.016 0-.233.062-.25.515-.077.766-.125.264-.046.422-.093l.203-.047q.047 0 .047.093a.24.24 0 0 1 0 .11 6 6 0 0 0-.063.703v1.953q-.002.441.079.734.028.112.156.141.122.018.297.031l.125.016q.03.002.03.11a.5.5 0 0 1-.03.093q-.036.064-.047.063-.3.017-.657.093a3 3 0 0 0-.515.157Zm0 0" id="aC"/><path d="M2.078 2.219c-.305 0-.594-.043-.875-.125a1.6 1.6 0 0 1-.672-.36.83.83 0 0 1-.25-.609q0-.597.953-1.031A.84.84 0 0 1 .75-.141a.64.64 0 0 1-.219-.5c0-.164.07-.336.219-.515q.217-.282.484-.469a1.2 1.2 0 0 1-.375-.25 1.8 1.8 0 0 1-.296-.437 1.35 1.35 0 0 1-.11-.532c0-.258.07-.488.219-.687a1.56 1.56 0 0 1 .594-.5 1.86 1.86 0 0 1 .843-.188q.388 0 .829.14c.3.087.562.126.78.126h.563q.062 0 .063.234c0 .094-.024.14-.063.14h-.687q-.047.002-.047.032l.094.235q.107.234.109.468 0 .346-.219.656a1.5 1.5 0 0 1-.578.516 1.74 1.74 0 0 1-.812.188h-.297a3 3 0 0 1-.25-.032c-.125.086-.227.18-.297.282a.45.45 0 0 0-.11.28q-.002.253.266.329.264.064.703.063a6 6 0 0 1 1.031.078q.422.063.657.156.499.234.5.703c0 .332-.102.633-.297.906a1.97 1.97 0 0 1-.797.672 2.9 2.9 0 0 1-1.172.266m.047-4.031q.374 0 .625-.297.248-.294.25-.703 0-.435-.281-.75c-.18-.208-.39-.313-.64-.313s-.462.102-.626.297a1 1 0 0 0-.25.687c0 .305.086.559.266.766q.28.314.656.313m.234 3.671q.388-.002.688-.156.31-.141.484-.375a.84.84 0 0 0 .172-.5Q3.702.42 3.297.281 2.904.141 1.75.141a.9.9 0 0 0-.281.078 1.1 1.1 0 0 0-.344.265.6.6 0 0 0-.156.438q-.001.263.203.484.2.217.516.328.326.124.671.125m0 0" id="aD"/><path d="M2.328.063q-.532 0-.984-.282a2.04 2.04 0 0 1-.719-.75A2.13 2.13 0 0 1 .359-2.03c0-.406.07-.774.22-1.11q.217-.498.64-.796.422-.312 1.031-.313c.719 0 1.21.168 1.484.5q0 .656-.359.656c-.117 0-.203-.023-.266-.078a2 2 0 0 1-.218-.265q-.299-.453-.72-.454-.39.002-.718.391-.328.375-.328 1.125 0 .783.375 1.297.387.516 1.078.516.406.001.688-.125a2.2 2.2 0 0 0 .406-.22l.062-.046q.062.001.063.125a.4.4 0 0 1-.063.172q-.19.282-.578.5-.376.22-.828.219m0 0" id="aE"/><path d="M1.406.063q-.44 0-.734-.235Q.373-.405.375-.89q-.001-.575.766-.968.327-.171.656-.266.328-.091.656-.219.094-.028.094-.156v-.734q-.002-.31-.203-.47a.67.67 0 0 0-.469-.171.67.67 0 0 0-.484.203q-.188.188-.188.516-.001.345-.406.344-.282 0-.375-.188-.002-.199.172-.422.169-.217.437-.406a2.6 2.6 0 0 1 .594-.297 1.9 1.9 0 0 1 .656-.125c.352 0 .61.09.766.266q.234.253.234.828v2.25q-.001.204.11.344c.07.093.172.14.297.14q.122 0 .343-.14.031 0 .032.078a.4.4 0 0 1-.047.203q-.394.345-.688.344a.6.6 0 0 1-.422-.188 1 1 0 0 1-.281-.39 1 1 0 0 0-.125.109c-.055.043-.094.074-.125.094a2.2 2.2 0 0 1-.437.265 1.3 1.3 0 0 1-.532.11m.375-.547a.9.9 0 0 0 .516-.157q.248-.151.25-.328v-1.015a5 5 0 0 1-.485.187q-.235.08-.359.125a.77.77 0 0 0-.344.25.57.57 0 0 0-.156.39q-.002.3.172.423a.7.7 0 0 0 .406.125m0 0" id="aF"/><path d="M3.484 0q-1.16 0-1.78-.672-.627-.684-.626-2.219v-2.203c0-.207-.008-.383-.016-.531a3 3 0 0 0-.046-.344q-.017-.058-.157-.093a3 3 0 0 0-.265-.079 1.2 1.2 0 0 0-.235-.03c-.023 0-.03-.04-.03-.126 0-.082.007-.133.03-.156l1.172.047q.077.001.36-.016.28-.013.765-.031a.4.4 0 0 1 .031.14q0 .141-.046.141-.064.001-.203.031a4 4 0 0 0-.282.079q-.13.046-.14.093-.08.33-.079.907v2.171q-.002 1.112.454 1.766c.312.43.754.64 1.328.64 1.113 0 1.672-.726 1.672-2.187v-2.437c0-.407-.024-.692-.063-.86q-.035-.06-.187-.11a2.6 2.6 0 0 0-.594-.109c-.024 0-.031-.039-.031-.125 0-.07.007-.117.03-.14.063 0 .161.008.298.016q.201.018.437.03.246.017.422.016c.164 0 .379-.007.64-.03q.388-.031.454-.032c.008.055.016.101.016.14q-.001.127-.032.125-.064 0-.25.047a3 3 0 0 0-.343.079q-.159.046-.188.093a4 4 0 0 0-.062.39q-.017.224-.016.516v2.375q0 1.003-.281 1.594-.283.598-.828.844-.551.251-1.329.25m0 0" id="aG"/><path d="M1.703.11q-.3-.001-.547-.079a5 5 0 0 0-.593-.11C.539-.148.516-.25.484-.374a9 9 0 0 1-.062-.39 4 4 0 0 1-.016-.329q.075-.06.11-.062.139.002.156.062.046.207.203.407.153.188.375.312a.87.87 0 0 0 .453.125q.31.002.516-.156.201-.171.203-.5a.7.7 0 0 0-.266-.563 1.7 1.7 0 0 0-.344-.234 5 5 0 0 0-.28-.14 3 3 0 0 1-.329-.188q-.75-.436-.75-1.047 0-.34.188-.61.198-.263.515-.421.328-.155.703-.157c.07 0 .157.008.25.016q.14.018.297.031.171.035.266.063.106.016.187.015c.07.305.11.637.11 1q-.001.047-.125.047-.14 0-.14-.062a.94.94 0 0 0-.282-.516q-.234-.248-.516-.25-.702.002-.703.578-.002.142.031.266.028.11.157.203.31.235.718.469c.282.156.508.304.688.437.27.211.406.453.406.735Q3.201-.858 3-.547q-.206.299-.547.485-.345.17-.75.171m0 0" id="aH"/></defs><path fill="none" stroke-width="1.2986870000000001" stroke-linecap="butt" stroke-linejoin="miter" stroke="rgb(65.097046%, 9.803772%, 18.03894%)" stroke-opacity="1" stroke-miterlimit="10" d="M37.402 925.781h604.824V37.777H37.402Zm0 0"/><path fill="none" stroke-width=".499495" stroke-linecap="butt" stroke-linejoin="miter" stroke="rgb(65.097046%, 9.803772%, 18.03894%)" stroke-opacity="1" stroke-miterlimit="10" d="M48.91 914.273h581.81V49.285H48.91Zm0 0"/><path fill="none" stroke-width=".99899" stroke-linecap="butt" stroke-linejoin="miter" stroke="rgb(65.097046%, 9.803772%, 18.03894%)" stroke-opacity="1" stroke-miterlimit="10" d="M39.398 923.785c1.301-10.09 10.09-1.3 19.98-2"/><path fill="none" stroke-width=".599394" stroke-linecap="butt" stroke-linejoin="miter" stroke="rgb(65.097046%, 9.803772%, 18.03894%)" stroke-opacity="1" stroke-miterlimit="10" d="M41.36 923.586c2.195-5.277 5.714-2.2 8.35-5.277"/><path fill-rule="evenodd" fill="rgb(65.097046%, 9.803772%, 18.03894%)" fill-opacity="1" d="m58.281 917.191 2.598 2.598-2.598 2.598-2.597-2.598Zm0 0"/><path fill-rule="evenodd" fill="rgb(65.097046%, 9.803772%, 18.03894%)" fill-opacity="1" d="M41.996 922.785a1.597 1.597 0 1 0-3.194-.001 1.597 1.597 0 0 0 3.194.001"/><path fill="none" stroke-width=".99899" stroke-linecap="butt" stroke-linejoin="miter" stroke="rgb(65.097046%, 9.803772%, 18.03894%)" stroke-opacity="1" stroke-miterlimit="10" d="M640.23 923.785c-1.296-10.09-10.09-1.3-19.98-2"/><path fill="none" stroke-width=".599394" stroke-linecap="butt" stroke-linejoin="miter" stroke="rgb(65.097046%, 9.803772%, 18.03894%)" stroke-opacity="1" stroke-miterlimit="10" d="M638.273 923.586c-2.199-5.277-5.714-2.2-8.351-5.277"/><path fill-rule="evenodd" fill="rgb(65.097046%, 9.803772%, 18.03894%)" fill-opacity="1" d="m621.348 917.191-2.594 2.598 2.594 2.598 2.597-2.598Zm0 0"/><path fill-rule="evenodd" fill="rgb(65.097046%, 9.803772%, 18.03894%)" fill-opacity="1" d="M637.633 922.785a1.597 1.597 0 1 1 3.194-.001 1.597 1.597 0 0 1-3.194.001"/><path fill="none" stroke-width=".99899" stroke-linecap="butt" stroke-linejoin="miter" stroke="rgb(65.097046%, 9.803772%, 18.03894%)" stroke-opacity="1" stroke-miterlimit="10" d="M39.398 39.773c1.301 10.09 10.09 1.301 19.98 2"/><path fill="none" stroke-width=".599394" stroke-linecap="butt" stroke-linejoin="miter" stroke="rgb(65.097046%, 9.803772%, 18.03894%)" stroke-opacity="1" stroke-miterlimit="10" d="M41.36 39.977c2.195 5.273 5.714 2.195 8.35 5.273"/><path fill-rule="evenodd" fill="rgb(65.097046%, 9.803772%, 18.03894%)" fill-opacity="1" d="m58.281 46.367 2.598-2.597-2.598-2.598-2.597 2.598Zm0 0"/><path fill-rule="evenodd" fill="rgb(65.097046%, 9.803772%, 18.03894%)" fill-opacity="1" d="M41.996 40.773a1.597 1.597 0 1 1-3.194.002 1.597 1.597 0 0 1 3.194-.002"/><path fill="none" stroke-width=".99899" stroke-linecap="butt" stroke-linejoin="miter" stroke="rgb(65.097046%, 9.803772%, 18.03894%)" stroke-opacity="1" stroke-miterlimit="10" d="M640.23 39.773c-1.296 10.09-10.09 1.301-19.98 2"/><path fill="none" stroke-width=".599394" stroke-linecap="butt" stroke-linejoin="miter" stroke="rgb(65.097046%, 9.803772%, 18.03894%)" stroke-opacity="1" stroke-miterlimit="10" d="M638.273 39.977c-2.199 5.273-5.714 2.195-8.351 5.273"/><path fill-rule="evenodd" fill="rgb(65.097046%, 9.803772%, 18.03894%)" fill-opacity="1" d="m621.348 46.367-2.594-2.597 2.594-2.598 2.597 2.598Zm0 0"/><path fill-rule="evenodd" fill="rgb(65.097046%, 9.803772%, 18.03894%)" fill-opacity="1" d="M637.633 40.773a1.597 1.597 0 1 0 3.194.002 1.597 1.597 0 0 0-3.194-.002"/><path fill="none" stroke-width=".8990910000000001" stroke-linecap="butt" stroke-linejoin="miter" stroke="rgb(65.097046%, 9.803772%, 18.03894%)" stroke-opacity="1" stroke-miterlimit="10" d="M78.879 105.168h521.87"/><path fill-rule="evenodd" fill="rgb(65.097046%, 9.803772%, 18.03894%)" fill-opacity="1" d="m83.875 101.57 3.598 3.598-3.598 3.598-3.598-3.598Zm0 0"/><path fill-rule="evenodd" fill="rgb(65.097046%, 9.803772%, 18.03894%)" fill-opacity="1" d="m595.754 101.57 3.598 3.598-3.598 3.598-3.594-3.598Zm0 0"/><g fill="rgb(65.097046%, 9.803772%, 18.03894%)" fill-opacity="1"><use xlink:href="#a" x="120.315656" y="166.058756"/><use xlink:href="#b" x="138.48096" y="166.058756"/><use xlink:href="#c" x="158.33987" y="166.058756"/><use xlink:href="#d" x="180.384082" y="166.058756"/><use xlink:href="#e" x="200.161042" y="166.058756"/><use xlink:href="#f" x="209.612462" y="166.058756"/><use xlink:href="#e" x="229.526007" y="166.058756"/><use xlink:href="#h" x="238.977427" y="166.058756"/><use xlink:href="#c" x="260.202151" y="166.058756"/><use xlink:href="#i" x="282.246363" y="166.058756"/><use xlink:href="#h" x="301.91406" y="166.058756"/><use xlink:href="#d" x="323.138784" y="166.058756"/><use xlink:href="#j" x="348.62484" y="166.058756"/><use xlink:href="#i" x="361.818587" y="166.058756"/><use xlink:href="#k" x="381.486284" y="166.058756"/><use xlink:href="#l" x="398.91405" y="166.058756"/><use xlink:href="#c" x="417.543728" y="166.058756"/><use xlink:href="#d" x="433.878844" y="166.058756"/><use xlink:href="#m" x="459.364901" y="166.058756"/><use xlink:href="#n" x="478.622855" y="166.058756"/><use xlink:href="#j" x="497.826175" y="166.058756"/><use xlink:href="#o" x="511.019922" y="166.058756"/><use xlink:href="#c" x="526.644816" y="166.058756"/><use xlink:href="#p" x="542.979931" y="166.058756"/></g><g fill="rgb(8.627319%, 8.627319%, 8.627319%)" fill-opacity="1"><use xlink:href="#q" x="212.931402" y="185.953524"/><use xlink:href="#r" x="221.454071" y="185.953524"/><use xlink:href="#s" x="226.316362" y="185.953524"/><use xlink:href="#t" x="232.558125" y="185.953524"/><use xlink:href="#u" x="238.595014" y="185.953524"/><use xlink:href="#v" x="242.228075" y="185.953524"/><use xlink:href="#w" x="248.906897" y="185.953524"/><use xlink:href="#x" x="254.889156" y="185.953524"/><use xlink:href="#y" x="261.854797" y="185.953524"/><use xlink:href="#z" x="266.047841" y="185.953524"/><use xlink:href="#A" x="271.674988" y="185.953524"/><use xlink:href="#C" x="279.651331" y="185.953524"/><use xlink:href="#r" x="288.583743" y="185.953524"/><use xlink:href="#x" x="293.446034" y="185.953524"/><use xlink:href="#D" x="297.297625" y="185.953524"/><use xlink:href="#r" x="303.307199" y="185.953524"/><use xlink:href="#A" x="308.16949" y="185.953524"/><use xlink:href="#x" x="313.031781" y="185.953524"/><use xlink:href="#E" x="316.883371" y="185.953524"/><use xlink:href="#F" x="322.851971" y="185.953524"/><use xlink:href="#s" x="333.860418" y="185.953524"/><use xlink:href="#G" x="340.102181" y="185.953524"/><use xlink:href="#u" x="344.172301" y="185.953524"/><use xlink:href="#v" x="347.805361" y="185.953524"/><use xlink:href="#x" x="354.484184" y="185.953524"/><use xlink:href="#H" x="361.449825" y="185.953524"/><use xlink:href="#G" x="373.100204" y="185.953524"/><use xlink:href="#I" x="377.170324" y="185.953524"/><use xlink:href="#r" x="383.521352" y="185.953524"/><use xlink:href="#J" x="391.497694" y="185.953524"/><use xlink:href="#u" x="400.621321" y="185.953524"/><use xlink:href="#K" x="404.254381" y="185.953524"/><use xlink:href="#u" x="409.854211" y="185.953524"/><use xlink:href="#v" x="413.487271" y="185.953524"/><use xlink:href="#r" x="420.166094" y="185.953524"/><use xlink:href="#L" x="428.142436" y="185.953524"/><use xlink:href="#u" x="434.916865" y="185.953524"/><use xlink:href="#G" x="438.549926" y="185.953524"/><use xlink:href="#M" x="442.620046" y="185.953524"/><use xlink:href="#A" x="449.06668" y="185.953524"/><use xlink:href="#w" x="453.928971" y="185.953524"/><use xlink:href="#N" x="459.911229" y="185.953524"/></g><path fill="none" stroke-width=".6992929999999999" stroke-linecap="butt" stroke-linejoin="miter" stroke="rgb(65.097046%, 9.803772%, 18.03894%)" stroke-opacity="1" stroke-miterlimit="10" d="M229.926 199.793h219.777"/><g fill="rgb(8.627319%, 8.627319%, 8.627319%)" fill-opacity="1"><use xlink:href="#O" x="181.876671" y="220.553086"/><use xlink:href="#P" x="189.884234" y="220.553086"/><use xlink:href="#P" x="194.33288" y="220.553086"/><use xlink:href="#Q" x="198.781526" y="220.553086"/><use xlink:href="#R" x="203.733571" y="220.553086"/><use xlink:href="#S" x="210.090451" y="220.553086"/><use xlink:href="#T" x="215.639551" y="220.553086"/><use xlink:href="#U" x="220.673545" y="220.553086"/><use xlink:href="#O" x="229.1728" y="220.553086"/><use xlink:href="#V" x="237.180363" y="220.553086"/><use xlink:href="#V" x="241.921683" y="220.553086"/><use xlink:href="#W" x="246.663002" y="220.553086"/><use xlink:href="#P" x="252.633553" y="220.553086"/><use xlink:href="#U" x="257.0822" y="220.553086"/><use xlink:href="#X" x="262.900561" y="220.553086"/><use xlink:href="#R" x="266.201924" y="220.553086"/><use xlink:href="#S" x="272.558804" y="220.553086"/><use xlink:href="#Z" x="280.788798" y="220.553086"/><use xlink:href="#W" x="284.464784" y="220.553086"/><use xlink:href="#Z" x="293.116229" y="220.553086"/><use xlink:href="#aa" x="296.792215" y="220.553086"/><use xlink:href="#T" x="302.996905" y="220.553086"/><use xlink:href="#ab" x="310.711793" y="220.553086"/><use xlink:href="#T" x="316.459912" y="220.553086"/><use xlink:href="#Q" x="321.493906" y="220.553086"/><use xlink:href="#ac" x="326.445951" y="220.553086"/><use xlink:href="#W" x="330.64875" y="220.553086"/><use xlink:href="#R" x="336.619301" y="220.553086"/><use xlink:href="#ac" x="342.976181" y="220.553086"/><use xlink:href="#W" x="349.859874" y="220.553086"/><use xlink:href="#ad" x="355.830426" y="220.553086"/><use xlink:href="#Z" x="362.035115" y="220.553086"/><use xlink:href="#aa" x="365.711101" y="220.553086"/><use xlink:href="#T" x="371.915791" y="220.553086"/><use xlink:href="#ae" x="379.630679" y="220.553086"/><use xlink:href="#W" x="387.310447" y="220.553086"/><use xlink:href="#af" x="393.280998" y="220.553086"/><use xlink:href="#Z" x="399.263255" y="220.553086"/><use xlink:href="#X" x="402.939241" y="220.553086"/><use xlink:href="#V" x="406.240604" y="220.553086"/><use xlink:href="#ag" x="413.662818" y="220.553086"/><use xlink:href="#P" x="422.185487" y="220.553086"/><use xlink:href="#Z" x="426.634133" y="220.553086"/><use xlink:href="#aa" x="430.310119" y="220.553086"/><use xlink:href="#W" x="436.514809" y="220.553086"/><use xlink:href="#U" x="442.48536" y="220.553086"/><use xlink:href="#W" x="448.303721" y="220.553086"/><use xlink:href="#ah" x="454.274272" y="220.553086"/><use xlink:href="#ae" x="462.422318" y="220.553086"/><use xlink:href="#aa" x="470.102085" y="220.553086"/><use xlink:href="#ai" x="476.306775" y="220.553086"/><use xlink:href="#P" x="482.359274" y="220.553086"/><use xlink:href="#V" x="486.80792" y="220.553086"/><use xlink:href="#aa" x="491.54924" y="220.553086"/></g><path fill-rule="evenodd" fill="rgb(65.097046%, 9.803772%, 18.03894%)" fill-opacity="1" d="M324.074 637.477h31.485V395.28h-31.485Zm0 0"/><path fill-rule="evenodd" fill="rgb(65.097046%, 9.803772%, 18.03894%)" fill-opacity="1" d="M218.719 532.121h242.195v-31.484H218.72Zm0 0"/><path fill-rule="evenodd" fill="rgb(65.097046%, 9.803772%, 18.03894%)" fill-opacity="1" d="M359.336 395.281c0-10.781-8.738-19.523-19.52-19.523-10.78 0-19.523 8.742-19.523 19.523s8.742 19.52 19.523 19.52c10.782 0 19.52-8.738 19.52-19.52"/><path fill-rule="evenodd" fill="rgb(65.097046%, 9.803772%, 18.03894%)" fill-opacity="1" d="M336.887 414.656c0-10.781-8.739-19.52-19.52-19.52s-19.523 8.739-19.523 19.52 8.742 19.52 19.523 19.52 19.52-8.738 19.52-19.52"/><path fill-rule="evenodd" fill="rgb(65.097046%, 9.803772%, 18.03894%)" fill-opacity="1" d="M381.785 414.656c0-10.781-8.738-19.52-19.52-19.52-10.78 0-19.523 8.739-19.523 19.52s8.742 19.52 19.524 19.52c10.78 0 19.52-8.738 19.52-19.52"/><path fill-rule="evenodd" fill="rgb(65.097046%, 9.803772%, 18.03894%)" fill-opacity="1" d="M359.336 637.477c0-10.782-8.738-19.52-19.52-19.52-10.78 0-19.523 8.738-19.523 19.52 0 10.78 8.742 19.523 19.523 19.523 10.782 0 19.52-8.742 19.52-19.523"/><path fill-rule="evenodd" fill="rgb(65.097046%, 9.803772%, 18.03894%)" fill-opacity="1" d="M381.785 618.102c0-10.782-8.738-19.52-19.52-19.52-10.78 0-19.523 8.738-19.523 19.52 0 10.78 8.742 19.52 19.524 19.52 10.78 0 19.52-8.74 19.52-19.52"/><path fill-rule="evenodd" fill="rgb(65.097046%, 9.803772%, 18.03894%)" fill-opacity="1" d="M336.887 618.102c0-10.782-8.739-19.52-19.52-19.52s-19.523 8.738-19.523 19.52c0 10.78 8.742 19.52 19.523 19.52s19.52-8.74 19.52-19.52"/><path fill-rule="evenodd" fill="rgb(65.097046%, 9.803772%, 18.03894%)" fill-opacity="1" d="M238.238 516.379c0-10.781-8.738-19.52-19.52-19.52-10.78 0-19.523 8.739-19.523 19.52s8.743 19.52 19.524 19.52 19.52-8.739 19.52-19.52"/><path fill-rule="evenodd" fill="rgb(65.097046%, 9.803772%, 18.03894%)" fill-opacity="1" d="M257.613 538.828c0-10.781-8.738-19.52-19.52-19.52-10.78 0-19.523 8.739-19.523 19.52s8.743 19.52 19.524 19.52 19.52-8.739 19.52-19.52"/><path fill-rule="evenodd" fill="rgb(65.097046%, 9.803772%, 18.03894%)" fill-opacity="1" d="M257.613 493.93c0-10.782-8.738-19.52-19.52-19.52-10.78 0-19.523 8.738-19.523 19.52 0 10.78 8.743 19.52 19.524 19.52s19.52-8.74 19.52-19.52"/><path fill-rule="evenodd" fill="rgb(65.097046%, 9.803772%, 18.03894%)" fill-opacity="1" d="M480.434 516.379c0-10.781-8.739-19.52-19.52-19.52s-19.52 8.739-19.52 19.52 8.739 19.52 19.52 19.52 19.52-8.739 19.52-19.52"/><path fill-rule="evenodd" fill="rgb(65.097046%, 9.803772%, 18.03894%)" fill-opacity="1" d="M461.059 493.93c0-10.782-8.739-19.52-19.52-19.52s-19.523 8.738-19.523 19.52c0 10.78 8.742 19.52 19.523 19.52s19.52-8.74 19.52-19.52"/><path fill-rule="evenodd" fill="rgb(65.097046%, 9.803772%, 18.03894%)" fill-opacity="1" d="M461.059 538.828c0-10.781-8.739-19.52-19.52-19.52s-19.523 8.739-19.523 19.52 8.742 19.52 19.523 19.52 19.52-8.739 19.52-19.52"/><g fill="rgb(65.097046%, 9.803772%, 18.03894%)" fill-opacity="1"><use xlink:href="#aj" x="200.334586" y="421.92243"/><use xlink:href="#ak" x="217.520151" y="421.92243"/></g><g fill="rgb(65.097046%, 9.803772%, 18.03894%)" fill-opacity="1"><use xlink:href="#al" x="419.941267" y="421.92243"/><use xlink:href="#ak" x="458.087263" y="421.92243"/></g><g fill="rgb(65.097046%, 9.803772%, 18.03894%)" fill-opacity="1"><use xlink:href="#am" x="196.882562" y="626.094252"/><use xlink:href="#aj" x="235.475583" y="626.094252"/></g><g fill="rgb(65.097046%, 9.803772%, 18.03894%)" fill-opacity="1"><use xlink:href="#an" x="419.096917" y="626.094252"/><use xlink:href="#ao" x="454.858789" y="626.094252"/></g><path fill="none" stroke-width=".8990910000000001" stroke-linecap="butt" stroke-linejoin="miter" stroke="rgb(65.097046%, 9.803772%, 18.03894%)" stroke-opacity="1" stroke-miterlimit="10" d="M78.879 840.41h521.87"/><path fill-rule="evenodd" fill="rgb(65.097046%, 9.803772%, 18.03894%)" fill-opacity="1" d="m83.875 836.813 3.598 3.597-3.598 3.594-3.598-3.594Zm0 0"/><path fill-rule="evenodd" fill="rgb(65.097046%, 9.803772%, 18.03894%)" fill-opacity="1" d="m595.754 836.813 3.598 3.597-3.598 3.594-3.594-3.594Zm0 0"/><g fill="rgb(8.627319%, 8.627319%, 8.627319%)" fill-opacity="1"><use xlink:href="#ap" x="285.090147" y="871.024456"/><use xlink:href="#aq" x="291.489953" y="871.024456"/><use xlink:href="#ar" x="296.465412" y="871.024456"/><use xlink:href="#as" x="304.270054" y="871.024456"/><use xlink:href="#at" x="309.255268" y="871.024456"/><use xlink:href="#au" x="312.006404" y="871.024456"/><use xlink:href="#av" x="314.45511" y="871.024456"/><use xlink:href="#aw" x="318.650106" y="871.024456"/><use xlink:href="#ax" x="325.732818" y="871.024456"/><use xlink:href="#aq" x="328.669314" y="871.024456"/><use xlink:href="#ay" x="333.644774" y="871.024456"/><use xlink:href="#az" x="339.586057" y="871.024456"/><use xlink:href="#at" x="345.127353" y="871.024456"/><use xlink:href="#aB" x="347.878489" y="871.024456"/><use xlink:href="#aC" x="350.94181" y="871.024456"/><use xlink:href="#ay" x="355.98556" y="871.024456"/><use xlink:href="#aD" x="359.692765" y="871.024456"/><use xlink:href="#at" x="364.317015" y="871.024456"/><use xlink:href="#aE" x="367.068151" y="871.024456"/><use xlink:href="#aF" x="371.019251" y="871.024456"/><use xlink:href="#au" x="375.145955" y="871.024456"/><use xlink:href="#aG" x="379.82874" y="871.024456"/><use xlink:href="#aH" x="386.843161" y="871.024456"/><use xlink:href="#av" x="390.345493" y="871.024456"/></g></svg>