<svg xmlns="http://www.w3.org/2000/svg" xmlns:xlink="http://www.w3.org/1999/xlink" width="680.315pt" height="963.7795pt" viewBox="0 0 680.315 963.7795"><rect id="evangelion-bg" x="0" y="0" width="100%" height="100%" fill="#ffffff"/><defs><path d="M.219.031Q.202.016.203-.047c0-.101.02-.156.063-.156q.059.001.172-.016a1.5 1.5 0 0 0 .234-.078Q.778-.343.797-.39q.091-.17.219-.796l.687-3.47q.013-.106.031-.218c.008-.07.016-.14.016-.203 0-.07-.059-.125-.172-.156a.8.8 0 0 0-.281-.063q-.017 0-.016-.062 0-.122.063-.157.373.017.875.016h.75c.144-.008.258-.016.344-.016q.327.001.656.172c.219.106.398.258.547.453q.217.282.218.657c0 .242-.054.468-.156.687q-.157.317-.437.563-.27.233-.61.375-.33.14-.687.14c-.262 0-.461-.023-.594-.078a.1.1 0 0 0-.016-.047v-.047q0-.076.063-.125c.031 0 .062.008.094.016H2.5q.374 0 .719-.187c.238-.126.43-.305.578-.547q.234-.358.234-.844-.002-.89-.906-.89-.391 0-.531.046-.13.034-.14.125l-.782 3.969c-.055.25-.078.476-.078.672 0 .043.039.086.125.125q.14.048.281.062l.14.016c.008 0 .016.023.016.062a.27.27 0 0 1-.047.172L1.25-.016Zm0 0" id="a"/><path d="M-.187.031C-.195.02-.203-.004-.203-.047c0-.101.023-.156.062-.156A1 1 0 0 0 .11-.25c.114-.031.192-.07.235-.125q.188-.199.515-.797l2.313-4.156q.123-.234.328-.234a.2.2 0 0 1 .063.03l.703 4.423.093.609q.014.081.11.156.106.063.218.11c.07.023.125.03.157.03q.03 0 .031.048a.5.5 0 0 1-.047.187Q4.435.013 4.218 0c-.148-.008-.234-.016-.265-.016-.187 0-.36.008-.515.016q-.223.013-.376.031-.016-.016-.015-.062 0-.171.062-.172.077 0 .22-.047c.1-.031.171-.07.202-.125.04-.07.063-.203.063-.39 0-.102-.055-.516-.156-1.235q0-.06-.094-.078h-.281a6 6 0 0 0-.47-.016c-.054 0-.148.008-.28.016q-.207.001-.5.031-.017 0-.11.14-.081.144-.203.345a4 4 0 0 0-.234.437 6 6 0 0 0-.188.406.7.7 0 0 0-.078.25.18.18 0 0 0 .078.156q.093.05.203.079c.07.023.13.03.172.03q.03 0 .031.048a.5.5 0 0 1-.046.187L.64-.016A2 2 0 0 0 .219 0Q.015.013-.187.031m2.25-2.547c.093 0 .218.008.374.016h.5c.165-.008.297-.016.391-.016.02 0 .031-.007.031-.03q-.047-.406-.125-.876a16 16 0 0 1-.14-1 134 134 0 0 0-1.031 1.89zm0 0" id="b"/><path d="M2.438.078q-.598 0-1.047-.281a2 2 0 0 1-.688-.813A2.8 2.8 0 0 1 .47-2.172q0-.623.234-1.234A3.7 3.7 0 0 1 1.391-4.5a3.5 3.5 0 0 1 1-.797 2.54 2.54 0 0 1 1.187-.297c.383 0 .723.102 1.016.297q.45.283.718.781.265.487.266 1.079-.001.703-.266 1.343-.252.645-.687 1.125a3.4 3.4 0 0 1-1 .766 2.6 2.6 0 0 1-1.187.281m.218-.36q.436.002.828-.25.388-.263.688-.687a3.8 3.8 0 0 0 .64-2.093q0-.564-.171-.985a1.5 1.5 0 0 0-.485-.687 1.16 1.16 0 0 0-.765-.266q-.457.001-.844.266a2.4 2.4 0 0 0-.688.687 3.5 3.5 0 0 0-.468.953 3.5 3.5 0 0 0-.172 1.11c0 .375.054.714.172 1.015q.169.44.484.688.327.251.781.25m0 0" id="c"/><path d="M.125.031Q.092.016.094-.047c0-.101.02-.156.062-.156q.077.001.188-.016.123-.029.234-.062.106-.046.125-.11.061-.14.11-.343.045-.201.109-.453l.594-3.11q.029-.234.062-.422.03-.186.031-.343 0-.078-.093-.125a2 2 0 0 0-.203-.079 1 1 0 0 0-.172-.03c-.024 0-.032-.016-.032-.048q-.002-.106.079-.172c.039 0 .113.008.218.016q.172.002.36.016.187.016.328.015.091 0 .265-.015.186-.014.36-.016c.125-.008.21-.016.265-.016v.016q-.002.204-.062.203a1 1 0 0 0-.172.031 2 2 0 0 0-.219.079q-.112.046-.125.078c-.086.18-.156.437-.219.78l-.593 3.157a9 9 0 0 0-.078.438 4 4 0 0 0-.016.328q-.001.066.125.125.123.047.328.078c.008 0 .016.012.016.031a.43.43 0 0 1-.063.203Q1.53.013 1.313 0c-.149-.008-.235-.016-.266-.016Zm0 0" id="d"/><path d="M.656.031Q.623-.016.625-.109c0-.07.008-.11.031-.11q.075 0 .203-.015.14-.03.25-.063.124-.045.141-.078c.031-.133.047-.297.047-.484v-2.985c0-.164-.008-.297-.016-.39q-.016-.155-.11-.157-.047 0-.218.094-.158.094-.312.188a.4.4 0 0 1-.094-.094Q.5-4.277.5-4.313q-.001-.029.016-.046 1.389-.951 1.437-.953h.016q.059.002.093.156-.08.251-.078.765v3.266q-.001.251.016.438c.008.117.023.218.047.312q.012.033.125.078.105.035.234.063.14.016.203.015.031.002.032.157c0 .054-.008.082-.016.093Q2.215.013 1.969 0c-.168-.008-.282-.016-.344-.016-.043 0-.148.008-.312.016Q1.078.013.656.031m0 0" id="e"/><path d="M1.188.047a.36.36 0 0 1-.204-.078Q.891-.125.891-.187l2.203-4.391H1.109q-.188 0-.312.187a1.6 1.6 0 0 0-.219.47q-.002.034-.11.046a.35.35 0 0 1-.171-.031q.012-.03.047-.188.03-.152.078-.36c.031-.132.055-.265.078-.39q.03-.186.063-.297.012-.107.125-.109h2.546q.077.001.188-.016h.219q.06.001.062.079 0 .093-.078.234-.08.143-.172.312L1.281.031a.3.3 0 0 1-.093.016m0 0" id="f"/><path d="M7.656.328Q6.372.328 4.86.11a34 34 0 0 1-3.312-.625 39 39 0 0 1-.344-1.765 48 48 0 0 1-.298-2.08 15 15 0 0 1-.11-1.5q.107-.312.595-.313.982 0 1.015.188.2.972.875 2.015.67 1.048 1.656 1.75.984.703 2.079.703c2.125 0 3.187-1.164 3.187-3.5q-.001-.936-.734-1.703a8.6 8.6 0 0 0-1.672-1.39c-.625-.407-1.168-.758-1.625-1.063l-.953-.64q-1.095-.748-2.063-1.532a6.3 6.3 0 0 1-1.562-1.828C1.195-13.867 1-14.722 1-15.734q-.001-1.64 1-2.953a7 7 0 0 1 2.563-2.094 7.35 7.35 0 0 1 3.296-.782q.67 0 1.391.094.717.096 1.234.203.966.188 1.657.375.702.177 1.125.235.154 1.581.25 2.906.093 1.313.093 2.438-.128.314-.484.312c-.637 0-.969-.07-1-.219a5.7 5.7 0 0 0-.703-2.125 5.6 5.6 0 0 0-1.485-1.718 3.2 3.2 0 0 0-2.046-.704q-1.097 0-1.86.688-.75.674-.75 2.156c0 .875.39 1.649 1.172 2.313q1.172 1.003 3.047 2.187l1.64 1.031c.594.368 1.157.766 1.688 1.204q.812.657 1.328 1.703.516 1.049.516 2.859a5.1 5.1 0 0 1-.985 3.063q-.97 1.346-2.562 2.125a7.94 7.94 0 0 1-3.469.765m0 0" id="g"/><path d="M2.906.078q-.689 0-1.25-.328a2.6 2.6 0 0 1-.906-.922 2.54 2.54 0 0 1-.328-1.281c0-.457.101-.875.312-1.25a2.44 2.44 0 0 1 .875-.906 2.4 2.4 0 0 1 1.266-.344q.684.002 1.234.344.563.344.891.906.342.564.344 1.25 0 .705-.328 1.281a2.54 2.54 0 0 1-.875.922 2.36 2.36 0 0 1-1.235.328M3-.359c.27 0 .504-.086.703-.266q.31-.264.485-.703.187-.437.187-.953 0-.622-.234-1.125a2.1 2.1 0 0 0-.594-.797A1.25 1.25 0 0 0 2.75-4.5c-.262 0-.496.086-.703.25q-.315.253-.485.688a2.5 2.5 0 0 0-.171.953c0 .406.07.78.218 1.125q.216.515.579.828.374.298.812.297m0 0" id="h"/><path d="M.375.031Q.328-.015.328-.156q0-.14.047-.14.094.001.25-.032.152-.03.281-.078.14-.061.156-.11.046-.152.063-.359c.008-.145.016-.29.016-.437v-2.141c0-.29-.055-.492-.157-.61A.54.54 0 0 0 .72-4.25a1 1 0 0 0-.281-.047q-.111.002-.11-.031 0-.264.063-.281.609-.093.984-.157c.25-.05.398-.086.453-.109l.188-.031q.046-.012.046.093c.008.063.016.11.016.141q-.035.16-.047.266v.187q-.001.047.016.047.013.002.031-.031a3 3 0 0 1 .703-.5q.45-.248.86-.25.794 0 1.109.562.328.563.328 1.829v1.03q-.001.332.016.579.029.25.062.437.028.049.157.11a2.2 2.2 0 0 0 .53.11q.03 0 .048.14.012.14-.016.187L4.672-.016 3.469.031C3.445 0 3.438-.062 3.438-.156s.007-.14.03-.14q.094.001.235-.032.152-.03.281-.078.124-.061.141-.11.045-.152.063-.359c.007-.145.015-.29.015-.437v-1.141c0-.695-.094-1.172-.281-1.422-.18-.258-.469-.39-.875-.39q-.236 0-.485.124a1.5 1.5 0 0 0-.39.297q-.157.176-.156.328v1.985c0 .218.004.414.015.578q.03.25.078.437c.008.032.063.07.157.11q.139.047.297.078.152.033.218.031.03 0 .047.14.013.142-.015.188L1.609-.016Zm0 0" id="i"/><path d="M1.64.078c-.343 0-.632-.086-.859-.265Q.437-.47.438-1.031q0-.668.89-1.125.375-.2.75-.313.388-.106.781-.265.094-.031.094-.172v-.844q0-.358-.234-.547a.77.77 0 0 0-.531-.203.78.78 0 0 0-.579.234c-.148.149-.218.344-.218.594 0 .274-.157.406-.47.406-.218 0-.366-.07-.437-.218q0-.234.204-.485.198-.263.515-.484.312-.216.688-.344a2.2 2.2 0 0 1 .765-.14q.608.002.875.296.281.3.281.97v2.624c0 .156.04.29.126.39A.41.41 0 0 0 4.28-.5q.14.001.39-.156.048 0 .048.094a.5.5 0 0 1-.047.234q-.469.392-.797.39a.74.74 0 0 1-.5-.203 1.3 1.3 0 0 1-.328-.453 1 1 0 0 0-.156.11l-.125.125a3.4 3.4 0 0 1-.516.312q-.28.124-.61.125m.438-.64q.311.002.594-.172.28-.186.281-.391v-1.172q-.3.11-.562.203-.27.095-.422.14a1 1 0 0 0-.39.298.66.66 0 0 0-.188.453q-.001.346.203.5.215.14.484.14m0 0" id="j"/><path d="M.344.031Q.308-.002.297-.14c0-.101.016-.156.047-.156q.093.002.234-.031c.094-.02.18-.047.266-.078q.14-.061.156-.11.045-.233.078-.484c.02-.164.031-.344.031-.531v-2.594q-.002-.093-.062-.094H.453q-.033 0-.031-.062-.002-.095.172-.282a.51.51 0 0 1 .39-.187h.063q.06 0 .062-.062v-.141q0-.609.188-1.125.2-.514.516-.922.327-.42.718-.64.406-.235.828-.235.826 0 1.079.453-.001.703-.407.703a.35.35 0 0 1-.234-.093 4 4 0 0 1-.203-.25 1 1 0 0 0-.25-.25.54.54 0 0 0-.328-.11.75.75 0 0 0-.578.281 1.9 1.9 0 0 0-.36.75q-.11.456-.11 1.016v.578q0 .047.063.047h1.25q.062 0 .063.078 0 .188-.14.453H2.03q-.063.002-.062.078v2.61q-.001.61.11 1.015.01.049.14.11a1.8 1.8 0 0 0 .484.11q.03 0 .047.14.013.14-.016.187L1.531-.016Zm0 0" id="k"/><path d="M2.234.078a1.32 1.32 0 0 1-.953-.375c-.25-.25-.375-.601-.375-1.062v-2.875H.25q-.063 0-.062-.235-.002-.077.015-.078.342-.152.719-.61.246-.292.375-.515.14-.234.14-.281.342 0 .344.047v1.125l.89.015h.642q.076 0 .078.094a1 1 0 0 1-.11.438h-1.5v2.78c0 .306.07.544.219.72.156.18.36.265.61.265q.357.001.703-.203.028-.03.093.094.075.112.063.125-.159.188-.516.36-.344.17-.719.171m0 0" id="m"/><path d="M2.703.063q-.626 0-1.14-.329a2.44 2.44 0 0 1-.829-.875 2.4 2.4 0 0 1-.312-1.218q0-.797.281-1.375a2.2 2.2 0 0 1 .813-.891 2.17 2.17 0 0 1 1.14-.312q.528.002.922.203.387.189.61.5a2.33 2.33 0 0 1 .39 1.281q-.002.222-.062.281-.066.047-.266.047H1.406q-.093.002-.093.063c0 .312.062.617.187.906q.201.438.578.718.373.282.906.282.48 0 .797-.14.328-.142.469-.25l.094-.063q.06 0 .062.14a.5.5 0 0 1-.062.203 2.1 2.1 0 0 1-.672.579q-.44.25-.969.25M1.406-3.11H3.61q.062 0 .063-.11 0-.247-.14-.547a1.4 1.4 0 0 0-.391-.515q-.252-.235-.657-.235a.9.9 0 0 0-.625.25q-.25.236-.39.547a1.4 1.4 0 0 0-.125.531q0 .08.062.079m0 0" id="n"/><path d="M.422.031Q.375-.015.375-.156q0-.14.047-.14.092.001.25-.032.152-.03.281-.078.14-.061.156-.11.046-.152.063-.359a8 8 0 0 0 .016-.437v-2.141c0-.29-.055-.492-.157-.61a.54.54 0 0 0-.265-.187 1 1 0 0 0-.282-.047q-.11.002-.109-.031 0-.264.063-.281 1.23-.186 1.437-.25l.188-.047q.046-.012.046.093c.008.063.016.11.016.141l-.078.563q.2-.31.562-.578.358-.265.704-.266.656 0 .89.328-.001.408-.125.594c-.086.117-.187.172-.312.172a.5.5 0 0 1-.375-.188.55.55 0 0 0-.453-.203.7.7 0 0 0-.438.156 1.2 1.2 0 0 0-.328.39q-.11.235-.11.47v1.703c0 .218.004.414.016.578q.03.25.078.437c.008.032.063.07.156.11a2.2 2.2 0 0 0 .532.11q.03 0 .047.14.012.14-.016.187L1.656-.016Zm0 0" id="o"/><path d="M2.875.125q-.13 0-.14-.047c-.087-.195-.18-.422-.282-.672q-.158-.375-.328-.797a50 50 0 0 0-.656-1.53q-.3-.685-.703-1.423-.158-.234-.625-.234-.034.002-.032-.156-.002-.14.032-.172.248 0 .53.031.295.034.595.016l1.14-.047a.7.7 0 0 1 0 .187q0 .14-.031.14c-.375 0-.562.087-.562.25q0 .083.375.845c.25.511.57 1.218.968 2.125q.404-1.123.625-1.766.235-.64.235-.734a.6.6 0 0 0-.063-.188 6 6 0 0 0-.156-.312.35.35 0 0 0-.25-.172 1.1 1.1 0 0 0-.313-.047q-.046.002-.046-.156 0-.14.046-.172.236 0 .516.031.294.017.578.016.356.001.625-.016.281-.03.484-.031c.008.054.016.117.016.187q-.001.111-.031.14c-.367 0-.547.15-.547.438 0 .149.414 1.075 1.25 2.782.156-.47.3-.899.438-1.297q.215-.592.343-.985.14-.406.14-.546 0-.389-.734-.391h-.046q-.047.002-.047-.156 0-.14.047-.172.248 0 .53.031a10 10 0 0 0 1.126 0q.263-.03.484-.031.03.08.031.156-.002.174-.062.172c-.094 0-.227.031-.39.094a.51.51 0 0 0-.329.312L6.172-.125c-.055.164-.156.25-.313.25q-.129 0-.14-.047L4.329-3.25 3.187-.125a.8.8 0 0 1-.126.156.24.24 0 0 1-.187.094m0 0" id="p"/><path d="M3.953.063q-.063 0-.062-.188v-.14q0-.048-.047-.047c-.418.242-.82.359-1.203.359Q2.015.049 1.5-.266a2.2 2.2 0 0 1-.781-.828 2.3 2.3 0 0 1-.281-1.125Q.437-2.762.64-3.266a2.87 2.87 0 0 1 1.375-1.5q.45-.217.937-.218.48 0 .844.187.094.001.094-.203v-1.219q-.001-.374-.079-.718c-.03-.125-.226-.188-.578-.188H3.14q-.08.001-.079-.125-.002-.17.079-.172a5 5 0 0 0 .984-.172q.373-.105.547-.234l.031-.031h.031q.048.002.094.062a.2.2 0 0 1 .047.125c-.086.25-.125.578-.125.984v5.094c0 .356.023.64.078.86q.03.11.188.14.169.036.343.047l.11.016q.03.017.031.14c0 .118-.023.172-.062.172q-.376.017-.782.11-.392.092-.61.156Zm-.89-.579c.257 0 .46-.054.609-.171a.56.56 0 0 0 .219-.47v-2.687q-.001-.247-.266-.453-.25-.201-.812-.203-.44.001-.75.266a1.7 1.7 0 0 0-.485.718 2.7 2.7 0 0 0-.172.97q0 .547.188 1.015a1.8 1.8 0 0 0 .578.734q.375.281.89.281m0 0" id="q"/><path d="M1.984.125q-.361 0-.64-.078a7 7 0 0 0-.688-.14 3 3 0 0 1-.094-.329 5 5 0 0 1-.078-.453 6 6 0 0 1-.015-.39q.091-.078.125-.079.17.002.187.078c.031.149.102.297.219.454q.187.222.438.375.264.157.546.156a.92.92 0 0 0 .594-.188q.235-.201.235-.578a.8.8 0 0 0-.313-.656 2 2 0 0 0-.406-.281 3 3 0 0 0-.313-.157 4 4 0 0 1-.375-.218q-.89-.5-.89-1.203-.002-.404.218-.72.235-.308.61-.484.389-.187.812-.187.123.001.281.031.172.02.36.031c.125.024.226.043.312.063l.204.031q.122.517.14 1.156 0 .047-.14.047c-.118 0-.172-.023-.172-.078a1.24 1.24 0 0 0-.328-.594q-.27-.28-.61-.28-.813 0-.812.655c0 .118.007.22.03.313a.5.5 0 0 0 .204.234q.341.282.828.547.48.27.797.516.47.363.469.844 0 .439-.235.796-.234.364-.64.563a1.9 1.9 0 0 1-.86.203m0 0" id="r"/><path d="M.766 1.844q-.05 0-.157-.094Q.5 1.669.5 1.594q-.001-.035.125-.14.122-.111.297-.298.168-.174.297-.437.124-.252.125-.563-.001-.202-.172-.547Q.998-.766 1-.859q-.001-.246.25-.422a.97.97 0 0 1 .563-.172 1 1 0 0 1 .265.031c.102.149.156.39.156.734 0 .481-.136.926-.406 1.344q-.394.637-1.062 1.188m0 0" id="s"/><path d="M.25.031Q.203-.015.203-.156q0-.14.047-.14.094.001.25-.032.152-.03.281-.078.14-.061.156-.11.078-.311.079-.78V-6.22c0-.25-.024-.488-.063-.718q-.048-.188-.578-.188h-.11q-.062.001-.062-.125 0-.17.063-.172.575-.058.968-.187c.27-.094.454-.164.547-.22l.063-.03h.031q.03.002.078.062.045.066.063.125c-.086.25-.125.578-.125.984v2.47q0 .046.015.046a.1.1 0 0 0 .047-.016q.169-.185.438-.359.263-.17.562-.281.31-.124.578-.125.764 0 1.094.547.328.534.328 1.672v1.218q-.001.317.016.563.029.25.062.437.028.049.157.11a2.2 2.2 0 0 0 .53.11q.03 0 .048.14.012.14-.016.187L4.547-.016 3.344.031C3.32 0 3.313-.062 3.313-.156s.007-.14.03-.14q.094.001.235-.032.152-.03.281-.078.124-.061.141-.11.045-.152.063-.359c.007-.145.015-.29.015-.437v-1.204q-.001-.702-.125-1.078-.128-.375-.39-.515-.252-.155-.657-.157-.234.001-.469.125a1.5 1.5 0 0 0-.39.297q-.158.174-.156.313v2c0 .218.004.414.015.578q.03.25.078.437c.008.032.063.07.157.11q.139.047.297.078.152.033.218.031.03 0 .047.14.013.142-.015.188L1.484-.016Zm0 0" id="t"/><path d="M2.703.063q-.626 0-1.14-.329a2.44 2.44 0 0 1-.829-.875 2.4 2.4 0 0 1-.312-1.218q-.001-.703.25-1.282.247-.591.734-.937.5-.359 1.203-.36c.832 0 1.41.196 1.735.579q0 .766-.422.765c-.137 0-.242-.023-.313-.078A2 2 0 0 1 3.36-4q-.346-.516-.828-.516c-.312 0-.601.149-.86.438q-.375.44-.374 1.312c0 .606.148 1.11.453 1.516q.449.596 1.234.594.48 0 .797-.14.328-.142.469-.25l.094-.063q.06 0 .062.14a.5.5 0 0 1-.062.203 2.1 2.1 0 0 1-.672.579q-.44.25-.969.25m0 0" id="u"/><path d="M.406.031Q.36-.015.36-.156q0-.14.047-.14.094.001.25-.032.153-.03.282-.078.139-.061.156-.11.045-.152.062-.359c.008-.145.016-.29.016-.437v-2.141c0-.29-.055-.492-.156-.61A.46.46 0 0 0 .75-4.25a1 1 0 0 0-.281-.047q-.11.002-.11-.031 0-.264.063-.281c.406-.063.71-.114.922-.157.207-.039.394-.078.562-.109l.14-.031q.048-.012.048.093.013.095.015.141a4 4 0 0 0-.046.422 5 5 0 0 0-.016.39v2.329c0 .218.004.414.015.578q.03.25.079.437c.007.032.062.07.156.11q.14.047.297.078.153.033.219.031.029 0 .046.14.013.142-.015.188L1.64-.016ZM1.531-6.14a.52.52 0 0 1-.39-.171.54.54 0 0 1-.172-.407.5.5 0 0 1 .172-.39.54.54 0 0 1 .39-.172q.234 0 .39.172a.51.51 0 0 1 .173.39.56.56 0 0 1-.172.407.5.5 0 0 1-.39.171m0 0" id="v"/><path d="M1.36 2.563q-.236 0-.36-.141a.47.47 0 0 1-.11-.297q-.001-.235.157-.36.95-.001 1.25-.968l.14-.422Q2.515.141 2.564 0L.937-3.969a1.3 1.3 0 0 0-.109-.219 1 1 0 0 0-.11-.156.8.8 0 0 0-.327-.172 1.3 1.3 0 0 0-.328-.062q-.047.002-.047-.156 0-.14.047-.172c.207 0 .41.008.609.015.195.012.406.016.625.016q.357.001.61-.016c.175-.007.335-.015.484-.015.007.054.015.105.015.156q0 .174-.047.172-.034.001-.156.031a2 2 0 0 0-.234.078q-.111.048-.14.125v.016q0 .205 1.218 2.953l.86-2.469c.05-.156.077-.273.077-.36q0-.17-.171-.265a.9.9 0 0 0-.47-.11q-.046.001-.046-.155 0-.14.047-.172.14 0 .437.031a9 9 0 0 0 1.11 0q.294-.03.437-.031.03.08.031.156 0 .174-.046.172-.16.002-.407.11a.57.57 0 0 0-.328.312L2.547 1.313c-.18.468-.375.789-.594.968q-.33.281-.594.281m0 0" id="w"/><path d="M.219.031Q.172-.015.172-.156q0-.14.047-.14.092.001.25-.032.152-.03.281-.078.14-.061.156-.11.046-.152.063-.359.013-.217.015-.437V-6.22q-.002-.374-.062-.718-.05-.187-.578-.187h-.11q-.063.001-.062-.125 0-.17.062-.172c.457-.05.797-.11 1.016-.172.219-.07.367-.14.453-.203l.11-.062h.015q.047.002.094.062.045.066.062.125c-.086.25-.125.578-.125.984v5.157c0 .218.004.414.016.578q.03.25.078.437.012.049.14.11a2.2 2.2 0 0 0 .532.11q.03 0 .047.14.013.14-.016.187L1.453-.016Zm0 0" id="x"/><path d="M6.688.063c-.125 0-.25-.086-.375-.266L1.906-6.437v4.843q0 .767.094 1.047.011.048.188.11.17.063.374.109.217.033.282.031.03 0 .031.14.013.142-.016.188Q2.297.013 1.97 0c-.211-.008-.344-.016-.407-.016L.266.031Q.219-.002.219-.14c0-.101.015-.156.047-.156q.106.002.312-.031.2-.046.375-.11c.125-.039.195-.082.219-.124.07-.188.11-.54.11-1.063v-4.453q-.001-.574-.079-.844Q1.17-6.999 1-7.047a5 5 0 0 0-.375-.078 1.5 1.5 0 0 0-.312-.047q-.048 0-.047-.14 0-.141.046-.188l.72.031h.937q.233-.013.39-.031.218.393 1.172 1.781.967 1.376 2.672 3.766a3 3 0 0 0 .031-.453v-3.531q0-.704-.078-.985-.016-.077-.203-.125a2.5 2.5 0 0 0-.39-.094 1.5 1.5 0 0 0-.297-.046q-.047 0-.047-.141 0-.123.047-.172c.062 0 .172.008.328.016q.246.017.515.046.28.017.485.016.293 0 .75-.047.45-.03.531-.031c.008.063.016.121.016.172q0 .14-.047.14-.065 0-.282.047c-.148.032-.28.07-.406.11q-.19.048-.203.11a3 3 0 0 0-.078.437 9 9 0 0 0-.016.609v4.297q-.002.703.032 1.594-.05.046-.203.047m0 0" id="y"/><path d="M1.328.172a.7.7 0 0 1-.484-.188.66.66 0 0 1-.188-.468q0-.282.188-.47a.67.67 0 0 1 .484-.202q.293.002.469.203a.64.64 0 0 1 .187.469q-.002.27-.203.468a.62.62 0 0 1-.453.188m0 0" id="z"/><path d="M.344.031Q.297-.014.297-.14c0-.101.016-.156.047-.156q.122.002.297-.031A3 3 0 0 0 1-.406a.5.5 0 0 0 .234-.14q.187-.2.204-.985.011-1.311.046-2.36.03-1.044.047-1.718.031-.67.032-.86 0-.312-.047-.453-.017-.077-.203-.125a5 5 0 0 0-.375-.078 1.5 1.5 0 0 0-.313-.047q-.047.002-.047-.156 0-.123.047-.172.265.017.594.047.326.017.672.016.216.001.468-.016c.164-.008.36-.024.579-.047q.076.252 2.234 5.672.03.033.047.031.045 0 .062-.047.546-1.295.985-2.375.451-1.078.78-1.922L7.5-7.5q.358.035.594.047h1a7 7 0 0 0 .61-.047q.03.112.03.172 0 .157-.046.156h-.032a1 1 0 0 0-.328.078 1.2 1.2 0 0 0-.297.157q-.14.093-.14.75l.093 4.609q.031.656.172 1.031.03.083.172.14.153.05.328.079.186.033.266.031c.031 0 .047.055.047.156a.6.6 0 0 1-.031.172Q9.373.013 9.03 0c-.219-.008-.367-.016-.437-.016l-1.36.047q-.046-.045-.046-.172c0-.101.015-.156.046-.156a2 2 0 0 0 .344-.047q.233-.06.344-.125.124-.092.125-.484v-.594L7.922-5.53q-.001-.123-.031-.282-.035-.152-.063-.265-.033-.124-.078-.125-.034 0-.062.078L5.328-.469q-.222.486-.422.485c-.011 0-.047-.008-.11-.016L2.204-6.594a197 197 0 0 1-.078 2.86l-.078 2.015a52 52 0 0 0-.016.875q0 .205.063.282c.031.042.101.085.219.125a4 4 0 0 0 .39.109q.2.033.266.031.047.001.047.172a.5.5 0 0 1-.032.156Q2.422.013 2.094 0c-.219-.008-.36-.016-.422-.016Zm0 0" id="A"/><path d="M.234 2.563q-.046-.047-.047-.188 0-.14.047-.14a1 1 0 0 0 .25-.047c.102-.024.204-.055.297-.094q.14-.047.14-.094.047-.159.063-.36C.992 1.505 1 1.364 1 1.22v-4.69c0-.281-.055-.484-.156-.61a.47.47 0 0 0-.266-.171.9.9 0 0 0-.265-.047C.227-4.305.188-4.32.188-4.344c0-.176.023-.27.078-.281q1.184-.17 1.53-.281l.079-.016q.06.001.047.125a1 1 0 0 0-.016.188l-.015.062q.106-.074.312-.156.201-.093.438-.156.232-.078.406-.079c.508 0 .937.118 1.281.344q.515.347.766.875.264.534.265 1.063-.002.55-.203 1.047a3 3 0 0 1-.562.875q-.345.392-.797.609-.456.218-.922.219c-.23 0-.406-.024-.531-.063a2.3 2.3 0 0 1-.422-.156q-.047.047-.047.14V1q-.001.327.016.578.03.246.078.422.028.047.156.094.14.058.297.094.152.046.234.046.03 0 .031.141a.7.7 0 0 1 0 .188L1.47 2.5ZM2.922-.392q.45.002.765-.265c.22-.188.383-.426.5-.719q.188-.45.188-.953 0-.639-.234-1.094a1.6 1.6 0 0 0-.61-.703 1.56 1.56 0 0 0-.844-.25.92.92 0 0 0-.593.188c-.149.117-.219.292-.219.53v2.548q0 .315.328.515.327.204.719.203m0 0" id="B"/><path d="M2.406 2.563q-.534 0-1.015-.141-.47-.127-.766-.406a.92.92 0 0 1-.297-.703c0-.47.367-.872 1.11-1.204a1.1 1.1 0 0 1-.579-.28.76.76 0 0 1-.25-.579q-.001-.292.25-.61a2.7 2.7 0 0 1 .579-.515A1.3 1.3 0 0 1 1-2.187a2 2 0 0 1-.344-.5 1.4 1.4 0 0 1-.14-.626q-.002-.45.265-.796.265-.358.688-.563.434-.217.984-.219.451 0 .969.141.515.157.89.156h.657q.06.018.062.282-.002.157-.062.156h-.797q-.047 0-.047.031l.11.281q.123.283.124.531c0 .274-.086.532-.25.782-.168.242-.39.437-.671.594a2 2 0 0 1-.954.218 6 6 0 0 1-.64-.047 1.5 1.5 0 0 0-.344.329.57.57 0 0 0-.125.343q-.002.283.313.36.31.08.812.078.702.017 1.188.094.499.064.78.187c.376.18.563.445.563.813q0 .561-.328 1.046a2.2 2.2 0 0 1-.922.782 3.1 3.1 0 0 1-1.375.297M2.47-2.11q.435 0 .719-.328a1.23 1.23 0 0 0 .296-.829q0-.513-.328-.875-.315-.358-.75-.359a.94.94 0 0 0-.734.344 1.2 1.2 0 0 0-.281.812c0 .344.101.637.312.875q.327.362.766.36m.265 4.265q.452 0 .797-.172a1.5 1.5 0 0 0 .563-.453.94.94 0 0 0 .202-.56q0-.488-.469-.64C3.523.21 2.926.155 2.031.155A1 1 0 0 0 1.72.25a1.3 1.3 0 0 0-.407.313.7.7 0 0 0-.187.5q0 .31.234.562c.157.164.352.297.594.39q.373.141.781.141m0 0" id="C"/><path d="M.344.031C.32 0 .313-.062.313-.156s.007-.14.03-.14q.094.001.25-.032.17-.03.298-.078.139-.061.156-.11.045-.152.062-.359a8 8 0 0 0 .016-.437v-2.141c0-.29-.055-.492-.156-.61a.64.64 0 0 0-.281-.187.9.9 0 0 0-.266-.047q-.11.002-.11-.031 0-.264.063-.281.592-.093.938-.157a6 6 0 0 0 .53-.109L2-4.906c.02-.008.035.015.047.078a.5.5 0 0 1 0 .156q-.02.16-.031.266A1 1 0 0 0 2-4.22q-.002.047.031.047l.031-.031a3 3 0 0 1 .704-.5q.45-.248.859-.25.45.002.75.25.293.235.422.547.857-.797 1.75-.797c.945 0 1.422.726 1.422 2.172v1.25c0 .218.004.414.015.578q.03.25.079.437c.007.032.062.07.156.11q.14.047.297.078.153.033.218.031.047 0 .047.14a.7.7 0 0 1 0 .188L7.562-.016 6.329.031q-.047-.046-.047-.187 0-.14.047-.14.093.001.25-.032a2 2 0 0 0 .297-.078q.14-.061.14-.11a1.7 1.7 0 0 0 .063-.343c.008-.125.016-.254.016-.391v-1.281c0-1.156-.383-1.735-1.14-1.735q-.27.001-.516.125a1.2 1.2 0 0 0-.375.266c-.094.094-.141.18-.141.25q.03.221.047.438.013.221.015.484v1.281q-.001.283.016.5c.02.149.047.281.078.406q.012.049.14.11a2.2 2.2 0 0 0 .532.11q.03 0 .047.14.013.14-.016.187L4.578-.016 3.344.031q-.047-.046-.047-.187 0-.14.047-.14.092.001.25-.032.152-.03.281-.078.14-.061.156-.11.046-.152.063-.359.013-.217.015-.437V-2.47c0-1.195-.367-1.797-1.093-1.797a1 1 0 0 0-.453.125 1.3 1.3 0 0 0-.407.297Q2-3.668 2-3.516v1.985c0 .218.004.414.016.578q.012.25.062.437.028.049.156.11.14.047.297.078.153.033.235.031.03 0 .03.14a.7.7 0 0 1 0 .188L1.579-.016Zm0 0" id="D"/><path d="M4.156.094c-.062 0-.093-.067-.093-.188v-.578c0-.031-.008-.047-.016-.047Q3.296.08 2.563.078c-.356 0-.637-.101-.844-.312a1.8 1.8 0 0 1-.453-.782A4 4 0 0 1 1.14-2.03v-1.422c0-.29-.055-.492-.157-.61A.54.54 0 0 0 .72-4.25a1 1 0 0 0-.281-.047q-.111.002-.11-.031 0-.264.063-.281c.406-.063.726-.114.968-.157q.375-.076.422-.093l.235-.047q.046-.012.046.093c.008.063.016.11.016.141-.055.367-.078.64-.078.828v1.531c0 .586.086 1.016.266 1.297.175.274.457.407.843.407.157 0 .305-.04.454-.125q.217-.122.359-.297.14-.186.14-.313v-2.11q-.002-.432-.156-.608a.54.54 0 0 0-.265-.188 1 1 0 0 0-.282-.047q-.11-.013-.109-.031 0-.264.063-.281l.906-.141c.195-.04.36-.078.484-.11l.234-.046q.047-.012.047.093.014.095.016.141a6 6 0 0 0-.078.813v2.265c0 .336.023.621.078.86q.03.11.172.14.153.036.36.047l.14.016q.03.017.031.125a.4.4 0 0 1-.031.11q-.016.079-.063.077a4.6 4.6 0 0 0-.75.11 4 4 0 0 0-.609.172Zm0 0" id="E"/><path d="M2.656.063c-.25 0-.5-.024-.75-.063a3 3 0 0 0-.484-.078.8.8 0 0 0-.25.062A1 1 0 0 1 1 .047.6.6 0 0 1 .86.016Q.765-.014.765-.062q0-.076.062-.438.062-.375.063-1.031V-6.22c0-.25-.024-.488-.063-.718Q.78-7.125.25-7.125H.14q-.062.001-.062-.125 0-.17.063-.172.637-.06 1-.172.374-.105.53-.234l.048-.031h.031q.03.002.078.062.045.066.063.125c-.086.25-.125.578-.125.984v1.985c0 .086.007.125.03.125h.016l.016-.016q.17-.105.5-.234a1.7 1.7 0 0 1 .578-.125q.716.002 1.235.344.527.346.797.875.28.531.28 1.093 0 .551-.218 1.032a2.8 2.8 0 0 1-.578.875q-.376.376-.828.593a2.3 2.3 0 0 1-.938.204m.219-.47q.435 0 .734-.28c.207-.188.364-.43.47-.735q.17-.468.171-.984c0-.594-.156-1.07-.469-1.438q-.469-.562-1.25-.562-.313 0-.547.187c-.148.117-.218.282-.218.5v2.625q0 .362.328.532.34.157.781.156m0 0" id="F"/><path d="M4.578.094c-.043 0-.074-.024-.094-.063L1.547-5.812a10 10 0 0 0-.344-.594 7 7 0 0 0-.312-.5.8.8 0 0 0-.313-.188 1.2 1.2 0 0 0-.36-.078c-.023 0-.03-.047-.03-.14s.007-.157.03-.188l1.438.063L2.844-7.5a1 1 0 0 1 .015.188q0 .14-.046.14a.9.9 0 0 0-.376.094q-.187.082-.187.234c0 .23.086.512.266.844l2.343 4.64q.03.066.079.032.059-.029.093-.094l.938-1.953L4.78-5.812a6 6 0 0 0-.328-.594 14 14 0 0 0-.328-.5.8.8 0 0 0-.312-.188 1.2 1.2 0 0 0-.344-.078q-.047.002-.047-.172c0-.07.015-.125.047-.156l1.422.063L6.063-7.5q.028.047.015.188-.001.14-.031.14a1 1 0 0 0-.375.078q-.188.082-.188.25 0 .158.063.375c.039.137.11.293.203.469l.75 1.531.797-1.672c.101-.218.156-.437.156-.656q-.002-.188-.25-.281a1.2 1.2 0 0 0-.422-.094q-.047 0-.047-.14t.047-.188q.452.034.735.063.294.017.406 0L9.109-7.5a.7.7 0 0 1 0 .188q0 .14-.03.14a1 1 0 0 0-.22.047 1.7 1.7 0 0 0-.328.11.7.7 0 0 0-.234.171 5 5 0 0 0-.266.422q-.157.283-.39.734L6.766-3.89 8-1.359q.06.112.14-.063l2.032-4.64q.094-.234.14-.407c.032-.125.047-.226.047-.312q0-.187-.234-.282a1 1 0 0 0-.406-.109q-.047 0-.047-.14t.047-.188a21 21 0 0 0 1.156.063q.328.001.61-.016c.187-.02.35-.035.5-.047q.03.095.03.172 0 .157-.046.156-.113 0-.36.094a.8.8 0 0 0-.375.234c-.21.25-.43.633-.656 1.14L8.172-.265c-.106.243-.25.36-.438.36-.043 0-.078-.024-.109-.063L6.25-2.797 5.031-.266c-.117.243-.265.36-.453.36m0 0" id="G"/><path d="M5.672.047Q5.074.046 3.844.016q-.626-.031-1.14-.032a17 17 0 0 0-.892 0L.438.016C.414-.004.406-.066.406-.172q-.002-.14.031-.14Q.56-.31.72-.344q.17-.046.31-.094.153-.044.188-.124.077-.106.078-1.063v-4.281q0-.734-.078-1.016-.018-.077-.172-.125a3 3 0 0 0-.313-.078 1 1 0 0 0-.265-.047q-.047 0-.047-.14T.469-7.5c.062 0 .172.008.328.016.164.011.344.027.531.046a8.4 8.4 0 0 0 1.219-.015q.358-.03.594-.047c.007.063.015.121.015.172q0 .157-.047.156a1 1 0 0 0-.234.047 2 2 0 0 0-.328.094c-.094.031-.149.07-.156.11q-.111.376-.11 1.046v4.266q-.001.611.11 1 .029.11.765.109h.547c.695 0 1.172-.062 1.422-.187.113-.063.238-.196.375-.407q.216-.312.344-.734.014-.077.156-.078.217 0 .281.078l-.11.266q-.063.189-.14.39l-.11.328a13 13 0 0 1-.155.469 1.8 1.8 0 0 0-.094.422m0 0" id="H"/><path d="M3.063-7.984q.169 0 .234.187-.41.252-.61.563-.203.316-.203.468c0 .086.04.172.125.266q.123.141.235.281c.07.094.11.188.11.282q0 .204-.235.343a.9.9 0 0 1-.719.11q-.174-.235-.172-.797-.001-.295.125-.578.123-.296.281-.485.247-.265.5-.453.246-.187.329-.187m-1.672 0q.152 0 .234.187-.41.252-.61.563-.203.316-.202.468a.43.43 0 0 0 .109.266q.123.141.234.281a.43.43 0 0 1 .125.282q0 .204-.234.343a.9.9 0 0 1-.5.14.8.8 0 0 1-.235-.03Q.156-5.72.157-6.281q-.001-.295.11-.578.122-.296.297-.485.233-.265.484-.453.263-.187.344-.187m0 0" id="I"/><path d="M.438.031Q.39-.002.39-.14c0-.101.015-.156.046-.156q.093.002.266-.031.17-.047.313-.094c.101-.039.172-.086.203-.14q.077-.106.078-1.063v-4.281a5 5 0 0 0-.031-.563 4 4 0 0 0-.047-.406q-.036-.061-.188-.11a1.6 1.6 0 0 0-.328-.093 1 1 0 0 0-.265-.047q-.047 0-.047-.126 0-.155.046-.203.282.018.61.031h.734l1.094-.016h.547c.144-.007.254-.015.328-.015q1.232 0 2.094.516A3.54 3.54 0 0 1 7.187-5.61q.47.815.47 1.812 0 1.078-.47 1.969a3.47 3.47 0 0 1-1.359 1.39c-.586.336-1.281.489-2.094.47L2.938.015Q2.593-.001 2.312 0a6 6 0 0 0-.515 0Zm3.484-.515c1.726 0 2.594-1.118 2.594-3.36 0-.57-.106-1.094-.313-1.562a2.6 2.6 0 0 0-.89-1.125q-.597-.422-1.47-.422h-.062q-1.218 0-1.36.187-.14.188-.14.704v4.484q-.002.47.172.86.011.062.188.109.17.034.406.062.248.036.484.047.233.017.39.016m0 0" id="J"/><path d="M.438-5.5q-.177 0-.235-.187c.27-.157.469-.336.594-.547q.201-.31.203-.485c0-.093-.04-.18-.11-.265a4 4 0 0 0-.234-.266.45.45 0 0 1-.11-.281q-.002-.201.22-.344a1 1 0 0 1 .515-.14 1 1 0 0 1 .219.03q.17.224.172.798-.001.282-.125.578a2 2 0 0 1-.297.484 4 4 0 0 1-.484.438Q.514-5.5.438-5.5m0 0" id="K"/><path d="M.438-5.5q-.177 0-.235-.187c.27-.157.469-.336.594-.547q.201-.31.203-.485c0-.093-.04-.18-.11-.265a4 4 0 0 0-.234-.266.45.45 0 0 1-.11-.281q-.002-.201.22-.344a1 1 0 0 1 .515-.14 1 1 0 0 1 .219.03q.17.224.172.798-.001.282-.125.578a2 2 0 0 1-.297.484 4 4 0 0 1-.484.438Q.514-5.5.438-5.5m1.609 0q-.175 0-.235-.187c.27-.157.47-.336.594-.547q.201-.31.203-.485a.42.42 0 0 0-.109-.265 4 4 0 0 0-.234-.266.45.45 0 0 1-.11-.281c0-.133.07-.25.219-.344a1 1 0 0 1 .516-.14 1 1 0 0 1 .218.03q.171.224.172.798-.001.282-.125.578a2 2 0 0 1-.297.484 4 4 0 0 1-.484.438q-.252.187-.328.187m0 0" id="L"/><path d="M.469.031C.445 0 .438-.055.438-.14c0-.101.007-.156.03-.156q.107.001.282-.016.17-.028.313-.093.153-.061.171-.11.046-.153.063-.406c.008-.164.016-.367.016-.61v-4.39c0-.226-.008-.426-.016-.594a1.7 1.7 0 0 0-.063-.406q-.018-.077-.171-.125a3 3 0 0 0-.313-.078 1.2 1.2 0 0 0-.281-.047c-.024 0-.031-.047-.031-.14s.007-.157.03-.188c.071 0 .188.008.345.016q.248.017.53.046.28.017.485.016c.25 0 .492-.008.734-.031l.579-.047q.029.047.015.188 0 .14-.031.14a1 1 0 0 0-.234.047 2 2 0 0 0-.328.094c-.094.031-.149.07-.157.11q-.11.376-.11 1.046v1.688l.032.03.969.032H4.78l.938-.031q.013-.012.015-.047v-1.719q-.002-.34-.015-.594a1.7 1.7 0 0 0-.063-.406q-.018-.077-.172-.125a3 3 0 0 0-.312-.078 1 1 0 0 0-.266-.047q-.047 0-.047-.14t.047-.188c.063 0 .172.008.328.016q.248.017.532.046a8.4 8.4 0 0 0 1.218-.015l.579-.047c.007.063.015.121.015.172q-.001.157-.031.156-.082 0-.25.047-.16.035-.313.094-.141.048-.171.11a3 3 0 0 0-.079.437 9 9 0 0 0-.015.609v4.297q0 .363.015.625.03.25.079.437.03.049.171.11.154.047.313.078.169.033.25.031.03.001.031.172c0 .043-.008.098-.016.156Q7 .013 6.673 0c-.211-.008-.344-.016-.406-.016l-1.36.047Q4.86-.015 4.86-.156q0-.14.047-.14c.063 0 .149-.005.266-.017q.171-.028.312-.093.154-.061.172-.11.046-.153.063-.406.013-.246.015-.61v-1.984l-.015-.046q-.533-.014-.953-.016-.425-.014-.72-.016c-1.167 0-1.75.024-1.75.063v1.953q0 .657.11 1.062c.008.032.063.07.156.11q.152.047.329.078.17.033.234.031.03 0 .031.14.013.142-.015.188Q2.579.013 2.25 0c-.219-.008-.36-.016-.422-.016Zm0 0" id="M"/><path d="M2.344.031q-.047-.046-.047-.156 0-.14.047-.14c.062 0 .144-.008.25-.032q.171-.045.312-.11c.094-.038.145-.077.156-.109.032-.125.051-.273.063-.453q.03-.279.031-.64v-1.407q0-.17-.234-.64-.128-.233-.485-.875-.345-.64-.937-1.688a3 3 0 0 0-.281-.468 1.4 1.4 0 0 0-.266-.25 1.4 1.4 0 0 0-.375-.172 1.5 1.5 0 0 0-.36-.079c-.03 0-.046-.039-.046-.125q0-.14.047-.187l.61.031q.217.019.405.032.187.016.344.015c.082 0 .578-.023 1.485-.078q.028.047.015.188-.001.126-.031.125c-.125 0-.274.03-.438.093q-.251.096-.25.297-.001.112.125.328l1.282 2.407c.039.03.078.023.109-.032q1.53-2.308 1.531-2.718 0-.124-.234-.25a1.1 1.1 0 0 0-.547-.125q-.047 0-.047-.141 0-.123.047-.172l1.344.078q.17.001.36-.016.184-.012.359-.03.374-.031.484-.032.014.095.016.172 0 .14-.047.14-.095 0-.282.047-.187.049-.375.125a.7.7 0 0 0-.265.172l-.438.703q-.253.409-.547.875c-.187.313-.367.61-.53.891a15 15 0 0 0-.407.719q-.158.3-.156.36v1.718q0 .363.015.625.03.25.078.437.014.049.157.11.153.063.312.11c.102.023.176.03.219.03q.047 0 .047.141c0 .043-.008.098-.016.156Q4.373.013 4.063 0c-.211-.008-.34-.016-.391-.016Zm0 0" id="N"/><path d="M.469.031C.445 0 .438-.055.438-.14c0-.101.007-.156.03-.156q.107.001.282-.016.17-.028.313-.093.153-.061.171-.11.046-.153.063-.406c.008-.164.016-.367.016-.61v-4.39c0-.226-.008-.426-.016-.594a1.7 1.7 0 0 0-.063-.406q-.018-.077-.171-.125a3 3 0 0 0-.313-.078 1.2 1.2 0 0 0-.281-.047c-.024 0-.031-.047-.031-.14s.007-.157.03-.188l1.36.063q.094.001.422-.016.329-.012.89-.047.031.095.032.172 0 .157-.047.156a1 1 0 0 0-.234.047 2 2 0 0 0-.328.094c-.094.031-.149.07-.157.11q-.11.376-.11 1.046v4.297q0 .657.11 1.062c.008.032.063.07.156.11q.152.047.329.078.17.033.234.031.047.001.047.172a.5.5 0 0 1-.031.156Q2.579.013 2.25 0c-.219-.008-.36-.016-.422-.016Zm0 0" id="O"/><path d="M1.578-1.719c-.086.032-.14.028-.172-.015a.44.44 0 0 1-.062-.188l-.172-2.562q-.063-.798-.11-1.313a9 9 0 0 1-.046-.766q-.001-.28.156-.484a.53.53 0 0 1 .437-.219q.247.001.375.22.141.203.141.484-.002.251-.062.937c-.043.45-.094.984-.157 1.61a65 65 0 0 0-.14 1.968.8.8 0 0 1-.047.235.36.36 0 0 1-.14.093m0 1.89a.66.66 0 0 1-.469-.187.66.66 0 0 1-.187-.468q0-.282.187-.47a.62.62 0 0 1 .47-.202q.291.002.468.203a.64.64 0 0 1 .187.469q0 .27-.187.468a.64.64 0 0 1-.469.188m0 0" id="P"/><path d="M.203.031Q.156-.015.156-.156q0-.14.047-.14.094.001.25-.032A2 2 0 0 0 .75-.406q.14-.061.14-.11.046-.152.063-.359a8 8 0 0 0 .016-.437V-6.22c0-.25-.024-.488-.063-.718q-.048-.188-.578-.188h-.11q-.062.001-.062-.125 0-.17.063-.172.575-.058.969-.187c.269-.094.457-.164.562-.22l.047-.03h.031q.045.002.078.062.046.066.063.125c-.086.25-.125.578-.125.984v3.954q.234-.048.281-.094l.531-.438.406-.343q.188-.154.329-.297.14-.14.14-.25-.002-.14-.25-.157-.22-.011-.265-.046c-.055-.145-.047-.235.015-.266h.89q.406.001.657-.016.247-.03.594-.03.059.002.047.155c0 .106-.024.157-.063.157q-.08 0-.25.03-.158.034-.312.079a.8.8 0 0 0-.219.078 5 5 0 0 0-.422.313q-.3.222-.64.515a18 18 0 0 0-.61.547 40 40 0 0 1 1.36 1.5q.498.563.64.703.201.158.484.25c.196.055.336.078.422.078q.047.001.047.172V.03L4.422-.016 3.234.031q-.046-.045-.046-.172 0-.124.046-.125c.07 0 .157-.015.25-.046.102-.032.157-.067.157-.11v-.031L1.984-2.234l-.14.03v.673q-.002.376.031.64.03.252.063.375c.007.032.062.07.156.11q.14.047.297.078.152.033.218.031.047 0 .047.14a.7.7 0 0 1 0 .188L1.437-.016Zm0 0" id="Q"/><path d="M2.453.031q-.047-.045-.047-.172c0-.101.016-.156.047-.156q.105.001.281-.016.172-.028.313-.093a.4.4 0 0 0 .172-.11q.045-.153.062-.406.014-.246.016-.61v-4.093c0-.656-.04-1.047-.11-1.172q-.081-.17-1.218-.172a2.4 2.4 0 0 0-.672.078.64.64 0 0 0-.36.297q-.128.207-.234.64-.033.048-.11.048-.204.002-.28-.078l.218-1.61c.164.032.313.063.438.094q.201.033.344.031.81.001 1.437.032a56 56 0 0 0 2.547 0q.621-.031.984-.032.155.002.344-.031.187-.046.438-.094l.218 1.61q-.08.08-.265.078-.095 0-.125-.047-.094-.436-.235-.64a.66.66 0 0 0-.36-.298 2.3 2.3 0 0 0-.671-.078q-1.19.001-1.25.172-.093.362-.094 1.14v4.079q0 .657.094 1.062.03.049.172.11.153.047.312.078.17.033.25.031.047.001.047.172a.5.5 0 0 1-.031.156Q4.562.013 4.235 0c-.22-.008-.36-.016-.423-.016Zm0 0" id="R"/><path d="M2.672.078q-.095-.216-.313-.703l-.53-1.25a60 60 0 0 0-.61-1.375 29 29 0 0 0-.532-1.11Q.56-4.576.016-4.577q-.031.002-.032-.156.001-.14.032-.172.294 0 .593.031a10 10 0 0 0 1.157 0q.281-.03.562-.031.029.035.016.187-.016.14-.063.14-.549 0-.547.188v.047l.032.047L3.109-1.28 4.25-3.89a1 1 0 0 0 .063-.187.6.6 0 0 0 .03-.14q-.001-.36-.827-.36-.047.002-.047-.156 0-.14.047-.172.123 0 .468.031.34.034.61.016l1.14-.047c.008.054.016.105.016.156q0 .174-.078.172-.158 0-.422.094a.54.54 0 0 0-.344.28L3.11-.14a.43.43 0 0 1-.25.235c-.105.031-.168.023-.187-.016m0 0" id="S"/><path d="M.516.031Q.468-.014.469-.14c0-.101.015-.156.047-.156q.106.001.28-.016.172-.028.313-.093a.4.4 0 0 0 .172-.11q.077-.28.078-1.03v-4.36q-.002-.329-.015-.563a2 2 0 0 0-.063-.406q-.035-.061-.187-.11a1.6 1.6 0 0 0-.328-.093A1 1 0 0 0 .5-7.125q-.047.001-.047-.125 0-.155.047-.203c.195.012.406.023.625.031h.719q.264.001.703-.016l1.062-.03q.64-.031 1.11-.032.466-.014.781-.016.03.158.063.375.044.222.125.485.043.269.078.437.044.176.062.235-.048.063-.203.062c-.094 0-.148-.023-.156-.078q-.175-.621-.485-.797-.3-.17-.828-.172h-.765q-.985 0-.985.14-.035.142-.047.376a8 8 0 0 0-.015.578v1.844q0 .063.469.062h.609q.497.002.719-.031.234-.047.328-.187.091-.154.172-.5l.03-.11q0-.077.157-.078.14.002.203.063v2.203q-.046.046-.187.046t-.172-.093a3 3 0 0 0-.094-.266 2 2 0 0 1-.047-.203q-.065-.153-.093-.172a.3.3 0 0 0-.094-.078q-.16-.094-1.203-.094c-.532 0-.797.04-.797.11v1.78q-.001.658.11 1.063c.007.032.062.07.155.11q.152.047.329.078.169.033.234.031.047.001.047.172a.5.5 0 0 1-.031.156Q2.625.013 2.297 0c-.219-.008-.36-.016-.422-.016Zm0 0" id="T"/><path d="M4.094.063q-.75 0-1.407-.282a3.7 3.7 0 0 1-1.156-.812A3.9 3.9 0 0 1 .766-2.22 3.8 3.8 0 0 1 .5-3.64q0-.81.281-1.515c.188-.469.446-.88.782-1.235a3.7 3.7 0 0 1 1.187-.843 3.5 3.5 0 0 1 1.469-.313q.797.001 2.672.5l.046 1.406c0 .118-.078.172-.234.172q-.111 0-.14-.062-.316-1.547-2.313-1.547-.75 0-1.36.453a3.1 3.1 0 0 0-.953 1.188 3.8 3.8 0 0 0-.343 1.64c0 .418.07.828.218 1.235q.217.611.61 1.093.388.47.922.766.545.28 1.172.281 1.012.001 1.468-.25.078-.03.079-.172v-1q0-.715-.094-.968-.035-.095-.203-.141a3 3 0 0 0-.36-.078 2 2 0 0 0-.312-.031q-.047.001-.047-.157 0-.123.047-.172l1.484.047 1.219-.047q.03.082.031.157 0 .174-.047.172-.046 0-.187.03c-.086.024-.172.048-.266.079a.7.7 0 0 0-.203.094q-.11.081-.11.75v.25q0 .127.016.265l.016.297c0 .156.023.293.078.406a1 1 0 0 1 .078.22q0 .095-.281.202-.188.096-.313.125a.7.7 0 0 0-.171.063 5 5 0 0 1-.25.078q-.189.064-.313.094-.3.046-.562.093-.268.03-.547.047-.284.031-.672.032m0 0" id="U"/><path d="M.266.031Q.219-.014.219-.14c0-.101.015-.156.047-.156.093 0 .21-.016.359-.047q.216-.059.297-.172.122-.153.25-.406.123-.264.281-.656L3.422-6.64q.06-.152.078-.218a.6.6 0 0 1 .031-.125q.03-.06.078-.188a.9.9 0 0 1 .157-.234q.076-.094.265-.094l.094.031L6.391-1.5q.105.27.187.469.095.206.14.36.046.11.204.202c.101.055.207.094.312.125q.172.047.266.047.047 0 .047.219-.002.018-.016.047c0 .023-.008.039-.015.062Q6.952.013 6.64 0c-.211-.008-.336-.016-.375-.016L4.953.031q-.047-.046-.047-.187c.008-.094.032-.14.063-.14q.14 0 .343-.048c.133-.039.211-.094.235-.156a.4.4 0 0 0 .016-.094c.007-.031.015-.054.015-.078 0-.101-.016-.219-.047-.344a2 2 0 0 0-.078-.328l-.5-1.39q-.047-.047-.078-.047-.438-.03-.86-.031-.298.002-.656.015-.346.02-.78.031l-.048.032-.5 1.25A4 4 0 0 0 1.875-1a2 2 0 0 0-.031.297q0 .157.093.234c.063.055.165.094.313.125q.234.047.344.047.03 0 .031.14.013.142-.016.188L1.453-.016a3.3 3.3 0 0 0-.625 0q-.3.03-.562.047m3.359-3.39q.498.002 1.031-.032l.032-.062-.922-2.5-.97 2.516q0 .046.017.046l.5.032zm0 0" id="V"/><path d="M-.344 2.563a.9.9 0 0 1-.265-.047 1.2 1.2 0 0 1-.25-.079l-.079-.046a.6.6 0 0 1-.14-.422q0-.253.219-.407a.77.77 0 0 1 .484-.156q.205-.001.469.25c.164.157.297.235.39.235.207 0 .422-.211.641-.625q.17-.299.266-.86c.07-.375.109-.8.109-1.281v-5.047q-.001-.34-.031-.594a3 3 0 0 0-.047-.406q-.036-.077-.188-.125a3 3 0 0 0-.312-.078 1 1 0 0 0-.266-.047q-.047 0-.047-.14T.656-7.5c.07 0 .188.008.344.016.164.011.344.027.531.046a8 8 0 0 0 1.203-.015l.594-.047q.014.095.016.172-.001.157-.031.156-.082 0-.25.047-.16.035-.313.094-.142.048-.172.11-.094.376-.094 1.046v4.906q-.001.72-.218 1.36-.206.638-.594 1.125c-.25.32-.547.578-.89.765a2.3 2.3 0 0 1-1.126.281m0 0" id="W"/></defs><path fill="none" stroke-width="1.2986870000000001" stroke-linecap="butt" stroke-linejoin="miter" stroke="rgb(65.097046%, 9.803772%, 18.03894%)" stroke-opacity="1" stroke-miterlimit="10" d="M37.402 925.781h604.824V37.777H37.402Zm0 0"/><path fill="none" stroke-width=".499495" stroke-linecap="butt" stroke-linejoin="miter" stroke="rgb(65.097046%, 9.803772%, 18.03894%)" stroke-opacity="1" stroke-miterlimit="10" d="M48.91 914.273h581.81V49.285H48.91Zm0 0"/><path fill="none" stroke-width=".99899" stroke-linecap="butt" stroke-linejoin="miter" stroke="rgb(65.097046%, 9.803772%, 18.03894%)" stroke-opacity="1" stroke-miterlimit="10" d="M39.398 923.785c1.301-10.09 10.09-1.3 19.98-2"/><path fill="none" stroke-width=".599394" stroke-linecap="butt" stroke-linejoin="miter" stroke="rgb(65.097046%, 9.803772%, 18.03894%)" stroke-opacity="1" stroke-miterlimit="10" d="M41.36 923.586c2.195-5.277 5.714-2.2 8.35-5.277"/><path fill-rule="evenodd" fill="rgb(65.097046%, 9.803772%, 18.03894%)" fill-opacity="1" d="m58.281 917.191 2.598 2.598-2.598 2.598-2.597-2.598Zm0 0"/><path fill-rule="evenodd" fill="rgb(65.097046%, 9.803772%, 18.03894%)" fill-opacity="1" d="M41.996 922.785a1.597 1.597 0 1 0-3.194-.001 1.597 1.597 0 0 0 3.194.001"/><path fill="none" stroke-width=".99899" stroke-linecap="butt" stroke-linejoin="miter" stroke="rgb(65.097046%, 9.803772%, 18.03894%)" stroke-opacity="1" stroke-miterlimit="10" d="M640.23 923.785c-1.296-10.09-10.09-1.3-19.98-2"/><path fill="none" stroke-width=".599394" stroke-linecap="butt" stroke-linejoin="miter" stroke="rgb(65.097046%, 9.803772%, 18.03894%)" stroke-opacity="1" stroke-miterlimit="10" d="M638.273 923.586c-2.199-5.277-5.714-2.2-8.351-5.277"/><path fill-rule="evenodd" fill="rgb(65.097046%, 9.803772%, 18.03894%)" fill-opacity="1" d="m621.348 917.191-2.594 2.598 2.594 2.598 2.597-2.598Zm0 0"/><path fill-rule="evenodd" fill="rgb(65.097046%, 9.803772%, 18.03894%)" fill-opacity="1" d="M637.633 922.785a1.597 1.597 0 1 1 3.194-.001 1.597 1.597 0 0 1-3.194.001"/><path fill="none" stroke-width=".99899" stroke-linecap="butt" stroke-linejoin="miter" stroke="rgb(65.097046%, 9.803772%, 18.03894%)" stroke-opacity="1" stroke-miterlimit="10" d="M39.398 39.773c1.301 10.09 10.09 1.301 19.98 2"/><path fill="none" stroke-width=".599394" stroke-linecap="butt" stroke-linejoin="miter" stroke="rgb(65.097046%, 9.803772%, 18.03894%)" stroke-opacity="1" stroke-miterlimit="10" d="M41.36 39.977c2.195 5.273 5.714 2.195 8.35 5.273"/><path fill-rule="evenodd" fill="rgb(65.097046%, 9.803772%, 18.03894%)" fill-opacity="1" d="m58.281 46.367 2.598-2.597-2.598-2.598-2.597 2.598Zm0 0"/><path fill-rule="evenodd" fill="rgb(65.097046%, 9.803772%, 18.03894%)" fill-opacity="1" d="M41.996 40.773a1.597 1.597 0 1 1-3.194.002 1.597 1.597 0 0 1 3.194-.002"/><path fill="none" stroke-width=".99899" stroke-linecap="butt" stroke-linejoin="miter" stroke="rgb(65.097046%, 9.803772%, 18.03894%)" stroke-opacity="1" stroke-miterlimit="10" d="M640.23 39.773c-1.296 10.09-10.09 1.301-19.98 2"/><path fill="none" stroke-width=".599394" stroke-linecap="butt" stroke-linejoin="miter" stroke="rgb(65.097046%, 9.803772%, 18.03894%)" stroke-opacity="1" stroke-miterlimit="10" d="M638.273 39.977c-2.199 5.273-5.714 2.195-8.351 5.273"/><path fill-rule="evenodd" fill="rgb(65.097046%, 9.803772%, 18.03894%)" fill-opacity="1" d="m621.348 46.367-2.594-2.597 2.594-2.598 2.597 2.598Zm0 0"/><path fill-rule="evenodd" fill="rgb(65.097046%, 9.803772%, 18.03894%)" fill-opacity="1" d="M637.633 40.773a1.597 1.597 0 1 0 3.194.002 1.597 1.597 0 0 0-3.194-.002"/><g fill="rgb(65.097046%, 9.803772%, 18.03894%)" fill-opacity="1"><use xlink:href="#a" x="328.899935" y="27.78698"/><use xlink:href="#b" x="333.13688" y="27.78698"/><use xlink:href="#c" x="338.330284" y="27.78698"/><use xlink:href="#a" x="343.783777" y="27.78698"/><use xlink:href="#d" x="348.020722" y="27.78698"/></g><g fill="rgb(8.627319%, 8.627319%, 8.627319%)" fill-opacity="1"><use xlink:href="#e" x="336.245439" y="941.766207"/><use xlink:href="#f" x="339.379978" y="941.766207"/></g><path fill="none" stroke-width=".8990910000000001" stroke-linecap="butt" stroke-linejoin="miter" stroke="rgb(65.097046%, 9.803772%, 18.03894%)" stroke-opacity="1" stroke-miterlimit="10" d="M64.895 98.106h35.699v-45.77h-35.7Zm0 0"/><use xlink:href="#g" x="74.972981" y="86.203961" fill="rgb(65.097046%, 9.803772%, 18.03894%)" fill-opacity="1"/><g fill="rgb(8.627319%, 8.627319%, 8.627319%)" fill-opacity="1"><use xlink:href="#h" x="108.587165" y="65.26924"/><use xlink:href="#h" x="114.358698" y="65.26924"/><use xlink:href="#i" x="120.130231" y="65.26924"/><use xlink:href="#j" x="128.866746" y="65.26924"/><use xlink:href="#k" x="133.653722" y="65.26924"/><use xlink:href="#m" x="137.060058" y="65.26924"/><use xlink:href="#n" x="140.613511" y="65.26924"/><use xlink:href="#o" x="145.479705" y="65.26924"/><use xlink:href="#p" x="149.780063" y="65.26924"/><use xlink:href="#j" x="158.086544" y="65.26924"/><use xlink:href="#o" x="162.87352" y="65.26924"/><use xlink:href="#q" x="167.173878" y="65.26924"/><use xlink:href="#r" x="172.798294" y="65.26924"/><use xlink:href="#s" x="176.861" y="65.26924"/><use xlink:href="#t" x="182.157229" y="65.26924"/><use xlink:href="#n" x="188.155096" y="65.26924"/><use xlink:href="#p" x="195.612821" y="65.26924"/><use xlink:href="#n" x="203.919301" y="65.26924"/><use xlink:href="#i" x="208.785496" y="65.26924"/><use xlink:href="#m" x="214.93048" y="65.26924"/><use xlink:href="#m" x="221.075464" y="65.26924"/><use xlink:href="#h" x="224.628917" y="65.26924"/><use xlink:href="#j" x="232.991981" y="65.26924"/><use xlink:href="#u" x="240.370489" y="65.26924"/><use xlink:href="#v" x="244.953764" y="65.26924"/><use xlink:href="#m" x="248.145082" y="65.26924"/><use xlink:href="#w" x="251.698535" y="65.26924"/><use xlink:href="#u" x="259.427862" y="65.26924"/><use xlink:href="#j" x="264.011137" y="65.26924"/><use xlink:href="#x" x="268.798114" y="65.26924"/><use xlink:href="#x" x="271.638613" y="65.26924"/><use xlink:href="#n" x="274.479113" y="65.26924"/><use xlink:href="#q" x="279.345307" y="65.26924"/><use xlink:href="#y" x="287.561254" y="65.26924"/><use xlink:href="#j" x="295.720617" y="65.26924"/><use xlink:href="#v" x="300.507593" y="65.26924"/><use xlink:href="#i" x="303.698911" y="65.26924"/><use xlink:href="#z" x="309.843895" y="65.26924"/><use xlink:href="#A" x="315.072225" y="65.26924"/><use xlink:href="#j" x="325.37045" y="65.26924"/><use xlink:href="#i" x="330.157426" y="65.26924"/><use xlink:href="#w" x="336.30241" y="65.26924"/><use xlink:href="#h" x="344.031737" y="65.26924"/><use xlink:href="#k" x="349.80327" y="65.26924"/><use xlink:href="#t" x="355.801137" y="65.26924"/><use xlink:href="#v" x="361.799004" y="65.26924"/><use xlink:href="#r" x="364.990321" y="65.26924"/><use xlink:href="#q" x="371.644558" y="65.26924"/><use xlink:href="#v" x="377.268974" y="65.26924"/><use xlink:href="#r" x="380.460291" y="65.26924"/><use xlink:href="#u" x="384.522997" y="65.26924"/><use xlink:href="#v" x="389.106273" y="65.26924"/><use xlink:href="#B" x="392.29759" y="65.26924"/><use xlink:href="#x" x="398.080439" y="65.26924"/><use xlink:href="#n" x="400.920938" y="65.26924"/><use xlink:href="#r" x="405.787133" y="65.26924"/><use xlink:href="#s" x="409.849839" y="65.26924"/><use xlink:href="#j" x="415.146068" y="65.26924"/><use xlink:href="#x" x="419.933044" y="65.26924"/><use xlink:href="#h" x="422.773544" y="65.26924"/><use xlink:href="#i" x="428.545077" y="65.26924"/><use xlink:href="#C" x="434.690061" y="65.26924"/><use xlink:href="#p" x="442.645722" y="65.26924"/><use xlink:href="#v" x="450.952202" y="65.26924"/><use xlink:href="#m" x="454.14352" y="65.26924"/><use xlink:href="#t" x="457.696973" y="65.26924"/><use xlink:href="#j" x="466.286371" y="65.26924"/><use xlink:href="#C" x="473.664878" y="65.26924"/><use xlink:href="#o" x="479.029008" y="65.26924"/><use xlink:href="#n" x="483.329366" y="65.26924"/><use xlink:href="#j" x="488.195561" y="65.26924"/><use xlink:href="#m" x="492.982537" y="65.26924"/><use xlink:href="#D" x="499.127521" y="65.26924"/><use xlink:href="#E" x="508.180905" y="65.26924"/><use xlink:href="#x" x="514.031655" y="65.26924"/><use xlink:href="#m" x="516.872154" y="65.26924"/><use xlink:href="#v" x="520.425607" y="65.26924"/><use xlink:href="#m" x="523.616925" y="65.26924"/><use xlink:href="#E" x="527.170378" y="65.26924"/><use xlink:href="#q" x="533.021127" y="65.26924"/><use xlink:href="#n" x="538.645543" y="65.26924"/><use xlink:href="#s" x="543.511737" y="65.26924"/><use xlink:href="#p" x="548.807966" y="65.26924"/><use xlink:href="#n" x="557.114447" y="65.26924"/><use xlink:href="#i" x="561.980641" y="65.26924"/><use xlink:href="#m" x="568.125625" y="65.26924"/><use xlink:href="#p" x="574.270609" y="65.26924"/><use xlink:href="#v" x="582.57709" y="65.26924"/><use xlink:href="#m" x="585.768407" y="65.26924"/><use xlink:href="#t" x="589.32186" y="65.26924"/></g><g fill="rgb(8.627319%, 8.627319%, 8.627319%)" fill-opacity="1"><use xlink:href="#t" x="108.587165" y="81.852542"/><use xlink:href="#v" x="114.585032" y="81.852542"/><use xlink:href="#D" x="117.77635" y="81.852542"/><use xlink:href="#z" x="126.829734" y="81.852542"/><use xlink:href="#y" x="132.058063" y="81.852542"/><use xlink:href="#h" x="140.217426" y="81.852542"/><use xlink:href="#p" x="145.988959" y="81.852542"/><use xlink:href="#p" x="156.886971" y="81.852542"/><use xlink:href="#t" x="165.193451" y="81.852542"/><use xlink:href="#n" x="171.191318" y="81.852542"/><use xlink:href="#i" x="176.057512" y="81.852542"/><use xlink:href="#t" x="184.794027" y="81.852542"/><use xlink:href="#n" x="190.791894" y="81.852542"/><use xlink:href="#u" x="198.24962" y="81.852542"/><use xlink:href="#j" x="202.832895" y="81.852542"/><use xlink:href="#D" x="207.619872" y="81.852542"/><use xlink:href="#n" x="216.673256" y="81.852542"/><use xlink:href="#i" x="224.130981" y="81.852542"/><use xlink:href="#n" x="230.275966" y="81.852542"/><use xlink:href="#j" x="235.14216" y="81.852542"/><use xlink:href="#o" x="239.929136" y="81.852542"/><use xlink:href="#m" x="246.821026" y="81.852542"/><use xlink:href="#h" x="250.374479" y="81.852542"/><use xlink:href="#m" x="258.737543" y="81.852542"/><use xlink:href="#t" x="262.290996" y="81.852542"/><use xlink:href="#n" x="268.288862" y="81.852542"/><use xlink:href="#C" x="275.746588" y="81.852542"/><use xlink:href="#j" x="281.110718" y="81.852542"/><use xlink:href="#m" x="285.897694" y="81.852542"/><use xlink:href="#n" x="289.451147" y="81.852542"/><use xlink:href="#h" x="296.908873" y="81.852542"/><use xlink:href="#k" x="302.680405" y="81.852542"/><use xlink:href="#m" x="308.678272" y="81.852542"/><use xlink:href="#t" x="312.231725" y="81.852542"/><use xlink:href="#n" x="318.229592" y="81.852542"/><use xlink:href="#u" x="325.687318" y="81.852542"/><use xlink:href="#v" x="330.270593" y="81.852542"/><use xlink:href="#m" x="333.461911" y="81.852542"/><use xlink:href="#w" x="337.015364" y="81.852542"/><use xlink:href="#s" x="342.15316" y="81.852542"/><use xlink:href="#F" x="347.449389" y="81.852542"/><use xlink:href="#n" x="353.096438" y="81.852542"/><use xlink:href="#t" x="357.962632" y="81.852542"/><use xlink:href="#h" x="363.960499" y="81.852542"/><use xlink:href="#x" x="369.732031" y="81.852542"/><use xlink:href="#q" x="372.572531" y="81.852542"/><use xlink:href="#s" x="378.196946" y="81.852542"/><use xlink:href="#h" x="383.493175" y="81.852542"/><use xlink:href="#i" x="389.264708" y="81.852542"/><use xlink:href="#n" x="395.409692" y="81.852542"/><use xlink:href="#p" x="402.867418" y="81.852542"/><use xlink:href="#t" x="411.173898" y="81.852542"/><use xlink:href="#h" x="417.171765" y="81.852542"/><use xlink:href="#p" x="425.534829" y="81.852542"/><use xlink:href="#j" x="433.841309" y="81.852542"/><use xlink:href="#r" x="438.628286" y="81.852542"/><use xlink:href="#q" x="445.282523" y="81.852542"/><use xlink:href="#n" x="450.906938" y="81.852542"/><use xlink:href="#j" x="455.773132" y="81.852542"/><use xlink:href="#q" x="460.560109" y="81.852542"/><use xlink:href="#p" x="468.776055" y="81.852542"/><use xlink:href="#j" x="477.082536" y="81.852542"/><use xlink:href="#r" x="481.869512" y="81.852542"/><use xlink:href="#u" x="488.523749" y="81.852542"/><use xlink:href="#j" x="493.107025" y="81.852542"/><use xlink:href="#o" x="497.894001" y="81.852542"/><use xlink:href="#o" x="502.194359" y="81.852542"/><use xlink:href="#v" x="506.494717" y="81.852542"/><use xlink:href="#n" x="509.686035" y="81.852542"/><use xlink:href="#q" x="514.552229" y="81.852542"/><use xlink:href="#h" x="522.768176" y="81.852542"/><use xlink:href="#E" x="528.539709" y="81.852542"/><use xlink:href="#m" x="534.390458" y="81.852542"/><use xlink:href="#s" x="537.943911" y="81.852542"/><use xlink:href="#m" x="543.24014" y="81.852542"/><use xlink:href="#t" x="546.793593" y="81.852542"/><use xlink:href="#n" x="552.79146" y="81.852542"/><use xlink:href="#h" x="560.249186" y="81.852542"/><use xlink:href="#i" x="566.020718" y="81.852542"/><use xlink:href="#x" x="572.165703" y="81.852542"/><use xlink:href="#w" x="575.006202" y="81.852542"/><use xlink:href="#F" x="582.735529" y="81.852542"/><use xlink:href="#h" x="588.382578" y="81.852542"/><use xlink:href="#o" x="594.15411" y="81.852542"/><use xlink:href="#i" x="598.454468" y="81.852542"/></g><g fill="rgb(8.627319%, 8.627319%, 8.627319%)" fill-opacity="1"><use xlink:href="#r" x="108.587165" y="98.435845"/><use xlink:href="#h" x="112.649871" y="98.435845"/><use xlink:href="#i" x="118.421404" y="98.435845"/><use xlink:href="#h" x="127.157919" y="98.435845"/><use xlink:href="#k" x="132.929452" y="98.435845"/><use xlink:href="#t" x="138.927318" y="98.435845"/><use xlink:href="#v" x="144.925185" y="98.435845"/><use xlink:href="#r" x="148.116503" y="98.435845"/><use xlink:href="#D" x="154.77074" y="98.435845"/><use xlink:href="#h" x="163.824124" y="98.435845"/><use xlink:href="#m" x="169.595657" y="98.435845"/><use xlink:href="#t" x="173.14911" y="98.435845"/><use xlink:href="#n" x="179.146977" y="98.435845"/><use xlink:href="#o" x="184.013171" y="98.435845"/><use xlink:href="#s" x="188.313529" y="98.435845"/><use xlink:href="#j" x="193.609758" y="98.435845"/><use xlink:href="#i" x="198.396735" y="98.435845"/><use xlink:href="#q" x="204.541719" y="98.435845"/><use xlink:href="#r" x="212.757665" y="98.435845"/><use xlink:href="#t" x="216.820371" y="98.435845"/><use xlink:href="#n" x="222.818238" y="98.435845"/><use xlink:href="#p" x="230.275963" y="98.435845"/><use xlink:href="#j" x="238.582444" y="98.435845"/><use xlink:href="#r" x="243.36942" y="98.435845"/><use xlink:href="#j" x="250.023657" y="98.435845"/><use xlink:href="#p" x="257.402165" y="98.435845"/><use xlink:href="#v" x="265.708645" y="98.435845"/><use xlink:href="#q" x="268.899963" y="98.435845"/><use xlink:href="#h" x="274.524378" y="98.435845"/><use xlink:href="#p" x="280.295911" y="98.435845"/><use xlink:href="#z" x="288.602391" y="98.435845"/><use xlink:href="#A" x="293.830721" y="98.435845"/><use xlink:href="#j" x="304.128946" y="98.435845"/><use xlink:href="#i" x="308.915922" y="98.435845"/><use xlink:href="#w" x="315.060906" y="98.435845"/><use xlink:href="#B" x="322.790233" y="98.435845"/><use xlink:href="#n" x="328.573082" y="98.435845"/><use xlink:href="#h" x="333.439276" y="98.435845"/><use xlink:href="#B" x="339.210809" y="98.435845"/><use xlink:href="#x" x="344.993658" y="98.435845"/><use xlink:href="#n" x="347.834157" y="98.435845"/><use xlink:href="#h" x="355.291883" y="98.435845"/><use xlink:href="#k" x="361.063416" y="98.435845"/><use xlink:href="#m" x="367.061282" y="98.435845"/><use xlink:href="#t" x="370.614736" y="98.435845"/><use xlink:href="#n" x="376.612602" y="98.435845"/><use xlink:href="#u" x="384.070328" y="98.435845"/><use xlink:href="#v" x="388.653603" y="98.435845"/><use xlink:href="#m" x="391.844921" y="98.435845"/><use xlink:href="#w" x="395.398374" y="98.435845"/><use xlink:href="#p" x="403.127701" y="98.435845"/><use xlink:href="#n" x="411.434181" y="98.435845"/><use xlink:href="#o" x="416.300376" y="98.435845"/><use xlink:href="#n" x="420.600734" y="98.435845"/><use xlink:href="#p" x="428.058459" y="98.435845"/><use xlink:href="#v" x="436.36494" y="98.435845"/><use xlink:href="#m" x="439.556257" y="98.435845"/><use xlink:href="#t" x="443.10971" y="98.435845"/><use xlink:href="#t" x="451.699108" y="98.435845"/><use xlink:href="#n" x="457.696975" y="98.435845"/><use xlink:href="#o" x="462.563169" y="98.435845"/><use xlink:href="#z" x="466.863527" y="98.435845"/><use xlink:href="#G" x="472.091857" y="98.435845"/><use xlink:href="#t" x="484.268656" y="98.435845"/><use xlink:href="#n" x="490.266523" y="98.435845"/><use xlink:href="#i" x="495.132717" y="98.435845"/><use xlink:href="#m" x="503.869232" y="98.435845"/><use xlink:href="#t" x="507.422686" y="98.435845"/><use xlink:href="#n" x="513.420552" y="98.435845"/><use xlink:href="#H" x="520.878278" y="98.435845"/><use xlink:href="#h" x="527.306181" y="98.435845"/><use xlink:href="#o" x="533.077713" y="98.435845"/><use xlink:href="#q" x="537.378071" y="98.435845"/><use xlink:href="#r" x="545.594018" y="98.435845"/><use xlink:href="#j" x="549.656724" y="98.435845"/><use xlink:href="#p" x="554.4437" y="98.435845"/><use xlink:href="#t" x="565.341712" y="98.435845"/><use xlink:href="#n" x="571.339578" y="98.435845"/><use xlink:href="#o" x="576.205773" y="98.435845"/><use xlink:href="#s" x="580.506131" y="98.435845"/><use xlink:href="#t" x="585.80236" y="98.435845"/><use xlink:href="#n" x="591.800227" y="98.435845"/></g><g fill="rgb(8.627319%, 8.627319%, 8.627319%)" fill-opacity="1"><use xlink:href="#t" x="64.894658" y="115.019147"/><use xlink:href="#j" x="70.892525" y="115.019147"/><use xlink:href="#q" x="75.679502" y="115.019147"/><use xlink:href="#u" x="83.895448" y="115.019147"/><use xlink:href="#h" x="88.478724" y="115.019147"/><use xlink:href="#D" x="94.250257" y="115.019147"/><use xlink:href="#B" x="103.303641" y="115.019147"/><use xlink:href="#j" x="109.08649" y="115.019147"/><use xlink:href="#r" x="113.873466" y="115.019147"/><use xlink:href="#r" x="117.936172" y="115.019147"/><use xlink:href="#v" x="121.998878" y="115.019147"/><use xlink:href="#h" x="125.190195" y="115.019147"/><use xlink:href="#i" x="130.961728" y="115.019147"/><use xlink:href="#h" x="139.698243" y="115.019147"/><use xlink:href="#i" x="145.469776" y="115.019147"/><use xlink:href="#t" x="154.206291" y="115.019147"/><use xlink:href="#n" x="160.204158" y="115.019147"/><use xlink:href="#o" x="165.070352" y="115.019147"/><use xlink:href="#j" x="171.962242" y="115.019147"/><use xlink:href="#i" x="176.749218" y="115.019147"/><use xlink:href="#q" x="182.894202" y="115.019147"/><use xlink:href="#r" x="191.110149" y="115.019147"/><use xlink:href="#j" x="195.172855" y="115.019147"/><use xlink:href="#v" x="199.959831" y="115.019147"/><use xlink:href="#q" x="203.151149" y="115.019147"/><use xlink:href="#m" x="211.367095" y="115.019147"/><use xlink:href="#h" x="214.920548" y="115.019147"/><use xlink:href="#t" x="223.283612" y="115.019147"/><use xlink:href="#n" x="229.281479" y="115.019147"/><use xlink:href="#o" x="234.147673" y="115.019147"/><use xlink:href="#s" x="238.448031" y="115.019147"/><use xlink:href="#I" x="243.744261" y="115.019147"/><use xlink:href="#J" x="247.24113" y="115.019147"/><use xlink:href="#h" x="255.411809" y="115.019147"/><use xlink:href="#i" x="261.183342" y="115.019147"/><use xlink:href="#K" x="267.328326" y="115.019147"/><use xlink:href="#m" x="269.139003" y="115.019147"/><use xlink:href="#u" x="275.283987" y="115.019147"/><use xlink:href="#o" x="279.867263" y="115.019147"/><use xlink:href="#w" x="284.167621" y="115.019147"/><use xlink:href="#z" x="289.305417" y="115.019147"/><use xlink:href="#L" x="291.942215" y="115.019147"/><use xlink:href="#M" x="298.041933" y="115.019147"/><use xlink:href="#n" x="306.042862" y="115.019147"/><use xlink:href="#u" x="313.500587" y="115.019147"/><use xlink:href="#j" x="318.083863" y="115.019147"/><use xlink:href="#D" x="322.870839" y="115.019147"/><use xlink:href="#n" x="331.924223" y="115.019147"/><use xlink:href="#i" x="339.381949" y="115.019147"/><use xlink:href="#n" x="345.526933" y="115.019147"/><use xlink:href="#j" x="350.393127" y="115.019147"/><use xlink:href="#o" x="355.180104" y="115.019147"/><use xlink:href="#j" x="362.071993" y="115.019147"/><use xlink:href="#i" x="366.85897" y="115.019147"/><use xlink:href="#q" x="373.003954" y="115.019147"/><use xlink:href="#m" x="381.2199" y="115.019147"/><use xlink:href="#h" x="384.773353" y="115.019147"/><use xlink:href="#E" x="390.544886" y="115.019147"/><use xlink:href="#u" x="396.395635" y="115.019147"/><use xlink:href="#t" x="400.978911" y="115.019147"/><use xlink:href="#n" x="406.976778" y="115.019147"/><use xlink:href="#q" x="411.842972" y="115.019147"/><use xlink:href="#m" x="420.058919" y="115.019147"/><use xlink:href="#t" x="423.612372" y="115.019147"/><use xlink:href="#n" x="429.610239" y="115.019147"/><use xlink:href="#u" x="437.067964" y="115.019147"/><use xlink:href="#h" x="441.65124" y="115.019147"/><use xlink:href="#k" x="447.422772" y="115.019147"/><use xlink:href="#k" x="450.829108" y="115.019147"/><use xlink:href="#v" x="454.235444" y="115.019147"/><use xlink:href="#i" x="457.426761" y="115.019147"/><use xlink:href="#s" x="463.571746" y="115.019147"/><use xlink:href="#j" x="468.867975" y="115.019147"/><use xlink:href="#i" x="473.654951" y="115.019147"/><use xlink:href="#q" x="479.799935" y="115.019147"/><use xlink:href="#m" x="488.015882" y="115.019147"/><use xlink:href="#t" x="491.569335" y="115.019147"/><use xlink:href="#n" x="497.567202" y="115.019147"/><use xlink:href="#F" x="505.024927" y="115.019147"/><use xlink:href="#n" x="510.671976" y="115.019147"/><use xlink:href="#j" x="515.53817" y="115.019147"/><use xlink:href="#o" x="520.325147" y="115.019147"/><use xlink:href="#n" x="524.625505" y="115.019147"/><use xlink:href="#o" x="529.491699" y="115.019147"/><use xlink:href="#r" x="533.792057" y="115.019147"/><use xlink:href="#r" x="540.446294" y="115.019147"/><use xlink:href="#m" x="544.509" y="115.019147"/><use xlink:href="#h" x="548.062453" y="115.019147"/><use xlink:href="#h" x="553.833986" y="115.019147"/><use xlink:href="#q" x="559.605518" y="115.019147"/><use xlink:href="#r" x="567.821465" y="115.019147"/><use xlink:href="#m" x="571.884171" y="115.019147"/><use xlink:href="#v" x="575.437624" y="115.019147"/><use xlink:href="#x" x="578.628941" y="115.019147"/><use xlink:href="#x" x="581.469441" y="115.019147"/><use xlink:href="#z" x="584.30994" y="115.019147"/><use xlink:href="#M" x="589.53827" y="115.019147"/><use xlink:href="#n" x="597.539198" y="115.019147"/></g><g fill="rgb(8.627319%, 8.627319%, 8.627319%)" fill-opacity="1"><use xlink:href="#r" x="64.894658" y="131.60245"/><use xlink:href="#j" x="68.957364" y="131.60245"/><use xlink:href="#v" x="73.744341" y="131.60245"/><use xlink:href="#q" x="76.935658" y="131.60245"/><use xlink:href="#s" x="82.560074" y="131.60245"/><use xlink:href="#I" x="87.856303" y="131.60245"/><use xlink:href="#N" x="91.353173" y="131.60245"/><use xlink:href="#h" x="98.697731" y="131.60245"/><use xlink:href="#E" x="104.469264" y="131.60245"/><use xlink:href="#i" x="110.320013" y="131.60245"/><use xlink:href="#C" x="116.464997" y="131.60245"/><use xlink:href="#D" x="124.420658" y="131.60245"/><use xlink:href="#j" x="133.474043" y="131.60245"/><use xlink:href="#i" x="138.261019" y="131.60245"/><use xlink:href="#s" x="144.406003" y="131.60245"/><use xlink:href="#O" x="149.702232" y="131.60245"/><use xlink:href="#m" x="155.892484" y="131.60245"/><use xlink:href="#n" x="159.445937" y="131.60245"/><use xlink:href="#x" x="164.312131" y="131.60245"/><use xlink:href="#x" x="167.152631" y="131.60245"/><use xlink:href="#w" x="172.584661" y="131.60245"/><use xlink:href="#h" x="177.722457" y="131.60245"/><use xlink:href="#E" x="183.49399" y="131.60245"/><use xlink:href="#s" x="189.344739" y="131.60245"/><use xlink:href="#j" x="194.640969" y="131.60245"/><use xlink:href="#o" x="199.427945" y="131.60245"/><use xlink:href="#v" x="203.728303" y="131.60245"/><use xlink:href="#r" x="206.919621" y="131.60245"/><use xlink:href="#n" x="210.982327" y="131.60245"/><use xlink:href="#P" x="215.848521" y="131.60245"/><use xlink:href="#L" x="219.017206" y="131.60245"/><use xlink:href="#M" x="225.116923" y="131.60245"/><use xlink:href="#n" x="233.117852" y="131.60245"/><use xlink:href="#p" x="240.575577" y="131.60245"/><use xlink:href="#t" x="248.882058" y="131.60245"/><use xlink:href="#h" x="254.879924" y="131.60245"/><use xlink:href="#p" x="263.242988" y="131.60245"/><use xlink:href="#j" x="271.549469" y="131.60245"/><use xlink:href="#r" x="276.336445" y="131.60245"/><use xlink:href="#q" x="282.990682" y="131.60245"/><use xlink:href="#n" x="288.615097" y="131.60245"/><use xlink:href="#j" x="293.481292" y="131.60245"/><use xlink:href="#q" x="298.268268" y="131.60245"/><use xlink:href="#r" x="306.484215" y="131.60245"/><use xlink:href="#j" x="310.546921" y="131.60245"/><use xlink:href="#m" x="315.333897" y="131.60245"/><use xlink:href="#E" x="321.478881" y="131.60245"/><use xlink:href="#B" x="327.329631" y="131.60245"/><use xlink:href="#j" x="335.70401" y="131.60245"/><use xlink:href="#i" x="340.490987" y="131.60245"/><use xlink:href="#q" x="346.635971" y="131.60245"/><use xlink:href="#F" x="354.851918" y="131.60245"/><use xlink:href="#n" x="360.498966" y="131.60245"/><use xlink:href="#C" x="365.365161" y="131.60245"/><use xlink:href="#j" x="370.72929" y="131.60245"/><use xlink:href="#i" x="375.516267" y="131.60245"/><use xlink:href="#m" x="384.252782" y="131.60245"/><use xlink:href="#h" x="387.806235" y="131.60245"/><use xlink:href="#r" x="396.169299" y="131.60245"/><use xlink:href="#B" x="400.232005" y="131.60245"/><use xlink:href="#n" x="406.014854" y="131.60245"/><use xlink:href="#j" x="410.881048" y="131.60245"/><use xlink:href="#Q" x="415.668024" y="131.60245"/><use xlink:href="#z" x="421.281123" y="131.60245"/><use xlink:href="#R" x="426.509452" y="131.60245"/><use xlink:href="#t" x="434.080345" y="131.60245"/><use xlink:href="#n" x="440.078212" y="131.60245"/><use xlink:href="#i" x="444.944406" y="131.60245"/><use xlink:href="#t" x="453.680921" y="131.60245"/><use xlink:href="#n" x="459.678788" y="131.60245"/><use xlink:href="#C" x="467.136513" y="131.60245"/><use xlink:href="#j" x="472.500643" y="131.60245"/><use xlink:href="#S" x="477.28762" y="131.60245"/><use xlink:href="#n" x="482.866768" y="131.60245"/><use xlink:href="#t" x="490.324493" y="131.60245"/><use xlink:href="#v" x="496.32236" y="131.60245"/><use xlink:href="#D" x="499.513678" y="131.60245"/><use xlink:href="#m" x="511.158593" y="131.60245"/><use xlink:href="#h" x="514.712046" y="131.60245"/><use xlink:href="#t" x="523.07511" y="131.60245"/><use xlink:href="#v" x="529.072977" y="131.60245"/><use xlink:href="#r" x="532.264294" y="131.60245"/><use xlink:href="#D" x="538.918531" y="131.60245"/><use xlink:href="#h" x="547.971915" y="131.60245"/><use xlink:href="#m" x="553.743448" y="131.60245"/><use xlink:href="#t" x="557.296901" y="131.60245"/><use xlink:href="#n" x="563.294768" y="131.60245"/><use xlink:href="#o" x="568.160962" y="131.60245"/><use xlink:href="#z" x="572.46132" y="131.60245"/><use xlink:href="#T" x="577.68965" y="131.60245"/><use xlink:href="#n" x="583.925168" y="131.60245"/><use xlink:href="#j" x="588.791363" y="131.60245"/><use xlink:href="#o" x="593.578339" y="131.60245"/></g><g fill="rgb(8.627319%, 8.627319%, 8.627319%)" fill-opacity="1"><use xlink:href="#m" x="64.894658" y="148.185752"/><use xlink:href="#h" x="68.448111" y="148.185752"/><use xlink:href="#h" x="74.219644" y="148.185752"/><use xlink:href="#Q" x="79.991177" y="148.185752"/><use xlink:href="#t" x="88.195806" y="148.185752"/><use xlink:href="#h" x="94.193673" y="148.185752"/><use xlink:href="#x" x="99.965206" y="148.185752"/><use xlink:href="#q" x="102.805705" y="148.185752"/><use xlink:href="#h" x="111.021652" y="148.185752"/><use xlink:href="#k" x="116.793185" y="148.185752"/><use xlink:href="#j" x="122.791051" y="148.185752"/><use xlink:href="#x" x="127.578028" y="148.185752"/><use xlink:href="#x" x="130.418527" y="148.185752"/><use xlink:href="#s" x="133.259027" y="148.185752"/><use xlink:href="#j" x="138.555256" y="148.185752"/><use xlink:href="#i" x="143.342233" y="148.185752"/><use xlink:href="#q" x="149.487217" y="148.185752"/><use xlink:href="#m" x="157.703163" y="148.185752"/><use xlink:href="#t" x="161.256616" y="148.185752"/><use xlink:href="#n" x="167.254483" y="148.185752"/><use xlink:href="#w" x="172.120677" y="148.185752"/><use xlink:href="#C" x="179.850004" y="148.185752"/><use xlink:href="#x" x="185.214134" y="148.185752"/><use xlink:href="#h" x="188.054634" y="148.185752"/><use xlink:href="#o" x="193.826166" y="148.185752"/><use xlink:href="#v" x="198.126525" y="148.185752"/><use xlink:href="#k" x="201.317842" y="148.185752"/><use xlink:href="#v" x="204.724178" y="148.185752"/><use xlink:href="#n" x="207.915496" y="148.185752"/><use xlink:href="#q" x="212.78169" y="148.185752"/><use xlink:href="#U" x="220.997636" y="148.185752"/><use xlink:href="#h" x="229.089099" y="148.185752"/><use xlink:href="#q" x="234.860632" y="148.185752"/><use xlink:href="#s" x="240.485047" y="148.185752"/><use xlink:href="#r" x="245.781276" y="148.185752"/><use xlink:href="#j" x="249.843982" y="148.185752"/><use xlink:href="#w" x="254.630958" y="148.185752"/><use xlink:href="#v" x="259.768754" y="148.185752"/><use xlink:href="#i" x="262.960072" y="148.185752"/><use xlink:href="#C" x="269.105056" y="148.185752"/><use xlink:href="#s" x="274.469186" y="148.185752"/><use xlink:href="#I" x="279.765415" y="148.185752"/><use xlink:href="#V" x="283.262285" y="148.185752"/><use xlink:href="#C" x="293.59446" y="148.185752"/><use xlink:href="#o" x="298.95859" y="148.185752"/><use xlink:href="#n" x="303.258948" y="148.185752"/><use xlink:href="#j" x="308.125142" y="148.185752"/><use xlink:href="#m" x="312.912119" y="148.185752"/><use xlink:href="#B" x="319.057103" y="148.185752"/><use xlink:href="#o" x="324.839952" y="148.185752"/><use xlink:href="#h" x="329.14031" y="148.185752"/><use xlink:href="#B" x="334.911843" y="148.185752"/><use xlink:href="#t" x="340.694691" y="148.185752"/><use xlink:href="#n" x="346.692558" y="148.185752"/><use xlink:href="#m" x="351.558752" y="148.185752"/><use xlink:href="#t" x="357.703737" y="148.185752"/><use xlink:href="#j" x="363.701603" y="148.185752"/><use xlink:href="#r" x="368.48858" y="148.185752"/><use xlink:href="#j" x="375.142817" y="148.185752"/><use xlink:href="#o" x="379.929793" y="148.185752"/><use xlink:href="#v" x="384.230151" y="148.185752"/><use xlink:href="#r" x="387.421469" y="148.185752"/><use xlink:href="#n" x="391.484175" y="148.185752"/><use xlink:href="#i" x="396.350369" y="148.185752"/><use xlink:href="#j" x="405.086884" y="148.185752"/><use xlink:href="#D" x="409.873861" y="148.185752"/><use xlink:href="#h" x="418.927245" y="148.185752"/><use xlink:href="#i" x="424.698778" y="148.185752"/><use xlink:href="#C" x="430.843762" y="148.185752"/><use xlink:href="#E" x="438.799423" y="148.185752"/><use xlink:href="#r" x="444.650172" y="148.185752"/><use xlink:href="#P" x="448.712878" y="148.185752"/><use xlink:href="#L" x="451.881563" y="148.185752"/><use xlink:href="#j" x="457.98128" y="148.185752"/><use xlink:href="#i" x="462.768257" y="148.185752"/><use xlink:href="#q" x="468.913241" y="148.185752"/><use xlink:href="#s" x="474.537657" y="148.185752"/><use xlink:href="#I" x="479.833886" y="148.185752"/><use xlink:href="#U" x="483.330755" y="148.185752"/><use xlink:href="#h" x="491.422218" y="148.185752"/><use xlink:href="#q" x="497.19375" y="148.185752"/><use xlink:href="#t" x="505.409697" y="148.185752"/><use xlink:href="#j" x="511.407564" y="148.185752"/><use xlink:href="#r" x="516.19454" y="148.185752"/><use xlink:href="#S" x="522.848777" y="148.185752"/><use xlink:href="#v" x="528.427925" y="148.185752"/><use xlink:href="#r" x="531.619243" y="148.185752"/><use xlink:href="#v" x="535.681948" y="148.185752"/><use xlink:href="#m" x="538.873266" y="148.185752"/><use xlink:href="#n" x="542.426719" y="148.185752"/><use xlink:href="#q" x="547.292913" y="148.185752"/><use xlink:href="#t" x="555.50886" y="148.185752"/><use xlink:href="#v" x="561.506727" y="148.185752"/><use xlink:href="#r" x="564.698044" y="148.185752"/><use xlink:href="#B" x="571.352281" y="148.185752"/><use xlink:href="#n" x="577.13513" y="148.185752"/><use xlink:href="#h" x="582.001324" y="148.185752"/><use xlink:href="#B" x="587.772857" y="148.185752"/><use xlink:href="#x" x="593.555706" y="148.185752"/><use xlink:href="#n" x="596.396205" y="148.185752"/><use xlink:href="#P" x="601.2624" y="148.185752"/><use xlink:href="#L" x="604.431084" y="148.185752"/></g><g fill="rgb(8.627319%, 8.627319%, 8.627319%)" fill-opacity="1"><use xlink:href="#R" x="64.894658" y="164.769055"/><use xlink:href="#t" x="72.465551" y="164.769055"/><use xlink:href="#v" x="78.463418" y="164.769055"/><use xlink:href="#r" x="81.654735" y="164.769055"/><use xlink:href="#o" x="88.308972" y="164.769055"/><use xlink:href="#n" x="92.60933" y="164.769055"/><use xlink:href="#B" x="97.475525" y="164.769055"/><use xlink:href="#h" x="103.258373" y="164.769055"/><use xlink:href="#o" x="109.029906" y="164.769055"/><use xlink:href="#m" x="113.330264" y="164.769055"/><use xlink:href="#p" x="119.475248" y="164.769055"/><use xlink:href="#n" x="127.781729" y="164.769055"/><use xlink:href="#i" x="132.647923" y="164.769055"/><use xlink:href="#m" x="138.792907" y="164.769055"/><use xlink:href="#h" x="144.937891" y="164.769055"/><use xlink:href="#E" x="150.709424" y="164.769055"/><use xlink:href="#m" x="156.560174" y="164.769055"/><use xlink:href="#u" x="162.705158" y="164.769055"/><use xlink:href="#h" x="167.288433" y="164.769055"/><use xlink:href="#i" x="173.059966" y="164.769055"/><use xlink:href="#u" x="179.20495" y="164.769055"/><use xlink:href="#n" x="183.788226" y="164.769055"/><use xlink:href="#o" x="188.65442" y="164.769055"/><use xlink:href="#i" x="192.954778" y="164.769055"/><use xlink:href="#v" x="199.099762" y="164.769055"/><use xlink:href="#i" x="202.29108" y="164.769055"/><use xlink:href="#C" x="208.436064" y="164.769055"/><use xlink:href="#t" x="216.391725" y="164.769055"/><use xlink:href="#v" x="222.389592" y="164.769055"/><use xlink:href="#D" x="225.58091" y="164.769055"/><use xlink:href="#v" x="237.225825" y="164.769055"/><use xlink:href="#i" x="240.417143" y="164.769055"/><use xlink:href="#m" x="249.153658" y="164.769055"/><use xlink:href="#t" x="252.707111" y="164.769055"/><use xlink:href="#n" x="258.704978" y="164.769055"/><use xlink:href="#p" x="266.162703" y="164.769055"/><use xlink:href="#t" x="274.469184" y="164.769055"/><use xlink:href="#h" x="280.46705" y="164.769055"/><use xlink:href="#x" x="286.238583" y="164.769055"/><use xlink:href="#n" x="289.079083" y="164.769055"/><use xlink:href="#h" x="296.536808" y="164.769055"/><use xlink:href="#k" x="302.308341" y="164.769055"/><use xlink:href="#W" x="308.306208" y="164.769055"/><use xlink:href="#E" x="311.950195" y="164.769055"/><use xlink:href="#q" x="317.800944" y="164.769055"/><use xlink:href="#n" x="323.425359" y="164.769055"/><use xlink:href="#j" x="328.291554" y="164.769055"/><use xlink:href="#j" x="335.670061" y="164.769055"/><use xlink:href="#i" x="340.457038" y="164.769055"/><use xlink:href="#q" x="346.602022" y="164.769055"/><use xlink:href="#v" x="354.817968" y="164.769055"/><use xlink:href="#i" x="358.009286" y="164.769055"/><use xlink:href="#j" x="366.745801" y="164.769055"/><use xlink:href="#x" x="371.532778" y="164.769055"/><use xlink:href="#x" x="374.373277" y="164.769055"/><use xlink:href="#m" x="379.805308" y="164.769055"/><use xlink:href="#t" x="383.358761" y="164.769055"/><use xlink:href="#n" x="389.356628" y="164.769055"/><use xlink:href="#r" x="396.814353" y="164.769055"/><use xlink:href="#E" x="400.877059" y="164.769055"/><use xlink:href="#o" x="406.727808" y="164.769055"/><use xlink:href="#o" x="411.028166" y="164.769055"/><use xlink:href="#h" x="415.328525" y="164.769055"/><use xlink:href="#E" x="421.100057" y="164.769055"/><use xlink:href="#i" x="426.950807" y="164.769055"/><use xlink:href="#q" x="433.095791" y="164.769055"/><use xlink:href="#v" x="438.720206" y="164.769055"/><use xlink:href="#i" x="441.911524" y="164.769055"/><use xlink:href="#C" x="448.056508" y="164.769055"/><use xlink:href="#o" x="456.012169" y="164.769055"/><use xlink:href="#n" x="460.312527" y="164.769055"/><use xlink:href="#C" x="465.178722" y="164.769055"/><use xlink:href="#v" x="470.542851" y="164.769055"/><use xlink:href="#h" x="473.734169" y="164.769055"/><use xlink:href="#i" x="479.505702" y="164.769055"/><use xlink:href="#z" x="485.650686" y="164.769055"/></g></svg>